M48
; DRILL file {KiCad (5.1.5)-3} date 2020/4/13 15:09:32
; FORMAT={-:-/ absolute / inch / decimal}
; #@! TF.CreationDate,2020-04-13T15:09:32+01:00
; #@! TF.GenerationSoftware,Kicad,Pcbnew,(5.1.5)-3
; #@! TF.FileFunction,Plated,1,2,PTH
FMAT,2
INCH
T1C0.0157
T2C0.0276
T3C0.0315
T4C0.0354
T5C0.0394
T6C0.0433
%
G90
G05
T1
X6.0Y-3.6
X6.9Y-4.3
X7.05Y-4.95
T2
X4.65Y-4.5
X4.65Y-4.6
X4.65Y-4.8
X4.15Y-3.95
X4.15Y-4.05
X4.15Y-4.25
X4.65Y-3.95
X4.65Y-4.05
X4.65Y-4.25
X4.15Y-4.5
X4.15Y-4.6
X4.15Y-4.8
T3
X6.3Y-1.95
X6.8Y-1.95
X5.3Y-4.7
X5.8Y-4.7
X5.3Y-3.55
X5.8Y-3.55
X6.3Y-3.45
X6.8Y-3.45
X6.3Y-4.05
X6.8Y-4.05
X5.3Y-2.65
X5.8Y-2.65
X5.3Y-4.15
X5.8Y-4.15
X6.3Y-3.75
X6.8Y-3.75
X5.3Y-2.95
X5.8Y-2.95
X4.3Y-2.25
X4.8Y-2.25
X4.3Y-2.55
X4.8Y-2.55
X6.3Y-3.15
X6.8Y-3.15
X5.3Y-4.45
X5.8Y-4.45
X5.3Y-2.35
X5.8Y-2.35
X6.3Y-4.35
X6.8Y-4.35
X5.3Y-3.85
X5.8Y-3.85
X5.3Y-3.25
X5.8Y-3.25
X6.3Y-4.6
X6.8Y-4.6
X5.3Y-2.05
X5.8Y-2.05
X6.3Y-2.25
X6.8Y-2.25
T4
X6.35Y-2.85
X6.45Y-2.85
X4.95Y-3.8
X5.05Y-3.8
X4.95Y-4.4
X5.05Y-4.4
X6.7Y-2.55
X6.8Y-2.55
X4.95Y-4.1
X5.05Y-4.1
X6.0Y-4.65
X6.1Y-4.65
X6.0Y-4.05
X6.1Y-4.05
X6.0Y-2.25
X6.1Y-2.25
X6.0Y-4.35
X6.1Y-4.35
X4.95Y-2.6
X5.05Y-2.6
X4.95Y-2.3
X5.05Y-2.3
X4.0Y-2.55
X4.1Y-2.55
X4.0Y-2.25
X4.1Y-2.25
X6.0Y-3.75
X6.1Y-3.75
X6.7Y-2.85
X6.8Y-2.85
X6.0Y-1.95
X6.1Y-1.95
X4.95Y-3.5
X5.05Y-3.5
X4.95Y-4.7
X5.05Y-4.7
X6.35Y-2.55
X6.45Y-2.55
X6.0Y-3.45
X6.1Y-3.45
X6.0Y-3.15
X6.1Y-3.15
X4.95Y-2.9
X5.05Y-2.9
X4.95Y-2.0
X5.05Y-2.0
X4.95Y-3.2
X5.05Y-3.2
T5
X7.2Y-2.7
X7.2Y-2.8
X7.2Y-2.9
X7.2Y-3.0
X7.2Y-3.1
X7.2Y-3.2
X7.2Y-3.3
X7.2Y-3.4
X7.2Y-3.5
X7.2Y-3.6
X7.2Y-3.7
X7.2Y-3.8
X7.2Y-3.9
X7.2Y-4.0
X7.2Y-4.1
X7.2Y-4.2
X7.2Y-4.3
X7.2Y-4.4
X7.2Y-4.5
X7.2Y-4.6
X7.3Y-2.7
X7.3Y-2.8
X7.3Y-2.9
X7.3Y-3.0
X7.3Y-3.1
X7.3Y-3.2
X7.3Y-3.3
X7.3Y-3.4
X7.3Y-3.5
X7.3Y-3.6
X7.3Y-3.7
X7.3Y-3.8
X7.3Y-3.9
X7.3Y-4.0
X7.3Y-4.1
X7.3Y-4.2
X7.3Y-4.3
X7.3Y-4.4
X7.3Y-4.5
X7.3Y-4.6
T6
X3.95Y-3.45
X3.95Y-3.6272
X4.2059Y-3.45
X4.2059Y-3.6272
X4.5Y-2.95
X4.5Y-3.1272
X4.7559Y-2.95
X4.7559Y-3.1272
X3.95Y-2.95
X3.95Y-3.1272
X4.2059Y-2.95
X4.2059Y-3.1272
X4.5Y-3.45
X4.5Y-3.6272
X4.7559Y-3.45
X4.7559Y-3.6272
T0
M30
