G04 #@! TF.GenerationSoftware,KiCad,Pcbnew,(5.1.5)-3*
G04 #@! TF.CreationDate,2020-04-13T15:09:25+01:00*
G04 #@! TF.ProjectId,TL1,544c312e-6b69-4636-9164-5f7063625858,rev?*
G04 #@! TF.SameCoordinates,Original*
G04 #@! TF.FileFunction,Other,User*
%FSLAX46Y46*%
G04 Gerber Fmt 4.6, Leading zero omitted, Abs format (unit mm)*
G04 Created by KiCad (PCBNEW (5.1.5)-3) date 2020-04-13 15:09:25*
%MOMM*%
%LPD*%
G04 APERTURE LIST*
%ADD10C,0.050000*%
G04 APERTURE END LIST*
D10*
X100440000Y-67020000D02*
X105290000Y-67020000D01*
X100440000Y-62520000D02*
X100440000Y-67020000D01*
X105290000Y-62520000D02*
X100440000Y-62520000D01*
X105290000Y-67020000D02*
X105290000Y-62520000D01*
X100440000Y-59400000D02*
X105290000Y-59400000D01*
X100440000Y-54900000D02*
X100440000Y-59400000D01*
X105290000Y-54900000D02*
X100440000Y-54900000D01*
X105290000Y-59400000D02*
X105290000Y-54900000D01*
X156100000Y-47280000D02*
X151250000Y-47280000D01*
X156100000Y-51780000D02*
X156100000Y-47280000D01*
X151250000Y-51780000D02*
X156100000Y-51780000D01*
X151250000Y-47280000D02*
X151250000Y-51780000D01*
X156100000Y-54900000D02*
X151250000Y-54900000D01*
X156100000Y-59400000D02*
X156100000Y-54900000D01*
X151250000Y-59400000D02*
X156100000Y-59400000D01*
X151250000Y-54900000D02*
X151250000Y-59400000D01*
X101530000Y-123350000D02*
X101530000Y-112850000D01*
X101530000Y-123350000D02*
X107260000Y-123350000D01*
X107260000Y-112850000D02*
X101530000Y-112850000D01*
X107260000Y-112850000D02*
X107260000Y-123350000D01*
X114230000Y-109380000D02*
X114230000Y-98880000D01*
X114230000Y-109380000D02*
X119960000Y-109380000D01*
X119960000Y-98880000D02*
X114230000Y-98880000D01*
X119960000Y-98880000D02*
X119960000Y-109380000D01*
X101530000Y-109380000D02*
X101530000Y-98880000D01*
X101530000Y-109380000D02*
X107260000Y-109380000D01*
X107260000Y-98880000D02*
X101530000Y-98880000D01*
X107260000Y-98880000D02*
X107260000Y-109380000D01*
X114230000Y-123350000D02*
X114230000Y-112850000D01*
X114230000Y-123350000D02*
X119960000Y-123350000D01*
X119960000Y-112850000D02*
X114230000Y-112850000D01*
X119960000Y-112850000D02*
X119960000Y-123350000D01*
X108330000Y-73680000D02*
X108330000Y-80680000D01*
X108080000Y-80930000D02*
X99080000Y-80930000D01*
X98830000Y-80680000D02*
X98830000Y-73680000D01*
X99080000Y-73430000D02*
X108080000Y-73430000D01*
X98830000Y-80930000D02*
X99080000Y-80930000D01*
X98830000Y-80680000D02*
X98830000Y-80930000D01*
X98830000Y-73430000D02*
X99080000Y-73430000D01*
X98830000Y-73680000D02*
X98830000Y-73430000D01*
X108330000Y-73430000D02*
X108330000Y-73680000D01*
X108080000Y-73430000D02*
X108330000Y-73430000D01*
X108330000Y-80930000D02*
X108330000Y-80680000D01*
X108080000Y-80930000D02*
X108330000Y-80930000D01*
X122300000Y-73680000D02*
X122300000Y-80680000D01*
X122050000Y-80930000D02*
X113050000Y-80930000D01*
X112800000Y-80680000D02*
X112800000Y-73680000D01*
X113050000Y-73430000D02*
X122050000Y-73430000D01*
X112800000Y-80930000D02*
X113050000Y-80930000D01*
X112800000Y-80680000D02*
X112800000Y-80930000D01*
X112800000Y-73430000D02*
X113050000Y-73430000D01*
X112800000Y-73680000D02*
X112800000Y-73430000D01*
X122300000Y-73430000D02*
X122300000Y-73680000D01*
X122050000Y-73430000D02*
X122300000Y-73430000D01*
X122300000Y-80930000D02*
X122300000Y-80680000D01*
X122050000Y-80930000D02*
X122300000Y-80930000D01*
X108330000Y-86380000D02*
X108330000Y-93380000D01*
X108080000Y-93630000D02*
X99080000Y-93630000D01*
X98830000Y-93380000D02*
X98830000Y-86380000D01*
X99080000Y-86130000D02*
X108080000Y-86130000D01*
X98830000Y-93630000D02*
X99080000Y-93630000D01*
X98830000Y-93380000D02*
X98830000Y-93630000D01*
X98830000Y-86130000D02*
X99080000Y-86130000D01*
X98830000Y-86380000D02*
X98830000Y-86130000D01*
X108330000Y-86130000D02*
X108330000Y-86380000D01*
X108080000Y-86130000D02*
X108330000Y-86130000D01*
X108330000Y-93630000D02*
X108330000Y-93380000D01*
X108080000Y-93630000D02*
X108330000Y-93630000D01*
X122300000Y-86380000D02*
X122300000Y-93380000D01*
X122050000Y-93630000D02*
X113050000Y-93630000D01*
X112800000Y-93380000D02*
X112800000Y-86380000D01*
X113050000Y-86130000D02*
X122050000Y-86130000D01*
X112800000Y-93630000D02*
X113050000Y-93630000D01*
X112800000Y-93380000D02*
X112800000Y-93630000D01*
X112800000Y-86130000D02*
X113050000Y-86130000D01*
X112800000Y-86380000D02*
X112800000Y-86130000D01*
X122300000Y-86130000D02*
X122300000Y-86380000D01*
X122050000Y-86130000D02*
X122300000Y-86130000D01*
X122300000Y-93630000D02*
X122300000Y-93380000D01*
X122050000Y-93630000D02*
X122300000Y-93630000D01*
X124570000Y-106390000D02*
X129420000Y-106390000D01*
X124570000Y-101890000D02*
X124570000Y-106390000D01*
X129420000Y-101890000D02*
X124570000Y-101890000D01*
X129420000Y-106390000D02*
X129420000Y-101890000D01*
X124570000Y-75910000D02*
X129420000Y-75910000D01*
X124570000Y-71410000D02*
X124570000Y-75910000D01*
X129420000Y-71410000D02*
X124570000Y-71410000D01*
X129420000Y-75910000D02*
X129420000Y-71410000D01*
X124570000Y-68290000D02*
X129420000Y-68290000D01*
X124570000Y-63790000D02*
X124570000Y-68290000D01*
X129420000Y-63790000D02*
X124570000Y-63790000D01*
X129420000Y-68290000D02*
X129420000Y-63790000D01*
X124570000Y-60670000D02*
X129420000Y-60670000D01*
X124570000Y-56170000D02*
X124570000Y-60670000D01*
X129420000Y-56170000D02*
X124570000Y-56170000D01*
X129420000Y-60670000D02*
X129420000Y-56170000D01*
X129430000Y-48550000D02*
X124580000Y-48550000D01*
X129430000Y-53050000D02*
X129430000Y-48550000D01*
X124580000Y-53050000D02*
X129430000Y-53050000D01*
X124580000Y-48550000D02*
X124580000Y-53050000D01*
X124570000Y-98770000D02*
X129420000Y-98770000D01*
X124570000Y-94270000D02*
X124570000Y-98770000D01*
X129420000Y-94270000D02*
X124570000Y-94270000D01*
X129420000Y-98770000D02*
X129420000Y-94270000D01*
X124570000Y-91150000D02*
X129420000Y-91150000D01*
X124570000Y-86650000D02*
X124570000Y-91150000D01*
X129420000Y-86650000D02*
X124570000Y-86650000D01*
X129420000Y-91150000D02*
X129420000Y-86650000D01*
X124570000Y-83530000D02*
X129420000Y-83530000D01*
X124570000Y-79030000D02*
X124570000Y-83530000D01*
X129420000Y-79030000D02*
X124570000Y-79030000D01*
X129420000Y-83530000D02*
X129420000Y-79030000D01*
X156100000Y-100620000D02*
X151250000Y-100620000D01*
X156100000Y-105120000D02*
X156100000Y-100620000D01*
X151250000Y-105120000D02*
X156100000Y-105120000D01*
X151250000Y-100620000D02*
X151250000Y-105120000D01*
X156100000Y-93000000D02*
X151250000Y-93000000D01*
X156100000Y-97500000D02*
X156100000Y-93000000D01*
X151250000Y-97500000D02*
X156100000Y-97500000D01*
X151250000Y-93000000D02*
X151250000Y-97500000D01*
X156100000Y-85380000D02*
X151250000Y-85380000D01*
X156100000Y-89880000D02*
X156100000Y-85380000D01*
X151250000Y-89880000D02*
X156100000Y-89880000D01*
X151250000Y-85380000D02*
X151250000Y-89880000D01*
X156100000Y-77760000D02*
X151250000Y-77760000D01*
X156100000Y-82260000D02*
X156100000Y-77760000D01*
X151250000Y-82260000D02*
X156100000Y-82260000D01*
X151250000Y-77760000D02*
X151250000Y-82260000D01*
X108170000Y-66620000D02*
X122970000Y-66620000D01*
X108170000Y-62920000D02*
X108170000Y-66620000D01*
X122970000Y-62920000D02*
X108170000Y-62920000D01*
X122970000Y-66620000D02*
X122970000Y-62920000D01*
X108170000Y-59000000D02*
X122970000Y-59000000D01*
X108170000Y-55300000D02*
X108170000Y-59000000D01*
X122970000Y-55300000D02*
X108170000Y-55300000D01*
X122970000Y-59000000D02*
X122970000Y-55300000D01*
X158970000Y-51380000D02*
X173770000Y-51380000D01*
X158970000Y-47680000D02*
X158970000Y-51380000D01*
X173770000Y-47680000D02*
X158970000Y-47680000D01*
X173770000Y-51380000D02*
X173770000Y-47680000D01*
X158970000Y-59000000D02*
X173770000Y-59000000D01*
X158970000Y-55300000D02*
X158970000Y-59000000D01*
X173770000Y-55300000D02*
X158970000Y-55300000D01*
X173770000Y-59000000D02*
X173770000Y-55300000D01*
X133570000Y-107260000D02*
X148370000Y-107260000D01*
X133570000Y-103560000D02*
X133570000Y-107260000D01*
X148370000Y-103560000D02*
X133570000Y-103560000D01*
X148370000Y-107260000D02*
X148370000Y-103560000D01*
X133570000Y-99640000D02*
X148370000Y-99640000D01*
X133570000Y-95940000D02*
X133570000Y-99640000D01*
X148370000Y-95940000D02*
X133570000Y-95940000D01*
X148370000Y-99640000D02*
X148370000Y-95940000D01*
X133570000Y-92020000D02*
X148370000Y-92020000D01*
X133570000Y-88320000D02*
X133570000Y-92020000D01*
X148370000Y-88320000D02*
X133570000Y-88320000D01*
X148370000Y-92020000D02*
X148370000Y-88320000D01*
X133570000Y-84400000D02*
X148370000Y-84400000D01*
X133570000Y-80700000D02*
X133570000Y-84400000D01*
X148370000Y-80700000D02*
X133570000Y-80700000D01*
X148370000Y-84400000D02*
X148370000Y-80700000D01*
X133570000Y-76780000D02*
X148370000Y-76780000D01*
X133570000Y-73080000D02*
X133570000Y-76780000D01*
X148370000Y-73080000D02*
X133570000Y-73080000D01*
X148370000Y-76780000D02*
X148370000Y-73080000D01*
X133570000Y-69160000D02*
X148370000Y-69160000D01*
X133570000Y-65460000D02*
X133570000Y-69160000D01*
X148370000Y-65460000D02*
X133570000Y-65460000D01*
X148370000Y-69160000D02*
X148370000Y-65460000D01*
X133570000Y-61540000D02*
X148370000Y-61540000D01*
X133570000Y-57840000D02*
X133570000Y-61540000D01*
X148370000Y-57840000D02*
X133570000Y-57840000D01*
X148370000Y-61540000D02*
X148370000Y-57840000D01*
X133570000Y-53920000D02*
X148370000Y-53920000D01*
X133570000Y-50220000D02*
X133570000Y-53920000D01*
X148370000Y-50220000D02*
X133570000Y-50220000D01*
X148370000Y-53920000D02*
X148370000Y-50220000D01*
X158970000Y-118690000D02*
X173770000Y-118690000D01*
X158970000Y-114990000D02*
X158970000Y-118690000D01*
X173770000Y-114990000D02*
X158970000Y-114990000D01*
X173770000Y-118690000D02*
X173770000Y-114990000D01*
X158970000Y-112340000D02*
X173770000Y-112340000D01*
X158970000Y-108640000D02*
X158970000Y-112340000D01*
X173770000Y-108640000D02*
X158970000Y-108640000D01*
X173770000Y-112340000D02*
X173770000Y-108640000D01*
X133570000Y-121230000D02*
X148370000Y-121230000D01*
X133570000Y-117530000D02*
X133570000Y-121230000D01*
X148370000Y-117530000D02*
X133570000Y-117530000D01*
X148370000Y-121230000D02*
X148370000Y-117530000D01*
X133570000Y-114880000D02*
X148370000Y-114880000D01*
X133570000Y-111180000D02*
X133570000Y-114880000D01*
X148370000Y-111180000D02*
X133570000Y-111180000D01*
X148370000Y-114880000D02*
X148370000Y-111180000D01*
X158970000Y-104720000D02*
X173770000Y-104720000D01*
X158970000Y-101020000D02*
X158970000Y-104720000D01*
X173770000Y-101020000D02*
X158970000Y-101020000D01*
X173770000Y-104720000D02*
X173770000Y-101020000D01*
X158970000Y-97100000D02*
X173770000Y-97100000D01*
X158970000Y-93400000D02*
X158970000Y-97100000D01*
X173770000Y-93400000D02*
X158970000Y-93400000D01*
X173770000Y-97100000D02*
X173770000Y-93400000D01*
X158970000Y-89480000D02*
X173770000Y-89480000D01*
X158970000Y-85780000D02*
X158970000Y-89480000D01*
X173770000Y-85780000D02*
X158970000Y-85780000D01*
X173770000Y-89480000D02*
X173770000Y-85780000D01*
X158970000Y-81860000D02*
X173770000Y-81860000D01*
X158970000Y-78160000D02*
X158970000Y-81860000D01*
X173770000Y-78160000D02*
X158970000Y-78160000D01*
X173770000Y-81860000D02*
X173770000Y-78160000D01*
X173880000Y-70140000D02*
X169030000Y-70140000D01*
X173880000Y-74640000D02*
X173880000Y-70140000D01*
X169030000Y-74640000D02*
X173880000Y-74640000D01*
X169030000Y-70140000D02*
X169030000Y-74640000D01*
X173880000Y-62520000D02*
X169030000Y-62520000D01*
X173880000Y-67020000D02*
X173880000Y-62520000D01*
X169030000Y-67020000D02*
X173880000Y-67020000D01*
X169030000Y-62520000D02*
X169030000Y-67020000D01*
X164990000Y-70140000D02*
X160140000Y-70140000D01*
X164990000Y-74640000D02*
X164990000Y-70140000D01*
X160140000Y-74640000D02*
X164990000Y-74640000D01*
X160140000Y-70140000D02*
X160140000Y-74640000D01*
X164990000Y-62520000D02*
X160140000Y-62520000D01*
X164990000Y-67020000D02*
X164990000Y-62520000D01*
X160140000Y-67020000D02*
X164990000Y-67020000D01*
X160140000Y-62520000D02*
X160140000Y-67020000D01*
X156100000Y-115860000D02*
X151250000Y-115860000D01*
X156100000Y-120360000D02*
X156100000Y-115860000D01*
X151250000Y-120360000D02*
X156100000Y-120360000D01*
X151250000Y-115860000D02*
X151250000Y-120360000D01*
X156100000Y-108240000D02*
X151250000Y-108240000D01*
X156100000Y-112740000D02*
X156100000Y-108240000D01*
X151250000Y-112740000D02*
X156100000Y-112740000D01*
X151250000Y-108240000D02*
X151250000Y-112740000D01*
X124570000Y-121630000D02*
X129420000Y-121630000D01*
X124570000Y-117130000D02*
X124570000Y-121630000D01*
X129420000Y-117130000D02*
X124570000Y-117130000D01*
X129420000Y-121630000D02*
X129420000Y-117130000D01*
X124570000Y-114010000D02*
X129420000Y-114010000D01*
X124570000Y-109510000D02*
X124570000Y-114010000D01*
X129420000Y-109510000D02*
X124570000Y-109510000D01*
X129420000Y-114010000D02*
X129420000Y-109510000D01*
M02*
