G04 #@! TF.GenerationSoftware,KiCad,Pcbnew,(5.1.5)-3*
G04 #@! TF.CreationDate,2020-04-13T15:09:25+01:00*
G04 #@! TF.ProjectId,TL1,544c312e-6b69-4636-9164-5f7063625858,rev?*
G04 #@! TF.SameCoordinates,Original*
G04 #@! TF.FileFunction,Other,Fab,Top*
%FSLAX46Y46*%
G04 Gerber Fmt 4.6, Leading zero omitted, Abs format (unit mm)*
G04 Created by KiCad (PCBNEW (5.1.5)-3) date 2020-04-13 15:09:25*
%MOMM*%
%LPD*%
G04 APERTURE LIST*
%ADD10C,0.100000*%
%ADD11C,0.150000*%
%ADD12C,0.120000*%
G04 APERTURE END LIST*
D10*
X104370555Y-63604524D02*
G75*
G03X104370000Y-65936190I-1500555J-1165476D01*
G01*
X104370000Y-64770000D02*
G75*
G03X104370000Y-64770000I-1500000J0D01*
G01*
X104370000Y-65936190D02*
X104370000Y-63603810D01*
X104370555Y-55984524D02*
G75*
G03X104370000Y-58316190I-1500555J-1165476D01*
G01*
X104370000Y-57150000D02*
G75*
G03X104370000Y-57150000I-1500000J0D01*
G01*
X104370000Y-58316190D02*
X104370000Y-55983810D01*
X152169445Y-50695476D02*
G75*
G03X152170000Y-48363810I1500555J1165476D01*
G01*
X155170000Y-49530000D02*
G75*
G03X155170000Y-49530000I-1500000J0D01*
G01*
X152170000Y-48363810D02*
X152170000Y-50696190D01*
X152169445Y-58315476D02*
G75*
G03X152170000Y-55983810I1500555J1165476D01*
G01*
X155170000Y-57150000D02*
G75*
G03X155170000Y-57150000I-1500000J0D01*
G01*
X152170000Y-55983810D02*
X152170000Y-58316190D01*
X107010000Y-114100000D02*
X106010000Y-113100000D01*
X102973855Y-115256966D02*
G75*
G03X102960000Y-120770000I2586145J-2763034D01*
G01*
X103010000Y-113100000D02*
X106010000Y-113100000D01*
X103010000Y-123100000D02*
X103010000Y-113100000D01*
X107010000Y-123100000D02*
X103010000Y-123100000D01*
X107010000Y-114100000D02*
X107010000Y-123100000D01*
X119710000Y-100130000D02*
X118710000Y-99130000D01*
X115673855Y-101286966D02*
G75*
G03X115660000Y-106800000I2586145J-2763034D01*
G01*
X115710000Y-99130000D02*
X118710000Y-99130000D01*
X115710000Y-109130000D02*
X115710000Y-99130000D01*
X119710000Y-109130000D02*
X115710000Y-109130000D01*
X119710000Y-100130000D02*
X119710000Y-109130000D01*
X107010000Y-100130000D02*
X106010000Y-99130000D01*
X102973855Y-101286966D02*
G75*
G03X102960000Y-106800000I2586145J-2763034D01*
G01*
X103010000Y-99130000D02*
X106010000Y-99130000D01*
X103010000Y-109130000D02*
X103010000Y-99130000D01*
X107010000Y-109130000D02*
X103010000Y-109130000D01*
X107010000Y-100130000D02*
X107010000Y-109130000D01*
X119710000Y-114100000D02*
X118710000Y-113100000D01*
X115673855Y-115256966D02*
G75*
G03X115660000Y-120770000I2586145J-2763034D01*
G01*
X115710000Y-113100000D02*
X118710000Y-113100000D01*
X115710000Y-123100000D02*
X115710000Y-113100000D01*
X119710000Y-123100000D02*
X115710000Y-123100000D01*
X119710000Y-114100000D02*
X119710000Y-123100000D01*
X105595564Y-77180000D02*
G75*
G03X105595564Y-77180000I-2015564J0D01*
G01*
X100580000Y-74180000D02*
X103580000Y-74180000D01*
X100580000Y-80180000D02*
X100580000Y-74180000D01*
X106580000Y-80180000D02*
X100580000Y-80180000D01*
X106580000Y-74180000D02*
X106580000Y-80180000D01*
X103580000Y-74180000D02*
X106580000Y-74180000D01*
X119565564Y-77180000D02*
G75*
G03X119565564Y-77180000I-2015564J0D01*
G01*
X114550000Y-74180000D02*
X117550000Y-74180000D01*
X114550000Y-80180000D02*
X114550000Y-74180000D01*
X120550000Y-80180000D02*
X114550000Y-80180000D01*
X120550000Y-74180000D02*
X120550000Y-80180000D01*
X117550000Y-74180000D02*
X120550000Y-74180000D01*
X105595564Y-89880000D02*
G75*
G03X105595564Y-89880000I-2015564J0D01*
G01*
X100580000Y-86880000D02*
X103580000Y-86880000D01*
X100580000Y-92880000D02*
X100580000Y-86880000D01*
X106580000Y-92880000D02*
X100580000Y-92880000D01*
X106580000Y-86880000D02*
X106580000Y-92880000D01*
X103580000Y-86880000D02*
X106580000Y-86880000D01*
X119565564Y-89880000D02*
G75*
G03X119565564Y-89880000I-2015564J0D01*
G01*
X114550000Y-86880000D02*
X117550000Y-86880000D01*
X114550000Y-92880000D02*
X114550000Y-86880000D01*
X120550000Y-92880000D02*
X114550000Y-92880000D01*
X120550000Y-86880000D02*
X120550000Y-92880000D01*
X117550000Y-86880000D02*
X120550000Y-86880000D01*
X128500555Y-102974524D02*
G75*
G03X128500000Y-105306190I-1500555J-1165476D01*
G01*
X128500000Y-104140000D02*
G75*
G03X128500000Y-104140000I-1500000J0D01*
G01*
X128500000Y-105306190D02*
X128500000Y-102973810D01*
X128500555Y-72494524D02*
G75*
G03X128500000Y-74826190I-1500555J-1165476D01*
G01*
X128500000Y-73660000D02*
G75*
G03X128500000Y-73660000I-1500000J0D01*
G01*
X128500000Y-74826190D02*
X128500000Y-72493810D01*
X128500555Y-64874524D02*
G75*
G03X128500000Y-67206190I-1500555J-1165476D01*
G01*
X128500000Y-66040000D02*
G75*
G03X128500000Y-66040000I-1500000J0D01*
G01*
X128500000Y-67206190D02*
X128500000Y-64873810D01*
X128500555Y-57254524D02*
G75*
G03X128500000Y-59586190I-1500555J-1165476D01*
G01*
X128500000Y-58420000D02*
G75*
G03X128500000Y-58420000I-1500000J0D01*
G01*
X128500000Y-59586190D02*
X128500000Y-57253810D01*
X125499445Y-51965476D02*
G75*
G03X125500000Y-49633810I1500555J1165476D01*
G01*
X128500000Y-50800000D02*
G75*
G03X128500000Y-50800000I-1500000J0D01*
G01*
X125500000Y-49633810D02*
X125500000Y-51966190D01*
X128500555Y-95354524D02*
G75*
G03X128500000Y-97686190I-1500555J-1165476D01*
G01*
X128500000Y-96520000D02*
G75*
G03X128500000Y-96520000I-1500000J0D01*
G01*
X128500000Y-97686190D02*
X128500000Y-95353810D01*
X128500555Y-87734524D02*
G75*
G03X128500000Y-90066190I-1500555J-1165476D01*
G01*
X128500000Y-88900000D02*
G75*
G03X128500000Y-88900000I-1500000J0D01*
G01*
X128500000Y-90066190D02*
X128500000Y-87733810D01*
X128500555Y-80114524D02*
G75*
G03X128500000Y-82446190I-1500555J-1165476D01*
G01*
X128500000Y-81280000D02*
G75*
G03X128500000Y-81280000I-1500000J0D01*
G01*
X128500000Y-82446190D02*
X128500000Y-80113810D01*
X152169445Y-104035476D02*
G75*
G03X152170000Y-101703810I1500555J1165476D01*
G01*
X155170000Y-102870000D02*
G75*
G03X155170000Y-102870000I-1500000J0D01*
G01*
X152170000Y-101703810D02*
X152170000Y-104036190D01*
X152169445Y-96415476D02*
G75*
G03X152170000Y-94083810I1500555J1165476D01*
G01*
X155170000Y-95250000D02*
G75*
G03X155170000Y-95250000I-1500000J0D01*
G01*
X152170000Y-94083810D02*
X152170000Y-96416190D01*
X152169445Y-88795476D02*
G75*
G03X152170000Y-86463810I1500555J1165476D01*
G01*
X155170000Y-87630000D02*
G75*
G03X155170000Y-87630000I-1500000J0D01*
G01*
X152170000Y-86463810D02*
X152170000Y-88796190D01*
X152169445Y-81175476D02*
G75*
G03X152170000Y-78843810I1500555J1165476D01*
G01*
X155170000Y-80010000D02*
G75*
G03X155170000Y-80010000I-1500000J0D01*
G01*
X152170000Y-78843810D02*
X152170000Y-81176190D01*
X109220000Y-64770000D02*
X111070000Y-64770000D01*
X121920000Y-64770000D02*
X120070000Y-64770000D01*
X111070000Y-66370000D02*
X120070000Y-66370000D01*
X111070000Y-63170000D02*
X111070000Y-66370000D01*
X120070000Y-63170000D02*
X111070000Y-63170000D01*
X120070000Y-66370000D02*
X120070000Y-63170000D01*
X109220000Y-57150000D02*
X111070000Y-57150000D01*
X121920000Y-57150000D02*
X120070000Y-57150000D01*
X111070000Y-58750000D02*
X120070000Y-58750000D01*
X111070000Y-55550000D02*
X111070000Y-58750000D01*
X120070000Y-55550000D02*
X111070000Y-55550000D01*
X120070000Y-58750000D02*
X120070000Y-55550000D01*
X160020000Y-49530000D02*
X161870000Y-49530000D01*
X172720000Y-49530000D02*
X170870000Y-49530000D01*
X161870000Y-51130000D02*
X170870000Y-51130000D01*
X161870000Y-47930000D02*
X161870000Y-51130000D01*
X170870000Y-47930000D02*
X161870000Y-47930000D01*
X170870000Y-51130000D02*
X170870000Y-47930000D01*
X160020000Y-57150000D02*
X161870000Y-57150000D01*
X172720000Y-57150000D02*
X170870000Y-57150000D01*
X161870000Y-58750000D02*
X170870000Y-58750000D01*
X161870000Y-55550000D02*
X161870000Y-58750000D01*
X170870000Y-55550000D02*
X161870000Y-55550000D01*
X170870000Y-58750000D02*
X170870000Y-55550000D01*
X134620000Y-105410000D02*
X136470000Y-105410000D01*
X147320000Y-105410000D02*
X145470000Y-105410000D01*
X136470000Y-107010000D02*
X145470000Y-107010000D01*
X136470000Y-103810000D02*
X136470000Y-107010000D01*
X145470000Y-103810000D02*
X136470000Y-103810000D01*
X145470000Y-107010000D02*
X145470000Y-103810000D01*
X134620000Y-97790000D02*
X136470000Y-97790000D01*
X147320000Y-97790000D02*
X145470000Y-97790000D01*
X136470000Y-99390000D02*
X145470000Y-99390000D01*
X136470000Y-96190000D02*
X136470000Y-99390000D01*
X145470000Y-96190000D02*
X136470000Y-96190000D01*
X145470000Y-99390000D02*
X145470000Y-96190000D01*
X134620000Y-90170000D02*
X136470000Y-90170000D01*
X147320000Y-90170000D02*
X145470000Y-90170000D01*
X136470000Y-91770000D02*
X145470000Y-91770000D01*
X136470000Y-88570000D02*
X136470000Y-91770000D01*
X145470000Y-88570000D02*
X136470000Y-88570000D01*
X145470000Y-91770000D02*
X145470000Y-88570000D01*
X134620000Y-82550000D02*
X136470000Y-82550000D01*
X147320000Y-82550000D02*
X145470000Y-82550000D01*
X136470000Y-84150000D02*
X145470000Y-84150000D01*
X136470000Y-80950000D02*
X136470000Y-84150000D01*
X145470000Y-80950000D02*
X136470000Y-80950000D01*
X145470000Y-84150000D02*
X145470000Y-80950000D01*
X134620000Y-74930000D02*
X136470000Y-74930000D01*
X147320000Y-74930000D02*
X145470000Y-74930000D01*
X136470000Y-76530000D02*
X145470000Y-76530000D01*
X136470000Y-73330000D02*
X136470000Y-76530000D01*
X145470000Y-73330000D02*
X136470000Y-73330000D01*
X145470000Y-76530000D02*
X145470000Y-73330000D01*
X134620000Y-67310000D02*
X136470000Y-67310000D01*
X147320000Y-67310000D02*
X145470000Y-67310000D01*
X136470000Y-68910000D02*
X145470000Y-68910000D01*
X136470000Y-65710000D02*
X136470000Y-68910000D01*
X145470000Y-65710000D02*
X136470000Y-65710000D01*
X145470000Y-68910000D02*
X145470000Y-65710000D01*
X134620000Y-59690000D02*
X136470000Y-59690000D01*
X147320000Y-59690000D02*
X145470000Y-59690000D01*
X136470000Y-61290000D02*
X145470000Y-61290000D01*
X136470000Y-58090000D02*
X136470000Y-61290000D01*
X145470000Y-58090000D02*
X136470000Y-58090000D01*
X145470000Y-61290000D02*
X145470000Y-58090000D01*
X134620000Y-52070000D02*
X136470000Y-52070000D01*
X147320000Y-52070000D02*
X145470000Y-52070000D01*
X136470000Y-53670000D02*
X145470000Y-53670000D01*
X136470000Y-50470000D02*
X136470000Y-53670000D01*
X145470000Y-50470000D02*
X136470000Y-50470000D01*
X145470000Y-53670000D02*
X145470000Y-50470000D01*
X160020000Y-116840000D02*
X161870000Y-116840000D01*
X172720000Y-116840000D02*
X170870000Y-116840000D01*
X161870000Y-118440000D02*
X170870000Y-118440000D01*
X161870000Y-115240000D02*
X161870000Y-118440000D01*
X170870000Y-115240000D02*
X161870000Y-115240000D01*
X170870000Y-118440000D02*
X170870000Y-115240000D01*
X160020000Y-110490000D02*
X161870000Y-110490000D01*
X172720000Y-110490000D02*
X170870000Y-110490000D01*
X161870000Y-112090000D02*
X170870000Y-112090000D01*
X161870000Y-108890000D02*
X161870000Y-112090000D01*
X170870000Y-108890000D02*
X161870000Y-108890000D01*
X170870000Y-112090000D02*
X170870000Y-108890000D01*
X134620000Y-119380000D02*
X136470000Y-119380000D01*
X147320000Y-119380000D02*
X145470000Y-119380000D01*
X136470000Y-120980000D02*
X145470000Y-120980000D01*
X136470000Y-117780000D02*
X136470000Y-120980000D01*
X145470000Y-117780000D02*
X136470000Y-117780000D01*
X145470000Y-120980000D02*
X145470000Y-117780000D01*
X134620000Y-113030000D02*
X136470000Y-113030000D01*
X147320000Y-113030000D02*
X145470000Y-113030000D01*
X136470000Y-114630000D02*
X145470000Y-114630000D01*
X136470000Y-111430000D02*
X136470000Y-114630000D01*
X145470000Y-111430000D02*
X136470000Y-111430000D01*
X145470000Y-114630000D02*
X145470000Y-111430000D01*
X160020000Y-102870000D02*
X161870000Y-102870000D01*
X172720000Y-102870000D02*
X170870000Y-102870000D01*
X161870000Y-104470000D02*
X170870000Y-104470000D01*
X161870000Y-101270000D02*
X161870000Y-104470000D01*
X170870000Y-101270000D02*
X161870000Y-101270000D01*
X170870000Y-104470000D02*
X170870000Y-101270000D01*
X160020000Y-95250000D02*
X161870000Y-95250000D01*
X172720000Y-95250000D02*
X170870000Y-95250000D01*
X161870000Y-96850000D02*
X170870000Y-96850000D01*
X161870000Y-93650000D02*
X161870000Y-96850000D01*
X170870000Y-93650000D02*
X161870000Y-93650000D01*
X170870000Y-96850000D02*
X170870000Y-93650000D01*
X160020000Y-87630000D02*
X161870000Y-87630000D01*
X172720000Y-87630000D02*
X170870000Y-87630000D01*
X161870000Y-89230000D02*
X170870000Y-89230000D01*
X161870000Y-86030000D02*
X161870000Y-89230000D01*
X170870000Y-86030000D02*
X161870000Y-86030000D01*
X170870000Y-89230000D02*
X170870000Y-86030000D01*
X160020000Y-80010000D02*
X161870000Y-80010000D01*
X172720000Y-80010000D02*
X170870000Y-80010000D01*
X161870000Y-81610000D02*
X170870000Y-81610000D01*
X161870000Y-78410000D02*
X161870000Y-81610000D01*
X170870000Y-78410000D02*
X161870000Y-78410000D01*
X170870000Y-81610000D02*
X170870000Y-78410000D01*
X169949445Y-73555476D02*
G75*
G03X169950000Y-71223810I1500555J1165476D01*
G01*
X172950000Y-72390000D02*
G75*
G03X172950000Y-72390000I-1500000J0D01*
G01*
X169950000Y-71223810D02*
X169950000Y-73556190D01*
X169949445Y-65935476D02*
G75*
G03X169950000Y-63603810I1500555J1165476D01*
G01*
X172950000Y-64770000D02*
G75*
G03X172950000Y-64770000I-1500000J0D01*
G01*
X169950000Y-63603810D02*
X169950000Y-65936190D01*
X161059445Y-73555476D02*
G75*
G03X161060000Y-71223810I1500555J1165476D01*
G01*
X164060000Y-72390000D02*
G75*
G03X164060000Y-72390000I-1500000J0D01*
G01*
X161060000Y-71223810D02*
X161060000Y-73556190D01*
X161059445Y-65935476D02*
G75*
G03X161060000Y-63603810I1500555J1165476D01*
G01*
X164060000Y-64770000D02*
G75*
G03X164060000Y-64770000I-1500000J0D01*
G01*
X161060000Y-63603810D02*
X161060000Y-65936190D01*
X152169445Y-119275476D02*
G75*
G03X152170000Y-116943810I1500555J1165476D01*
G01*
X155170000Y-118110000D02*
G75*
G03X155170000Y-118110000I-1500000J0D01*
G01*
X152170000Y-116943810D02*
X152170000Y-119276190D01*
X152169445Y-111655476D02*
G75*
G03X152170000Y-109323810I1500555J1165476D01*
G01*
X155170000Y-110490000D02*
G75*
G03X155170000Y-110490000I-1500000J0D01*
G01*
X152170000Y-109323810D02*
X152170000Y-111656190D01*
X128500555Y-118214524D02*
G75*
G03X128500000Y-120546190I-1500555J-1165476D01*
G01*
X128500000Y-119380000D02*
G75*
G03X128500000Y-119380000I-1500000J0D01*
G01*
X128500000Y-120546190D02*
X128500000Y-118213810D01*
X128500555Y-110594524D02*
G75*
G03X128500000Y-112926190I-1500555J-1165476D01*
G01*
X128500000Y-111760000D02*
G75*
G03X128500000Y-111760000I-1500000J0D01*
G01*
X128500000Y-112926190D02*
X128500000Y-110593810D01*
D11*
X102227142Y-62262380D02*
X101750952Y-62262380D01*
X101750952Y-61262380D01*
X102560476Y-61738571D02*
X102893809Y-61738571D01*
X103036666Y-62262380D02*
X102560476Y-62262380D01*
X102560476Y-61262380D01*
X103036666Y-61262380D01*
X103465238Y-62262380D02*
X103465238Y-61262380D01*
X103703333Y-61262380D01*
X103846190Y-61310000D01*
X103941428Y-61405238D01*
X103989047Y-61500476D01*
X104036666Y-61690952D01*
X104036666Y-61833809D01*
X103989047Y-62024285D01*
X103941428Y-62119523D01*
X103846190Y-62214761D01*
X103703333Y-62262380D01*
X103465238Y-62262380D01*
D12*
X99946190Y-64750952D02*
X99946190Y-65131904D01*
X99679523Y-64331904D02*
X99946190Y-64750952D01*
X100212857Y-64331904D01*
X100784285Y-65093809D02*
X100708095Y-65131904D01*
X100555714Y-65131904D01*
X100479523Y-65093809D01*
X100441428Y-65017619D01*
X100441428Y-64712857D01*
X100479523Y-64636666D01*
X100555714Y-64598571D01*
X100708095Y-64598571D01*
X100784285Y-64636666D01*
X100822380Y-64712857D01*
X100822380Y-64789047D01*
X100441428Y-64865238D01*
X101279523Y-65131904D02*
X101203333Y-65093809D01*
X101165238Y-65017619D01*
X101165238Y-64331904D01*
X101698571Y-65131904D02*
X101622380Y-65093809D01*
X101584285Y-65017619D01*
X101584285Y-64331904D01*
X102117619Y-65131904D02*
X102041428Y-65093809D01*
X102003333Y-65055714D01*
X101965238Y-64979523D01*
X101965238Y-64750952D01*
X102003333Y-64674761D01*
X102041428Y-64636666D01*
X102117619Y-64598571D01*
X102231904Y-64598571D01*
X102308095Y-64636666D01*
X102346190Y-64674761D01*
X102384285Y-64750952D01*
X102384285Y-64979523D01*
X102346190Y-65055714D01*
X102308095Y-65093809D01*
X102231904Y-65131904D01*
X102117619Y-65131904D01*
X102650952Y-64598571D02*
X102803333Y-65131904D01*
X102955714Y-64750952D01*
X103108095Y-65131904D01*
X103260476Y-64598571D01*
X103527142Y-65093809D02*
X103641428Y-65131904D01*
X103831904Y-65131904D01*
X103908095Y-65093809D01*
X103946190Y-65055714D01*
X103984285Y-64979523D01*
X103984285Y-64903333D01*
X103946190Y-64827142D01*
X103908095Y-64789047D01*
X103831904Y-64750952D01*
X103679523Y-64712857D01*
X103603333Y-64674761D01*
X103565238Y-64636666D01*
X103527142Y-64560476D01*
X103527142Y-64484285D01*
X103565238Y-64408095D01*
X103603333Y-64370000D01*
X103679523Y-64331904D01*
X103870000Y-64331904D01*
X103984285Y-64370000D01*
X104327142Y-65131904D02*
X104327142Y-64331904D01*
X104784285Y-65131904D01*
X104784285Y-64331904D01*
X105127142Y-64408095D02*
X105165238Y-64370000D01*
X105241428Y-64331904D01*
X105431904Y-64331904D01*
X105508095Y-64370000D01*
X105546190Y-64408095D01*
X105584285Y-64484285D01*
X105584285Y-64560476D01*
X105546190Y-64674761D01*
X105089047Y-65131904D01*
X105584285Y-65131904D01*
D11*
X102227142Y-54642380D02*
X101750952Y-54642380D01*
X101750952Y-53642380D01*
X102560476Y-54118571D02*
X102893809Y-54118571D01*
X103036666Y-54642380D02*
X102560476Y-54642380D01*
X102560476Y-53642380D01*
X103036666Y-53642380D01*
X103465238Y-54642380D02*
X103465238Y-53642380D01*
X103703333Y-53642380D01*
X103846190Y-53690000D01*
X103941428Y-53785238D01*
X103989047Y-53880476D01*
X104036666Y-54070952D01*
X104036666Y-54213809D01*
X103989047Y-54404285D01*
X103941428Y-54499523D01*
X103846190Y-54594761D01*
X103703333Y-54642380D01*
X103465238Y-54642380D01*
D12*
X99946190Y-57130952D02*
X99946190Y-57511904D01*
X99679523Y-56711904D02*
X99946190Y-57130952D01*
X100212857Y-56711904D01*
X100784285Y-57473809D02*
X100708095Y-57511904D01*
X100555714Y-57511904D01*
X100479523Y-57473809D01*
X100441428Y-57397619D01*
X100441428Y-57092857D01*
X100479523Y-57016666D01*
X100555714Y-56978571D01*
X100708095Y-56978571D01*
X100784285Y-57016666D01*
X100822380Y-57092857D01*
X100822380Y-57169047D01*
X100441428Y-57245238D01*
X101279523Y-57511904D02*
X101203333Y-57473809D01*
X101165238Y-57397619D01*
X101165238Y-56711904D01*
X101698571Y-57511904D02*
X101622380Y-57473809D01*
X101584285Y-57397619D01*
X101584285Y-56711904D01*
X102117619Y-57511904D02*
X102041428Y-57473809D01*
X102003333Y-57435714D01*
X101965238Y-57359523D01*
X101965238Y-57130952D01*
X102003333Y-57054761D01*
X102041428Y-57016666D01*
X102117619Y-56978571D01*
X102231904Y-56978571D01*
X102308095Y-57016666D01*
X102346190Y-57054761D01*
X102384285Y-57130952D01*
X102384285Y-57359523D01*
X102346190Y-57435714D01*
X102308095Y-57473809D01*
X102231904Y-57511904D01*
X102117619Y-57511904D01*
X102650952Y-56978571D02*
X102803333Y-57511904D01*
X102955714Y-57130952D01*
X103108095Y-57511904D01*
X103260476Y-56978571D01*
X103527142Y-57473809D02*
X103641428Y-57511904D01*
X103831904Y-57511904D01*
X103908095Y-57473809D01*
X103946190Y-57435714D01*
X103984285Y-57359523D01*
X103984285Y-57283333D01*
X103946190Y-57207142D01*
X103908095Y-57169047D01*
X103831904Y-57130952D01*
X103679523Y-57092857D01*
X103603333Y-57054761D01*
X103565238Y-57016666D01*
X103527142Y-56940476D01*
X103527142Y-56864285D01*
X103565238Y-56788095D01*
X103603333Y-56750000D01*
X103679523Y-56711904D01*
X103870000Y-56711904D01*
X103984285Y-56750000D01*
X104327142Y-57511904D02*
X104327142Y-56711904D01*
X104784285Y-57511904D01*
X104784285Y-56711904D01*
X105584285Y-57511904D02*
X105127142Y-57511904D01*
X105355714Y-57511904D02*
X105355714Y-56711904D01*
X105279523Y-56826190D01*
X105203333Y-56902380D01*
X105127142Y-56940476D01*
D11*
X153027142Y-52942380D02*
X152550952Y-52942380D01*
X152550952Y-51942380D01*
X153360476Y-52418571D02*
X153693809Y-52418571D01*
X153836666Y-52942380D02*
X153360476Y-52942380D01*
X153360476Y-51942380D01*
X153836666Y-51942380D01*
X154265238Y-52942380D02*
X154265238Y-51942380D01*
X154503333Y-51942380D01*
X154646190Y-51990000D01*
X154741428Y-52085238D01*
X154789047Y-52180476D01*
X154836666Y-52370952D01*
X154836666Y-52513809D01*
X154789047Y-52704285D01*
X154741428Y-52799523D01*
X154646190Y-52894761D01*
X154503333Y-52942380D01*
X154265238Y-52942380D01*
D12*
X151127142Y-49510952D02*
X151127142Y-49891904D01*
X150860476Y-49091904D02*
X151127142Y-49510952D01*
X151393809Y-49091904D01*
X151965238Y-49853809D02*
X151889047Y-49891904D01*
X151736666Y-49891904D01*
X151660476Y-49853809D01*
X151622380Y-49777619D01*
X151622380Y-49472857D01*
X151660476Y-49396666D01*
X151736666Y-49358571D01*
X151889047Y-49358571D01*
X151965238Y-49396666D01*
X152003333Y-49472857D01*
X152003333Y-49549047D01*
X151622380Y-49625238D01*
X152460476Y-49891904D02*
X152384285Y-49853809D01*
X152346190Y-49777619D01*
X152346190Y-49091904D01*
X152879523Y-49891904D02*
X152803333Y-49853809D01*
X152765238Y-49777619D01*
X152765238Y-49091904D01*
X153298571Y-49891904D02*
X153222380Y-49853809D01*
X153184285Y-49815714D01*
X153146190Y-49739523D01*
X153146190Y-49510952D01*
X153184285Y-49434761D01*
X153222380Y-49396666D01*
X153298571Y-49358571D01*
X153412857Y-49358571D01*
X153489047Y-49396666D01*
X153527142Y-49434761D01*
X153565238Y-49510952D01*
X153565238Y-49739523D01*
X153527142Y-49815714D01*
X153489047Y-49853809D01*
X153412857Y-49891904D01*
X153298571Y-49891904D01*
X153831904Y-49358571D02*
X153984285Y-49891904D01*
X154136666Y-49510952D01*
X154289047Y-49891904D01*
X154441428Y-49358571D01*
X154746190Y-49472857D02*
X155012857Y-49472857D01*
X155127142Y-49891904D02*
X154746190Y-49891904D01*
X154746190Y-49091904D01*
X155127142Y-49091904D01*
X155393809Y-49091904D02*
X155584285Y-49891904D01*
X155736666Y-49320476D01*
X155889047Y-49891904D01*
X156079523Y-49091904D01*
X156346190Y-49168095D02*
X156384285Y-49130000D01*
X156460476Y-49091904D01*
X156650952Y-49091904D01*
X156727142Y-49130000D01*
X156765238Y-49168095D01*
X156803333Y-49244285D01*
X156803333Y-49320476D01*
X156765238Y-49434761D01*
X156308095Y-49891904D01*
X156803333Y-49891904D01*
D11*
X153027142Y-60562380D02*
X152550952Y-60562380D01*
X152550952Y-59562380D01*
X153360476Y-60038571D02*
X153693809Y-60038571D01*
X153836666Y-60562380D02*
X153360476Y-60562380D01*
X153360476Y-59562380D01*
X153836666Y-59562380D01*
X154265238Y-60562380D02*
X154265238Y-59562380D01*
X154503333Y-59562380D01*
X154646190Y-59610000D01*
X154741428Y-59705238D01*
X154789047Y-59800476D01*
X154836666Y-59990952D01*
X154836666Y-60133809D01*
X154789047Y-60324285D01*
X154741428Y-60419523D01*
X154646190Y-60514761D01*
X154503333Y-60562380D01*
X154265238Y-60562380D01*
D12*
X151127142Y-57130952D02*
X151127142Y-57511904D01*
X150860476Y-56711904D02*
X151127142Y-57130952D01*
X151393809Y-56711904D01*
X151965238Y-57473809D02*
X151889047Y-57511904D01*
X151736666Y-57511904D01*
X151660476Y-57473809D01*
X151622380Y-57397619D01*
X151622380Y-57092857D01*
X151660476Y-57016666D01*
X151736666Y-56978571D01*
X151889047Y-56978571D01*
X151965238Y-57016666D01*
X152003333Y-57092857D01*
X152003333Y-57169047D01*
X151622380Y-57245238D01*
X152460476Y-57511904D02*
X152384285Y-57473809D01*
X152346190Y-57397619D01*
X152346190Y-56711904D01*
X152879523Y-57511904D02*
X152803333Y-57473809D01*
X152765238Y-57397619D01*
X152765238Y-56711904D01*
X153298571Y-57511904D02*
X153222380Y-57473809D01*
X153184285Y-57435714D01*
X153146190Y-57359523D01*
X153146190Y-57130952D01*
X153184285Y-57054761D01*
X153222380Y-57016666D01*
X153298571Y-56978571D01*
X153412857Y-56978571D01*
X153489047Y-57016666D01*
X153527142Y-57054761D01*
X153565238Y-57130952D01*
X153565238Y-57359523D01*
X153527142Y-57435714D01*
X153489047Y-57473809D01*
X153412857Y-57511904D01*
X153298571Y-57511904D01*
X153831904Y-56978571D02*
X153984285Y-57511904D01*
X154136666Y-57130952D01*
X154289047Y-57511904D01*
X154441428Y-56978571D01*
X154746190Y-57092857D02*
X155012857Y-57092857D01*
X155127142Y-57511904D02*
X154746190Y-57511904D01*
X154746190Y-56711904D01*
X155127142Y-56711904D01*
X155393809Y-56711904D02*
X155584285Y-57511904D01*
X155736666Y-56940476D01*
X155889047Y-57511904D01*
X156079523Y-56711904D01*
X156803333Y-57511904D02*
X156346190Y-57511904D01*
X156574761Y-57511904D02*
X156574761Y-56711904D01*
X156498571Y-56826190D01*
X156422380Y-56902380D01*
X156346190Y-56940476D01*
D11*
X100062380Y-121247619D02*
X100062380Y-120676190D01*
X101062380Y-120961904D02*
X100062380Y-120961904D01*
X101014761Y-120390476D02*
X101062380Y-120247619D01*
X101062380Y-120009523D01*
X101014761Y-119914285D01*
X100967142Y-119866666D01*
X100871904Y-119819047D01*
X100776666Y-119819047D01*
X100681428Y-119866666D01*
X100633809Y-119914285D01*
X100586190Y-120009523D01*
X100538571Y-120200000D01*
X100490952Y-120295238D01*
X100443333Y-120342857D01*
X100348095Y-120390476D01*
X100252857Y-120390476D01*
X100157619Y-120342857D01*
X100110000Y-120295238D01*
X100062380Y-120200000D01*
X100062380Y-119961904D01*
X100110000Y-119819047D01*
X100062380Y-119200000D02*
X100062380Y-119009523D01*
X100110000Y-118914285D01*
X100205238Y-118819047D01*
X100395714Y-118771428D01*
X100729047Y-118771428D01*
X100919523Y-118819047D01*
X101014761Y-118914285D01*
X101062380Y-119009523D01*
X101062380Y-119200000D01*
X101014761Y-119295238D01*
X100919523Y-119390476D01*
X100729047Y-119438095D01*
X100395714Y-119438095D01*
X100205238Y-119390476D01*
X100110000Y-119295238D01*
X100062380Y-119200000D01*
X101062380Y-118342857D02*
X100062380Y-118342857D01*
X100062380Y-117961904D01*
X100110000Y-117866666D01*
X100157619Y-117819047D01*
X100252857Y-117771428D01*
X100395714Y-117771428D01*
X100490952Y-117819047D01*
X100538571Y-117866666D01*
X100586190Y-117961904D01*
X100586190Y-118342857D01*
X101062380Y-116819047D02*
X101062380Y-117390476D01*
X101062380Y-117104761D02*
X100062380Y-117104761D01*
X100205238Y-117200000D01*
X100300476Y-117295238D01*
X100348095Y-117390476D01*
X100062380Y-116485714D02*
X100062380Y-115819047D01*
X101062380Y-116247619D01*
X101062380Y-115533333D02*
X100395714Y-115009523D01*
X100395714Y-115533333D02*
X101062380Y-115009523D01*
X101062380Y-114723809D02*
X100395714Y-114200000D01*
X100395714Y-114723809D02*
X101062380Y-114200000D01*
X103845380Y-118861904D02*
X104654904Y-118861904D01*
X104750142Y-118814285D01*
X104797761Y-118766666D01*
X104845380Y-118671428D01*
X104845380Y-118480952D01*
X104797761Y-118385714D01*
X104750142Y-118338095D01*
X104654904Y-118290476D01*
X103845380Y-118290476D01*
X104178714Y-117385714D02*
X104845380Y-117385714D01*
X103797761Y-117623809D02*
X104512047Y-117861904D01*
X104512047Y-117242857D01*
X112762380Y-107277619D02*
X112762380Y-106706190D01*
X113762380Y-106991904D02*
X112762380Y-106991904D01*
X113714761Y-106420476D02*
X113762380Y-106277619D01*
X113762380Y-106039523D01*
X113714761Y-105944285D01*
X113667142Y-105896666D01*
X113571904Y-105849047D01*
X113476666Y-105849047D01*
X113381428Y-105896666D01*
X113333809Y-105944285D01*
X113286190Y-106039523D01*
X113238571Y-106230000D01*
X113190952Y-106325238D01*
X113143333Y-106372857D01*
X113048095Y-106420476D01*
X112952857Y-106420476D01*
X112857619Y-106372857D01*
X112810000Y-106325238D01*
X112762380Y-106230000D01*
X112762380Y-105991904D01*
X112810000Y-105849047D01*
X112762380Y-105230000D02*
X112762380Y-105039523D01*
X112810000Y-104944285D01*
X112905238Y-104849047D01*
X113095714Y-104801428D01*
X113429047Y-104801428D01*
X113619523Y-104849047D01*
X113714761Y-104944285D01*
X113762380Y-105039523D01*
X113762380Y-105230000D01*
X113714761Y-105325238D01*
X113619523Y-105420476D01*
X113429047Y-105468095D01*
X113095714Y-105468095D01*
X112905238Y-105420476D01*
X112810000Y-105325238D01*
X112762380Y-105230000D01*
X113762380Y-104372857D02*
X112762380Y-104372857D01*
X112762380Y-103991904D01*
X112810000Y-103896666D01*
X112857619Y-103849047D01*
X112952857Y-103801428D01*
X113095714Y-103801428D01*
X113190952Y-103849047D01*
X113238571Y-103896666D01*
X113286190Y-103991904D01*
X113286190Y-104372857D01*
X113762380Y-102849047D02*
X113762380Y-103420476D01*
X113762380Y-103134761D02*
X112762380Y-103134761D01*
X112905238Y-103230000D01*
X113000476Y-103325238D01*
X113048095Y-103420476D01*
X112762380Y-102515714D02*
X112762380Y-101849047D01*
X113762380Y-102277619D01*
X113762380Y-101563333D02*
X113095714Y-101039523D01*
X113095714Y-101563333D02*
X113762380Y-101039523D01*
X113762380Y-100753809D02*
X113095714Y-100230000D01*
X113095714Y-100753809D02*
X113762380Y-100230000D01*
X116545380Y-104891904D02*
X117354904Y-104891904D01*
X117450142Y-104844285D01*
X117497761Y-104796666D01*
X117545380Y-104701428D01*
X117545380Y-104510952D01*
X117497761Y-104415714D01*
X117450142Y-104368095D01*
X117354904Y-104320476D01*
X116545380Y-104320476D01*
X116545380Y-103939523D02*
X116545380Y-103320476D01*
X116926333Y-103653809D01*
X116926333Y-103510952D01*
X116973952Y-103415714D01*
X117021571Y-103368095D01*
X117116809Y-103320476D01*
X117354904Y-103320476D01*
X117450142Y-103368095D01*
X117497761Y-103415714D01*
X117545380Y-103510952D01*
X117545380Y-103796666D01*
X117497761Y-103891904D01*
X117450142Y-103939523D01*
X100062380Y-107277619D02*
X100062380Y-106706190D01*
X101062380Y-106991904D02*
X100062380Y-106991904D01*
X101014761Y-106420476D02*
X101062380Y-106277619D01*
X101062380Y-106039523D01*
X101014761Y-105944285D01*
X100967142Y-105896666D01*
X100871904Y-105849047D01*
X100776666Y-105849047D01*
X100681428Y-105896666D01*
X100633809Y-105944285D01*
X100586190Y-106039523D01*
X100538571Y-106230000D01*
X100490952Y-106325238D01*
X100443333Y-106372857D01*
X100348095Y-106420476D01*
X100252857Y-106420476D01*
X100157619Y-106372857D01*
X100110000Y-106325238D01*
X100062380Y-106230000D01*
X100062380Y-105991904D01*
X100110000Y-105849047D01*
X100062380Y-105230000D02*
X100062380Y-105039523D01*
X100110000Y-104944285D01*
X100205238Y-104849047D01*
X100395714Y-104801428D01*
X100729047Y-104801428D01*
X100919523Y-104849047D01*
X101014761Y-104944285D01*
X101062380Y-105039523D01*
X101062380Y-105230000D01*
X101014761Y-105325238D01*
X100919523Y-105420476D01*
X100729047Y-105468095D01*
X100395714Y-105468095D01*
X100205238Y-105420476D01*
X100110000Y-105325238D01*
X100062380Y-105230000D01*
X101062380Y-104372857D02*
X100062380Y-104372857D01*
X100062380Y-103991904D01*
X100110000Y-103896666D01*
X100157619Y-103849047D01*
X100252857Y-103801428D01*
X100395714Y-103801428D01*
X100490952Y-103849047D01*
X100538571Y-103896666D01*
X100586190Y-103991904D01*
X100586190Y-104372857D01*
X101062380Y-102849047D02*
X101062380Y-103420476D01*
X101062380Y-103134761D02*
X100062380Y-103134761D01*
X100205238Y-103230000D01*
X100300476Y-103325238D01*
X100348095Y-103420476D01*
X100062380Y-102515714D02*
X100062380Y-101849047D01*
X101062380Y-102277619D01*
X101062380Y-101563333D02*
X100395714Y-101039523D01*
X100395714Y-101563333D02*
X101062380Y-101039523D01*
X101062380Y-100753809D02*
X100395714Y-100230000D01*
X100395714Y-100753809D02*
X101062380Y-100230000D01*
X103845380Y-104891904D02*
X104654904Y-104891904D01*
X104750142Y-104844285D01*
X104797761Y-104796666D01*
X104845380Y-104701428D01*
X104845380Y-104510952D01*
X104797761Y-104415714D01*
X104750142Y-104368095D01*
X104654904Y-104320476D01*
X103845380Y-104320476D01*
X103940619Y-103891904D02*
X103893000Y-103844285D01*
X103845380Y-103749047D01*
X103845380Y-103510952D01*
X103893000Y-103415714D01*
X103940619Y-103368095D01*
X104035857Y-103320476D01*
X104131095Y-103320476D01*
X104273952Y-103368095D01*
X104845380Y-103939523D01*
X104845380Y-103320476D01*
X112762380Y-121247619D02*
X112762380Y-120676190D01*
X113762380Y-120961904D02*
X112762380Y-120961904D01*
X113714761Y-120390476D02*
X113762380Y-120247619D01*
X113762380Y-120009523D01*
X113714761Y-119914285D01*
X113667142Y-119866666D01*
X113571904Y-119819047D01*
X113476666Y-119819047D01*
X113381428Y-119866666D01*
X113333809Y-119914285D01*
X113286190Y-120009523D01*
X113238571Y-120200000D01*
X113190952Y-120295238D01*
X113143333Y-120342857D01*
X113048095Y-120390476D01*
X112952857Y-120390476D01*
X112857619Y-120342857D01*
X112810000Y-120295238D01*
X112762380Y-120200000D01*
X112762380Y-119961904D01*
X112810000Y-119819047D01*
X112762380Y-119200000D02*
X112762380Y-119009523D01*
X112810000Y-118914285D01*
X112905238Y-118819047D01*
X113095714Y-118771428D01*
X113429047Y-118771428D01*
X113619523Y-118819047D01*
X113714761Y-118914285D01*
X113762380Y-119009523D01*
X113762380Y-119200000D01*
X113714761Y-119295238D01*
X113619523Y-119390476D01*
X113429047Y-119438095D01*
X113095714Y-119438095D01*
X112905238Y-119390476D01*
X112810000Y-119295238D01*
X112762380Y-119200000D01*
X113762380Y-118342857D02*
X112762380Y-118342857D01*
X112762380Y-117961904D01*
X112810000Y-117866666D01*
X112857619Y-117819047D01*
X112952857Y-117771428D01*
X113095714Y-117771428D01*
X113190952Y-117819047D01*
X113238571Y-117866666D01*
X113286190Y-117961904D01*
X113286190Y-118342857D01*
X113762380Y-116819047D02*
X113762380Y-117390476D01*
X113762380Y-117104761D02*
X112762380Y-117104761D01*
X112905238Y-117200000D01*
X113000476Y-117295238D01*
X113048095Y-117390476D01*
X112762380Y-116485714D02*
X112762380Y-115819047D01*
X113762380Y-116247619D01*
X113762380Y-115533333D02*
X113095714Y-115009523D01*
X113095714Y-115533333D02*
X113762380Y-115009523D01*
X113762380Y-114723809D02*
X113095714Y-114200000D01*
X113095714Y-114723809D02*
X113762380Y-114200000D01*
X116545380Y-118861904D02*
X117354904Y-118861904D01*
X117450142Y-118814285D01*
X117497761Y-118766666D01*
X117545380Y-118671428D01*
X117545380Y-118480952D01*
X117497761Y-118385714D01*
X117450142Y-118338095D01*
X117354904Y-118290476D01*
X116545380Y-118290476D01*
X117545380Y-117290476D02*
X117545380Y-117861904D01*
X117545380Y-117576190D02*
X116545380Y-117576190D01*
X116688238Y-117671428D01*
X116783476Y-117766666D01*
X116831095Y-117861904D01*
X101032380Y-82034761D02*
X101175238Y-82082380D01*
X101413333Y-82082380D01*
X101508571Y-82034761D01*
X101556190Y-81987142D01*
X101603809Y-81891904D01*
X101603809Y-81796666D01*
X101556190Y-81701428D01*
X101508571Y-81653809D01*
X101413333Y-81606190D01*
X101222857Y-81558571D01*
X101127619Y-81510952D01*
X101080000Y-81463333D01*
X101032380Y-81368095D01*
X101032380Y-81272857D01*
X101080000Y-81177619D01*
X101127619Y-81130000D01*
X101222857Y-81082380D01*
X101460952Y-81082380D01*
X101603809Y-81130000D01*
X101937142Y-81082380D02*
X102175238Y-82082380D01*
X102365714Y-81368095D01*
X102556190Y-82082380D01*
X102794285Y-81082380D01*
X102937142Y-82177619D02*
X103699047Y-82177619D01*
X103937142Y-82082380D02*
X103937142Y-81082380D01*
X104318095Y-81082380D01*
X104413333Y-81130000D01*
X104460952Y-81177619D01*
X104508571Y-81272857D01*
X104508571Y-81415714D01*
X104460952Y-81510952D01*
X104413333Y-81558571D01*
X104318095Y-81606190D01*
X103937142Y-81606190D01*
X105365714Y-81415714D02*
X105365714Y-82082380D01*
X104937142Y-81415714D02*
X104937142Y-81939523D01*
X104984761Y-82034761D01*
X105080000Y-82082380D01*
X105222857Y-82082380D01*
X105318095Y-82034761D01*
X105365714Y-81987142D01*
X105794285Y-82034761D02*
X105889523Y-82082380D01*
X106080000Y-82082380D01*
X106175238Y-82034761D01*
X106222857Y-81939523D01*
X106222857Y-81891904D01*
X106175238Y-81796666D01*
X106080000Y-81749047D01*
X105937142Y-81749047D01*
X105841904Y-81701428D01*
X105794285Y-81606190D01*
X105794285Y-81558571D01*
X105841904Y-81463333D01*
X105937142Y-81415714D01*
X106080000Y-81415714D01*
X106175238Y-81463333D01*
X106651428Y-82082380D02*
X106651428Y-81082380D01*
X107080000Y-82082380D02*
X107080000Y-81558571D01*
X107032380Y-81463333D01*
X106937142Y-81415714D01*
X106794285Y-81415714D01*
X106699047Y-81463333D01*
X106651428Y-81510952D01*
X102246666Y-77584761D02*
X102389523Y-77632380D01*
X102627619Y-77632380D01*
X102722857Y-77584761D01*
X102770476Y-77537142D01*
X102818095Y-77441904D01*
X102818095Y-77346666D01*
X102770476Y-77251428D01*
X102722857Y-77203809D01*
X102627619Y-77156190D01*
X102437142Y-77108571D01*
X102341904Y-77060952D01*
X102294285Y-77013333D01*
X102246666Y-76918095D01*
X102246666Y-76822857D01*
X102294285Y-76727619D01*
X102341904Y-76680000D01*
X102437142Y-76632380D01*
X102675238Y-76632380D01*
X102818095Y-76680000D01*
X103151428Y-76632380D02*
X103389523Y-77632380D01*
X103580000Y-76918095D01*
X103770476Y-77632380D01*
X104008571Y-76632380D01*
X104818095Y-76965714D02*
X104818095Y-77632380D01*
X104580000Y-76584761D02*
X104341904Y-77299047D01*
X104960952Y-77299047D01*
X115002380Y-82034761D02*
X115145238Y-82082380D01*
X115383333Y-82082380D01*
X115478571Y-82034761D01*
X115526190Y-81987142D01*
X115573809Y-81891904D01*
X115573809Y-81796666D01*
X115526190Y-81701428D01*
X115478571Y-81653809D01*
X115383333Y-81606190D01*
X115192857Y-81558571D01*
X115097619Y-81510952D01*
X115050000Y-81463333D01*
X115002380Y-81368095D01*
X115002380Y-81272857D01*
X115050000Y-81177619D01*
X115097619Y-81130000D01*
X115192857Y-81082380D01*
X115430952Y-81082380D01*
X115573809Y-81130000D01*
X115907142Y-81082380D02*
X116145238Y-82082380D01*
X116335714Y-81368095D01*
X116526190Y-82082380D01*
X116764285Y-81082380D01*
X116907142Y-82177619D02*
X117669047Y-82177619D01*
X117907142Y-82082380D02*
X117907142Y-81082380D01*
X118288095Y-81082380D01*
X118383333Y-81130000D01*
X118430952Y-81177619D01*
X118478571Y-81272857D01*
X118478571Y-81415714D01*
X118430952Y-81510952D01*
X118383333Y-81558571D01*
X118288095Y-81606190D01*
X117907142Y-81606190D01*
X119335714Y-81415714D02*
X119335714Y-82082380D01*
X118907142Y-81415714D02*
X118907142Y-81939523D01*
X118954761Y-82034761D01*
X119050000Y-82082380D01*
X119192857Y-82082380D01*
X119288095Y-82034761D01*
X119335714Y-81987142D01*
X119764285Y-82034761D02*
X119859523Y-82082380D01*
X120050000Y-82082380D01*
X120145238Y-82034761D01*
X120192857Y-81939523D01*
X120192857Y-81891904D01*
X120145238Y-81796666D01*
X120050000Y-81749047D01*
X119907142Y-81749047D01*
X119811904Y-81701428D01*
X119764285Y-81606190D01*
X119764285Y-81558571D01*
X119811904Y-81463333D01*
X119907142Y-81415714D01*
X120050000Y-81415714D01*
X120145238Y-81463333D01*
X120621428Y-82082380D02*
X120621428Y-81082380D01*
X121050000Y-82082380D02*
X121050000Y-81558571D01*
X121002380Y-81463333D01*
X120907142Y-81415714D01*
X120764285Y-81415714D01*
X120669047Y-81463333D01*
X120621428Y-81510952D01*
X116216666Y-77584761D02*
X116359523Y-77632380D01*
X116597619Y-77632380D01*
X116692857Y-77584761D01*
X116740476Y-77537142D01*
X116788095Y-77441904D01*
X116788095Y-77346666D01*
X116740476Y-77251428D01*
X116692857Y-77203809D01*
X116597619Y-77156190D01*
X116407142Y-77108571D01*
X116311904Y-77060952D01*
X116264285Y-77013333D01*
X116216666Y-76918095D01*
X116216666Y-76822857D01*
X116264285Y-76727619D01*
X116311904Y-76680000D01*
X116407142Y-76632380D01*
X116645238Y-76632380D01*
X116788095Y-76680000D01*
X117121428Y-76632380D02*
X117359523Y-77632380D01*
X117550000Y-76918095D01*
X117740476Y-77632380D01*
X117978571Y-76632380D01*
X118264285Y-76632380D02*
X118883333Y-76632380D01*
X118550000Y-77013333D01*
X118692857Y-77013333D01*
X118788095Y-77060952D01*
X118835714Y-77108571D01*
X118883333Y-77203809D01*
X118883333Y-77441904D01*
X118835714Y-77537142D01*
X118788095Y-77584761D01*
X118692857Y-77632380D01*
X118407142Y-77632380D01*
X118311904Y-77584761D01*
X118264285Y-77537142D01*
X101032380Y-94734761D02*
X101175238Y-94782380D01*
X101413333Y-94782380D01*
X101508571Y-94734761D01*
X101556190Y-94687142D01*
X101603809Y-94591904D01*
X101603809Y-94496666D01*
X101556190Y-94401428D01*
X101508571Y-94353809D01*
X101413333Y-94306190D01*
X101222857Y-94258571D01*
X101127619Y-94210952D01*
X101080000Y-94163333D01*
X101032380Y-94068095D01*
X101032380Y-93972857D01*
X101080000Y-93877619D01*
X101127619Y-93830000D01*
X101222857Y-93782380D01*
X101460952Y-93782380D01*
X101603809Y-93830000D01*
X101937142Y-93782380D02*
X102175238Y-94782380D01*
X102365714Y-94068095D01*
X102556190Y-94782380D01*
X102794285Y-93782380D01*
X102937142Y-94877619D02*
X103699047Y-94877619D01*
X103937142Y-94782380D02*
X103937142Y-93782380D01*
X104318095Y-93782380D01*
X104413333Y-93830000D01*
X104460952Y-93877619D01*
X104508571Y-93972857D01*
X104508571Y-94115714D01*
X104460952Y-94210952D01*
X104413333Y-94258571D01*
X104318095Y-94306190D01*
X103937142Y-94306190D01*
X105365714Y-94115714D02*
X105365714Y-94782380D01*
X104937142Y-94115714D02*
X104937142Y-94639523D01*
X104984761Y-94734761D01*
X105080000Y-94782380D01*
X105222857Y-94782380D01*
X105318095Y-94734761D01*
X105365714Y-94687142D01*
X105794285Y-94734761D02*
X105889523Y-94782380D01*
X106080000Y-94782380D01*
X106175238Y-94734761D01*
X106222857Y-94639523D01*
X106222857Y-94591904D01*
X106175238Y-94496666D01*
X106080000Y-94449047D01*
X105937142Y-94449047D01*
X105841904Y-94401428D01*
X105794285Y-94306190D01*
X105794285Y-94258571D01*
X105841904Y-94163333D01*
X105937142Y-94115714D01*
X106080000Y-94115714D01*
X106175238Y-94163333D01*
X106651428Y-94782380D02*
X106651428Y-93782380D01*
X107080000Y-94782380D02*
X107080000Y-94258571D01*
X107032380Y-94163333D01*
X106937142Y-94115714D01*
X106794285Y-94115714D01*
X106699047Y-94163333D01*
X106651428Y-94210952D01*
X102246666Y-90284761D02*
X102389523Y-90332380D01*
X102627619Y-90332380D01*
X102722857Y-90284761D01*
X102770476Y-90237142D01*
X102818095Y-90141904D01*
X102818095Y-90046666D01*
X102770476Y-89951428D01*
X102722857Y-89903809D01*
X102627619Y-89856190D01*
X102437142Y-89808571D01*
X102341904Y-89760952D01*
X102294285Y-89713333D01*
X102246666Y-89618095D01*
X102246666Y-89522857D01*
X102294285Y-89427619D01*
X102341904Y-89380000D01*
X102437142Y-89332380D01*
X102675238Y-89332380D01*
X102818095Y-89380000D01*
X103151428Y-89332380D02*
X103389523Y-90332380D01*
X103580000Y-89618095D01*
X103770476Y-90332380D01*
X104008571Y-89332380D01*
X104341904Y-89427619D02*
X104389523Y-89380000D01*
X104484761Y-89332380D01*
X104722857Y-89332380D01*
X104818095Y-89380000D01*
X104865714Y-89427619D01*
X104913333Y-89522857D01*
X104913333Y-89618095D01*
X104865714Y-89760952D01*
X104294285Y-90332380D01*
X104913333Y-90332380D01*
X115002380Y-94734761D02*
X115145238Y-94782380D01*
X115383333Y-94782380D01*
X115478571Y-94734761D01*
X115526190Y-94687142D01*
X115573809Y-94591904D01*
X115573809Y-94496666D01*
X115526190Y-94401428D01*
X115478571Y-94353809D01*
X115383333Y-94306190D01*
X115192857Y-94258571D01*
X115097619Y-94210952D01*
X115050000Y-94163333D01*
X115002380Y-94068095D01*
X115002380Y-93972857D01*
X115050000Y-93877619D01*
X115097619Y-93830000D01*
X115192857Y-93782380D01*
X115430952Y-93782380D01*
X115573809Y-93830000D01*
X115907142Y-93782380D02*
X116145238Y-94782380D01*
X116335714Y-94068095D01*
X116526190Y-94782380D01*
X116764285Y-93782380D01*
X116907142Y-94877619D02*
X117669047Y-94877619D01*
X117907142Y-94782380D02*
X117907142Y-93782380D01*
X118288095Y-93782380D01*
X118383333Y-93830000D01*
X118430952Y-93877619D01*
X118478571Y-93972857D01*
X118478571Y-94115714D01*
X118430952Y-94210952D01*
X118383333Y-94258571D01*
X118288095Y-94306190D01*
X117907142Y-94306190D01*
X119335714Y-94115714D02*
X119335714Y-94782380D01*
X118907142Y-94115714D02*
X118907142Y-94639523D01*
X118954761Y-94734761D01*
X119050000Y-94782380D01*
X119192857Y-94782380D01*
X119288095Y-94734761D01*
X119335714Y-94687142D01*
X119764285Y-94734761D02*
X119859523Y-94782380D01*
X120050000Y-94782380D01*
X120145238Y-94734761D01*
X120192857Y-94639523D01*
X120192857Y-94591904D01*
X120145238Y-94496666D01*
X120050000Y-94449047D01*
X119907142Y-94449047D01*
X119811904Y-94401428D01*
X119764285Y-94306190D01*
X119764285Y-94258571D01*
X119811904Y-94163333D01*
X119907142Y-94115714D01*
X120050000Y-94115714D01*
X120145238Y-94163333D01*
X120621428Y-94782380D02*
X120621428Y-93782380D01*
X121050000Y-94782380D02*
X121050000Y-94258571D01*
X121002380Y-94163333D01*
X120907142Y-94115714D01*
X120764285Y-94115714D01*
X120669047Y-94163333D01*
X120621428Y-94210952D01*
X116216666Y-90284761D02*
X116359523Y-90332380D01*
X116597619Y-90332380D01*
X116692857Y-90284761D01*
X116740476Y-90237142D01*
X116788095Y-90141904D01*
X116788095Y-90046666D01*
X116740476Y-89951428D01*
X116692857Y-89903809D01*
X116597619Y-89856190D01*
X116407142Y-89808571D01*
X116311904Y-89760952D01*
X116264285Y-89713333D01*
X116216666Y-89618095D01*
X116216666Y-89522857D01*
X116264285Y-89427619D01*
X116311904Y-89380000D01*
X116407142Y-89332380D01*
X116645238Y-89332380D01*
X116788095Y-89380000D01*
X117121428Y-89332380D02*
X117359523Y-90332380D01*
X117550000Y-89618095D01*
X117740476Y-90332380D01*
X117978571Y-89332380D01*
X118883333Y-90332380D02*
X118311904Y-90332380D01*
X118597619Y-90332380D02*
X118597619Y-89332380D01*
X118502380Y-89475238D01*
X118407142Y-89570476D01*
X118311904Y-89618095D01*
X123476190Y-101584761D02*
X123619047Y-101632380D01*
X123857142Y-101632380D01*
X123952380Y-101584761D01*
X124000000Y-101537142D01*
X124047619Y-101441904D01*
X124047619Y-101346666D01*
X124000000Y-101251428D01*
X123952380Y-101203809D01*
X123857142Y-101156190D01*
X123666666Y-101108571D01*
X123571428Y-101060952D01*
X123523809Y-101013333D01*
X123476190Y-100918095D01*
X123476190Y-100822857D01*
X123523809Y-100727619D01*
X123571428Y-100680000D01*
X123666666Y-100632380D01*
X123904761Y-100632380D01*
X124047619Y-100680000D01*
X124476190Y-101632380D02*
X124476190Y-100965714D01*
X124476190Y-100632380D02*
X124428571Y-100680000D01*
X124476190Y-100727619D01*
X124523809Y-100680000D01*
X124476190Y-100632380D01*
X124476190Y-100727619D01*
X125380952Y-101632380D02*
X125380952Y-100632380D01*
X125380952Y-101584761D02*
X125285714Y-101632380D01*
X125095238Y-101632380D01*
X125000000Y-101584761D01*
X124952380Y-101537142D01*
X124904761Y-101441904D01*
X124904761Y-101156190D01*
X124952380Y-101060952D01*
X125000000Y-101013333D01*
X125095238Y-100965714D01*
X125285714Y-100965714D01*
X125380952Y-101013333D01*
X126238095Y-101584761D02*
X126142857Y-101632380D01*
X125952380Y-101632380D01*
X125857142Y-101584761D01*
X125809523Y-101489523D01*
X125809523Y-101108571D01*
X125857142Y-101013333D01*
X125952380Y-100965714D01*
X126142857Y-100965714D01*
X126238095Y-101013333D01*
X126285714Y-101108571D01*
X126285714Y-101203809D01*
X125809523Y-101299047D01*
X127238095Y-100680000D02*
X127142857Y-100632380D01*
X127000000Y-100632380D01*
X126857142Y-100680000D01*
X126761904Y-100775238D01*
X126714285Y-100870476D01*
X126666666Y-101060952D01*
X126666666Y-101203809D01*
X126714285Y-101394285D01*
X126761904Y-101489523D01*
X126857142Y-101584761D01*
X127000000Y-101632380D01*
X127095238Y-101632380D01*
X127238095Y-101584761D01*
X127285714Y-101537142D01*
X127285714Y-101203809D01*
X127095238Y-101203809D01*
X127714285Y-101632380D02*
X127714285Y-100965714D01*
X127714285Y-101156190D02*
X127761904Y-101060952D01*
X127809523Y-101013333D01*
X127904761Y-100965714D01*
X128000000Y-100965714D01*
X128714285Y-101584761D02*
X128619047Y-101632380D01*
X128428571Y-101632380D01*
X128333333Y-101584761D01*
X128285714Y-101489523D01*
X128285714Y-101108571D01*
X128333333Y-101013333D01*
X128428571Y-100965714D01*
X128619047Y-100965714D01*
X128714285Y-101013333D01*
X128761904Y-101108571D01*
X128761904Y-101203809D01*
X128285714Y-101299047D01*
X129571428Y-101584761D02*
X129476190Y-101632380D01*
X129285714Y-101632380D01*
X129190476Y-101584761D01*
X129142857Y-101489523D01*
X129142857Y-101108571D01*
X129190476Y-101013333D01*
X129285714Y-100965714D01*
X129476190Y-100965714D01*
X129571428Y-101013333D01*
X129619047Y-101108571D01*
X129619047Y-101203809D01*
X129142857Y-101299047D01*
X130047619Y-100965714D02*
X130047619Y-101632380D01*
X130047619Y-101060952D02*
X130095238Y-101013333D01*
X130190476Y-100965714D01*
X130333333Y-100965714D01*
X130428571Y-101013333D01*
X130476190Y-101108571D01*
X130476190Y-101632380D01*
D12*
X124190476Y-104463809D02*
X124304761Y-104501904D01*
X124495238Y-104501904D01*
X124571428Y-104463809D01*
X124609523Y-104425714D01*
X124647619Y-104349523D01*
X124647619Y-104273333D01*
X124609523Y-104197142D01*
X124571428Y-104159047D01*
X124495238Y-104120952D01*
X124342857Y-104082857D01*
X124266666Y-104044761D01*
X124228571Y-104006666D01*
X124190476Y-103930476D01*
X124190476Y-103854285D01*
X124228571Y-103778095D01*
X124266666Y-103740000D01*
X124342857Y-103701904D01*
X124533333Y-103701904D01*
X124647619Y-103740000D01*
X124990476Y-104501904D02*
X124990476Y-103968571D01*
X124990476Y-103701904D02*
X124952380Y-103740000D01*
X124990476Y-103778095D01*
X125028571Y-103740000D01*
X124990476Y-103701904D01*
X124990476Y-103778095D01*
X125714285Y-104501904D02*
X125714285Y-103701904D01*
X125714285Y-104463809D02*
X125638095Y-104501904D01*
X125485714Y-104501904D01*
X125409523Y-104463809D01*
X125371428Y-104425714D01*
X125333333Y-104349523D01*
X125333333Y-104120952D01*
X125371428Y-104044761D01*
X125409523Y-104006666D01*
X125485714Y-103968571D01*
X125638095Y-103968571D01*
X125714285Y-104006666D01*
X126400000Y-104463809D02*
X126323809Y-104501904D01*
X126171428Y-104501904D01*
X126095238Y-104463809D01*
X126057142Y-104387619D01*
X126057142Y-104082857D01*
X126095238Y-104006666D01*
X126171428Y-103968571D01*
X126323809Y-103968571D01*
X126400000Y-104006666D01*
X126438095Y-104082857D01*
X126438095Y-104159047D01*
X126057142Y-104235238D01*
X127238095Y-104501904D02*
X126971428Y-104120952D01*
X126780952Y-104501904D02*
X126780952Y-103701904D01*
X127085714Y-103701904D01*
X127161904Y-103740000D01*
X127200000Y-103778095D01*
X127238095Y-103854285D01*
X127238095Y-103968571D01*
X127200000Y-104044761D01*
X127161904Y-104082857D01*
X127085714Y-104120952D01*
X126780952Y-104120952D01*
X127885714Y-104463809D02*
X127809523Y-104501904D01*
X127657142Y-104501904D01*
X127580952Y-104463809D01*
X127542857Y-104387619D01*
X127542857Y-104082857D01*
X127580952Y-104006666D01*
X127657142Y-103968571D01*
X127809523Y-103968571D01*
X127885714Y-104006666D01*
X127923809Y-104082857D01*
X127923809Y-104159047D01*
X127542857Y-104235238D01*
X128609523Y-104501904D02*
X128609523Y-103701904D01*
X128609523Y-104463809D02*
X128533333Y-104501904D01*
X128380952Y-104501904D01*
X128304761Y-104463809D01*
X128266666Y-104425714D01*
X128228571Y-104349523D01*
X128228571Y-104120952D01*
X128266666Y-104044761D01*
X128304761Y-104006666D01*
X128380952Y-103968571D01*
X128533333Y-103968571D01*
X128609523Y-104006666D01*
X129371428Y-103701904D02*
X128990476Y-103701904D01*
X128952380Y-104082857D01*
X128990476Y-104044761D01*
X129066666Y-104006666D01*
X129257142Y-104006666D01*
X129333333Y-104044761D01*
X129371428Y-104082857D01*
X129409523Y-104159047D01*
X129409523Y-104349523D01*
X129371428Y-104425714D01*
X129333333Y-104463809D01*
X129257142Y-104501904D01*
X129066666Y-104501904D01*
X128990476Y-104463809D01*
X128952380Y-104425714D01*
D11*
X126357142Y-71152380D02*
X125880952Y-71152380D01*
X125880952Y-70152380D01*
X126690476Y-70628571D02*
X127023809Y-70628571D01*
X127166666Y-71152380D02*
X126690476Y-71152380D01*
X126690476Y-70152380D01*
X127166666Y-70152380D01*
X127595238Y-71152380D02*
X127595238Y-70152380D01*
X127833333Y-70152380D01*
X127976190Y-70200000D01*
X128071428Y-70295238D01*
X128119047Y-70390476D01*
X128166666Y-70580952D01*
X128166666Y-70723809D01*
X128119047Y-70914285D01*
X128071428Y-71009523D01*
X127976190Y-71104761D01*
X127833333Y-71152380D01*
X127595238Y-71152380D01*
D12*
X124190476Y-73983809D02*
X124304761Y-74021904D01*
X124495238Y-74021904D01*
X124571428Y-73983809D01*
X124609523Y-73945714D01*
X124647619Y-73869523D01*
X124647619Y-73793333D01*
X124609523Y-73717142D01*
X124571428Y-73679047D01*
X124495238Y-73640952D01*
X124342857Y-73602857D01*
X124266666Y-73564761D01*
X124228571Y-73526666D01*
X124190476Y-73450476D01*
X124190476Y-73374285D01*
X124228571Y-73298095D01*
X124266666Y-73260000D01*
X124342857Y-73221904D01*
X124533333Y-73221904D01*
X124647619Y-73260000D01*
X124990476Y-74021904D02*
X124990476Y-73488571D01*
X124990476Y-73221904D02*
X124952380Y-73260000D01*
X124990476Y-73298095D01*
X125028571Y-73260000D01*
X124990476Y-73221904D01*
X124990476Y-73298095D01*
X125714285Y-74021904D02*
X125714285Y-73221904D01*
X125714285Y-73983809D02*
X125638095Y-74021904D01*
X125485714Y-74021904D01*
X125409523Y-73983809D01*
X125371428Y-73945714D01*
X125333333Y-73869523D01*
X125333333Y-73640952D01*
X125371428Y-73564761D01*
X125409523Y-73526666D01*
X125485714Y-73488571D01*
X125638095Y-73488571D01*
X125714285Y-73526666D01*
X126400000Y-73983809D02*
X126323809Y-74021904D01*
X126171428Y-74021904D01*
X126095238Y-73983809D01*
X126057142Y-73907619D01*
X126057142Y-73602857D01*
X126095238Y-73526666D01*
X126171428Y-73488571D01*
X126323809Y-73488571D01*
X126400000Y-73526666D01*
X126438095Y-73602857D01*
X126438095Y-73679047D01*
X126057142Y-73755238D01*
X127238095Y-74021904D02*
X126971428Y-73640952D01*
X126780952Y-74021904D02*
X126780952Y-73221904D01*
X127085714Y-73221904D01*
X127161904Y-73260000D01*
X127200000Y-73298095D01*
X127238095Y-73374285D01*
X127238095Y-73488571D01*
X127200000Y-73564761D01*
X127161904Y-73602857D01*
X127085714Y-73640952D01*
X126780952Y-73640952D01*
X127885714Y-73983809D02*
X127809523Y-74021904D01*
X127657142Y-74021904D01*
X127580952Y-73983809D01*
X127542857Y-73907619D01*
X127542857Y-73602857D01*
X127580952Y-73526666D01*
X127657142Y-73488571D01*
X127809523Y-73488571D01*
X127885714Y-73526666D01*
X127923809Y-73602857D01*
X127923809Y-73679047D01*
X127542857Y-73755238D01*
X128609523Y-74021904D02*
X128609523Y-73221904D01*
X128609523Y-73983809D02*
X128533333Y-74021904D01*
X128380952Y-74021904D01*
X128304761Y-73983809D01*
X128266666Y-73945714D01*
X128228571Y-73869523D01*
X128228571Y-73640952D01*
X128266666Y-73564761D01*
X128304761Y-73526666D01*
X128380952Y-73488571D01*
X128533333Y-73488571D01*
X128609523Y-73526666D01*
X129333333Y-73488571D02*
X129333333Y-74021904D01*
X129142857Y-73183809D02*
X128952380Y-73755238D01*
X129447619Y-73755238D01*
D11*
X126357142Y-63532380D02*
X125880952Y-63532380D01*
X125880952Y-62532380D01*
X126690476Y-63008571D02*
X127023809Y-63008571D01*
X127166666Y-63532380D02*
X126690476Y-63532380D01*
X126690476Y-62532380D01*
X127166666Y-62532380D01*
X127595238Y-63532380D02*
X127595238Y-62532380D01*
X127833333Y-62532380D01*
X127976190Y-62580000D01*
X128071428Y-62675238D01*
X128119047Y-62770476D01*
X128166666Y-62960952D01*
X128166666Y-63103809D01*
X128119047Y-63294285D01*
X128071428Y-63389523D01*
X127976190Y-63484761D01*
X127833333Y-63532380D01*
X127595238Y-63532380D01*
D12*
X124190476Y-66363809D02*
X124304761Y-66401904D01*
X124495238Y-66401904D01*
X124571428Y-66363809D01*
X124609523Y-66325714D01*
X124647619Y-66249523D01*
X124647619Y-66173333D01*
X124609523Y-66097142D01*
X124571428Y-66059047D01*
X124495238Y-66020952D01*
X124342857Y-65982857D01*
X124266666Y-65944761D01*
X124228571Y-65906666D01*
X124190476Y-65830476D01*
X124190476Y-65754285D01*
X124228571Y-65678095D01*
X124266666Y-65640000D01*
X124342857Y-65601904D01*
X124533333Y-65601904D01*
X124647619Y-65640000D01*
X124990476Y-66401904D02*
X124990476Y-65868571D01*
X124990476Y-65601904D02*
X124952380Y-65640000D01*
X124990476Y-65678095D01*
X125028571Y-65640000D01*
X124990476Y-65601904D01*
X124990476Y-65678095D01*
X125714285Y-66401904D02*
X125714285Y-65601904D01*
X125714285Y-66363809D02*
X125638095Y-66401904D01*
X125485714Y-66401904D01*
X125409523Y-66363809D01*
X125371428Y-66325714D01*
X125333333Y-66249523D01*
X125333333Y-66020952D01*
X125371428Y-65944761D01*
X125409523Y-65906666D01*
X125485714Y-65868571D01*
X125638095Y-65868571D01*
X125714285Y-65906666D01*
X126400000Y-66363809D02*
X126323809Y-66401904D01*
X126171428Y-66401904D01*
X126095238Y-66363809D01*
X126057142Y-66287619D01*
X126057142Y-65982857D01*
X126095238Y-65906666D01*
X126171428Y-65868571D01*
X126323809Y-65868571D01*
X126400000Y-65906666D01*
X126438095Y-65982857D01*
X126438095Y-66059047D01*
X126057142Y-66135238D01*
X127238095Y-66401904D02*
X126971428Y-66020952D01*
X126780952Y-66401904D02*
X126780952Y-65601904D01*
X127085714Y-65601904D01*
X127161904Y-65640000D01*
X127200000Y-65678095D01*
X127238095Y-65754285D01*
X127238095Y-65868571D01*
X127200000Y-65944761D01*
X127161904Y-65982857D01*
X127085714Y-66020952D01*
X126780952Y-66020952D01*
X127885714Y-66363809D02*
X127809523Y-66401904D01*
X127657142Y-66401904D01*
X127580952Y-66363809D01*
X127542857Y-66287619D01*
X127542857Y-65982857D01*
X127580952Y-65906666D01*
X127657142Y-65868571D01*
X127809523Y-65868571D01*
X127885714Y-65906666D01*
X127923809Y-65982857D01*
X127923809Y-66059047D01*
X127542857Y-66135238D01*
X128609523Y-66401904D02*
X128609523Y-65601904D01*
X128609523Y-66363809D02*
X128533333Y-66401904D01*
X128380952Y-66401904D01*
X128304761Y-66363809D01*
X128266666Y-66325714D01*
X128228571Y-66249523D01*
X128228571Y-66020952D01*
X128266666Y-65944761D01*
X128304761Y-65906666D01*
X128380952Y-65868571D01*
X128533333Y-65868571D01*
X128609523Y-65906666D01*
X128914285Y-65601904D02*
X129409523Y-65601904D01*
X129142857Y-65906666D01*
X129257142Y-65906666D01*
X129333333Y-65944761D01*
X129371428Y-65982857D01*
X129409523Y-66059047D01*
X129409523Y-66249523D01*
X129371428Y-66325714D01*
X129333333Y-66363809D01*
X129257142Y-66401904D01*
X129028571Y-66401904D01*
X128952380Y-66363809D01*
X128914285Y-66325714D01*
D11*
X126357142Y-55912380D02*
X125880952Y-55912380D01*
X125880952Y-54912380D01*
X126690476Y-55388571D02*
X127023809Y-55388571D01*
X127166666Y-55912380D02*
X126690476Y-55912380D01*
X126690476Y-54912380D01*
X127166666Y-54912380D01*
X127595238Y-55912380D02*
X127595238Y-54912380D01*
X127833333Y-54912380D01*
X127976190Y-54960000D01*
X128071428Y-55055238D01*
X128119047Y-55150476D01*
X128166666Y-55340952D01*
X128166666Y-55483809D01*
X128119047Y-55674285D01*
X128071428Y-55769523D01*
X127976190Y-55864761D01*
X127833333Y-55912380D01*
X127595238Y-55912380D01*
D12*
X124190476Y-58743809D02*
X124304761Y-58781904D01*
X124495238Y-58781904D01*
X124571428Y-58743809D01*
X124609523Y-58705714D01*
X124647619Y-58629523D01*
X124647619Y-58553333D01*
X124609523Y-58477142D01*
X124571428Y-58439047D01*
X124495238Y-58400952D01*
X124342857Y-58362857D01*
X124266666Y-58324761D01*
X124228571Y-58286666D01*
X124190476Y-58210476D01*
X124190476Y-58134285D01*
X124228571Y-58058095D01*
X124266666Y-58020000D01*
X124342857Y-57981904D01*
X124533333Y-57981904D01*
X124647619Y-58020000D01*
X124990476Y-58781904D02*
X124990476Y-58248571D01*
X124990476Y-57981904D02*
X124952380Y-58020000D01*
X124990476Y-58058095D01*
X125028571Y-58020000D01*
X124990476Y-57981904D01*
X124990476Y-58058095D01*
X125714285Y-58781904D02*
X125714285Y-57981904D01*
X125714285Y-58743809D02*
X125638095Y-58781904D01*
X125485714Y-58781904D01*
X125409523Y-58743809D01*
X125371428Y-58705714D01*
X125333333Y-58629523D01*
X125333333Y-58400952D01*
X125371428Y-58324761D01*
X125409523Y-58286666D01*
X125485714Y-58248571D01*
X125638095Y-58248571D01*
X125714285Y-58286666D01*
X126400000Y-58743809D02*
X126323809Y-58781904D01*
X126171428Y-58781904D01*
X126095238Y-58743809D01*
X126057142Y-58667619D01*
X126057142Y-58362857D01*
X126095238Y-58286666D01*
X126171428Y-58248571D01*
X126323809Y-58248571D01*
X126400000Y-58286666D01*
X126438095Y-58362857D01*
X126438095Y-58439047D01*
X126057142Y-58515238D01*
X127238095Y-58781904D02*
X126971428Y-58400952D01*
X126780952Y-58781904D02*
X126780952Y-57981904D01*
X127085714Y-57981904D01*
X127161904Y-58020000D01*
X127200000Y-58058095D01*
X127238095Y-58134285D01*
X127238095Y-58248571D01*
X127200000Y-58324761D01*
X127161904Y-58362857D01*
X127085714Y-58400952D01*
X126780952Y-58400952D01*
X127885714Y-58743809D02*
X127809523Y-58781904D01*
X127657142Y-58781904D01*
X127580952Y-58743809D01*
X127542857Y-58667619D01*
X127542857Y-58362857D01*
X127580952Y-58286666D01*
X127657142Y-58248571D01*
X127809523Y-58248571D01*
X127885714Y-58286666D01*
X127923809Y-58362857D01*
X127923809Y-58439047D01*
X127542857Y-58515238D01*
X128609523Y-58781904D02*
X128609523Y-57981904D01*
X128609523Y-58743809D02*
X128533333Y-58781904D01*
X128380952Y-58781904D01*
X128304761Y-58743809D01*
X128266666Y-58705714D01*
X128228571Y-58629523D01*
X128228571Y-58400952D01*
X128266666Y-58324761D01*
X128304761Y-58286666D01*
X128380952Y-58248571D01*
X128533333Y-58248571D01*
X128609523Y-58286666D01*
X128952380Y-58058095D02*
X128990476Y-58020000D01*
X129066666Y-57981904D01*
X129257142Y-57981904D01*
X129333333Y-58020000D01*
X129371428Y-58058095D01*
X129409523Y-58134285D01*
X129409523Y-58210476D01*
X129371428Y-58324761D01*
X128914285Y-58781904D01*
X129409523Y-58781904D01*
D11*
X126357142Y-54212380D02*
X125880952Y-54212380D01*
X125880952Y-53212380D01*
X126690476Y-53688571D02*
X127023809Y-53688571D01*
X127166666Y-54212380D02*
X126690476Y-54212380D01*
X126690476Y-53212380D01*
X127166666Y-53212380D01*
X127595238Y-54212380D02*
X127595238Y-53212380D01*
X127833333Y-53212380D01*
X127976190Y-53260000D01*
X128071428Y-53355238D01*
X128119047Y-53450476D01*
X128166666Y-53640952D01*
X128166666Y-53783809D01*
X128119047Y-53974285D01*
X128071428Y-54069523D01*
X127976190Y-54164761D01*
X127833333Y-54212380D01*
X127595238Y-54212380D01*
D12*
X124590476Y-51123809D02*
X124704761Y-51161904D01*
X124895238Y-51161904D01*
X124971428Y-51123809D01*
X125009523Y-51085714D01*
X125047619Y-51009523D01*
X125047619Y-50933333D01*
X125009523Y-50857142D01*
X124971428Y-50819047D01*
X124895238Y-50780952D01*
X124742857Y-50742857D01*
X124666666Y-50704761D01*
X124628571Y-50666666D01*
X124590476Y-50590476D01*
X124590476Y-50514285D01*
X124628571Y-50438095D01*
X124666666Y-50400000D01*
X124742857Y-50361904D01*
X124933333Y-50361904D01*
X125047619Y-50400000D01*
X125390476Y-51161904D02*
X125390476Y-50628571D01*
X125390476Y-50361904D02*
X125352380Y-50400000D01*
X125390476Y-50438095D01*
X125428571Y-50400000D01*
X125390476Y-50361904D01*
X125390476Y-50438095D01*
X126114285Y-51161904D02*
X126114285Y-50361904D01*
X126114285Y-51123809D02*
X126038095Y-51161904D01*
X125885714Y-51161904D01*
X125809523Y-51123809D01*
X125771428Y-51085714D01*
X125733333Y-51009523D01*
X125733333Y-50780952D01*
X125771428Y-50704761D01*
X125809523Y-50666666D01*
X125885714Y-50628571D01*
X126038095Y-50628571D01*
X126114285Y-50666666D01*
X126800000Y-51123809D02*
X126723809Y-51161904D01*
X126571428Y-51161904D01*
X126495238Y-51123809D01*
X126457142Y-51047619D01*
X126457142Y-50742857D01*
X126495238Y-50666666D01*
X126571428Y-50628571D01*
X126723809Y-50628571D01*
X126800000Y-50666666D01*
X126838095Y-50742857D01*
X126838095Y-50819047D01*
X126457142Y-50895238D01*
X127638095Y-51161904D02*
X127371428Y-50780952D01*
X127180952Y-51161904D02*
X127180952Y-50361904D01*
X127485714Y-50361904D01*
X127561904Y-50400000D01*
X127600000Y-50438095D01*
X127638095Y-50514285D01*
X127638095Y-50628571D01*
X127600000Y-50704761D01*
X127561904Y-50742857D01*
X127485714Y-50780952D01*
X127180952Y-50780952D01*
X128285714Y-51123809D02*
X128209523Y-51161904D01*
X128057142Y-51161904D01*
X127980952Y-51123809D01*
X127942857Y-51047619D01*
X127942857Y-50742857D01*
X127980952Y-50666666D01*
X128057142Y-50628571D01*
X128209523Y-50628571D01*
X128285714Y-50666666D01*
X128323809Y-50742857D01*
X128323809Y-50819047D01*
X127942857Y-50895238D01*
X129009523Y-51161904D02*
X129009523Y-50361904D01*
X129009523Y-51123809D02*
X128933333Y-51161904D01*
X128780952Y-51161904D01*
X128704761Y-51123809D01*
X128666666Y-51085714D01*
X128628571Y-51009523D01*
X128628571Y-50780952D01*
X128666666Y-50704761D01*
X128704761Y-50666666D01*
X128780952Y-50628571D01*
X128933333Y-50628571D01*
X129009523Y-50666666D01*
X129809523Y-51161904D02*
X129352380Y-51161904D01*
X129580952Y-51161904D02*
X129580952Y-50361904D01*
X129504761Y-50476190D01*
X129428571Y-50552380D01*
X129352380Y-50590476D01*
D11*
X126357142Y-94012380D02*
X125880952Y-94012380D01*
X125880952Y-93012380D01*
X126690476Y-93488571D02*
X127023809Y-93488571D01*
X127166666Y-94012380D02*
X126690476Y-94012380D01*
X126690476Y-93012380D01*
X127166666Y-93012380D01*
X127595238Y-94012380D02*
X127595238Y-93012380D01*
X127833333Y-93012380D01*
X127976190Y-93060000D01*
X128071428Y-93155238D01*
X128119047Y-93250476D01*
X128166666Y-93440952D01*
X128166666Y-93583809D01*
X128119047Y-93774285D01*
X128071428Y-93869523D01*
X127976190Y-93964761D01*
X127833333Y-94012380D01*
X127595238Y-94012380D01*
D12*
X123600000Y-96843809D02*
X123714285Y-96881904D01*
X123904761Y-96881904D01*
X123980952Y-96843809D01*
X124019047Y-96805714D01*
X124057142Y-96729523D01*
X124057142Y-96653333D01*
X124019047Y-96577142D01*
X123980952Y-96539047D01*
X123904761Y-96500952D01*
X123752380Y-96462857D01*
X123676190Y-96424761D01*
X123638095Y-96386666D01*
X123600000Y-96310476D01*
X123600000Y-96234285D01*
X123638095Y-96158095D01*
X123676190Y-96120000D01*
X123752380Y-96081904D01*
X123942857Y-96081904D01*
X124057142Y-96120000D01*
X124400000Y-96881904D02*
X124400000Y-96348571D01*
X124400000Y-96081904D02*
X124361904Y-96120000D01*
X124400000Y-96158095D01*
X124438095Y-96120000D01*
X124400000Y-96081904D01*
X124400000Y-96158095D01*
X125123809Y-96881904D02*
X125123809Y-96081904D01*
X125123809Y-96843809D02*
X125047619Y-96881904D01*
X124895238Y-96881904D01*
X124819047Y-96843809D01*
X124780952Y-96805714D01*
X124742857Y-96729523D01*
X124742857Y-96500952D01*
X124780952Y-96424761D01*
X124819047Y-96386666D01*
X124895238Y-96348571D01*
X125047619Y-96348571D01*
X125123809Y-96386666D01*
X125809523Y-96843809D02*
X125733333Y-96881904D01*
X125580952Y-96881904D01*
X125504761Y-96843809D01*
X125466666Y-96767619D01*
X125466666Y-96462857D01*
X125504761Y-96386666D01*
X125580952Y-96348571D01*
X125733333Y-96348571D01*
X125809523Y-96386666D01*
X125847619Y-96462857D01*
X125847619Y-96539047D01*
X125466666Y-96615238D01*
X126609523Y-96120000D02*
X126533333Y-96081904D01*
X126419047Y-96081904D01*
X126304761Y-96120000D01*
X126228571Y-96196190D01*
X126190476Y-96272380D01*
X126152380Y-96424761D01*
X126152380Y-96539047D01*
X126190476Y-96691428D01*
X126228571Y-96767619D01*
X126304761Y-96843809D01*
X126419047Y-96881904D01*
X126495238Y-96881904D01*
X126609523Y-96843809D01*
X126647619Y-96805714D01*
X126647619Y-96539047D01*
X126495238Y-96539047D01*
X126990476Y-96881904D02*
X126990476Y-96348571D01*
X126990476Y-96500952D02*
X127028571Y-96424761D01*
X127066666Y-96386666D01*
X127142857Y-96348571D01*
X127219047Y-96348571D01*
X127790476Y-96843809D02*
X127714285Y-96881904D01*
X127561904Y-96881904D01*
X127485714Y-96843809D01*
X127447619Y-96767619D01*
X127447619Y-96462857D01*
X127485714Y-96386666D01*
X127561904Y-96348571D01*
X127714285Y-96348571D01*
X127790476Y-96386666D01*
X127828571Y-96462857D01*
X127828571Y-96539047D01*
X127447619Y-96615238D01*
X128476190Y-96843809D02*
X128400000Y-96881904D01*
X128247619Y-96881904D01*
X128171428Y-96843809D01*
X128133333Y-96767619D01*
X128133333Y-96462857D01*
X128171428Y-96386666D01*
X128247619Y-96348571D01*
X128400000Y-96348571D01*
X128476190Y-96386666D01*
X128514285Y-96462857D01*
X128514285Y-96539047D01*
X128133333Y-96615238D01*
X128857142Y-96348571D02*
X128857142Y-96881904D01*
X128857142Y-96424761D02*
X128895238Y-96386666D01*
X128971428Y-96348571D01*
X129085714Y-96348571D01*
X129161904Y-96386666D01*
X129200000Y-96462857D01*
X129200000Y-96881904D01*
X129504761Y-96081904D02*
X130000000Y-96081904D01*
X129733333Y-96386666D01*
X129847619Y-96386666D01*
X129923809Y-96424761D01*
X129961904Y-96462857D01*
X130000000Y-96539047D01*
X130000000Y-96729523D01*
X129961904Y-96805714D01*
X129923809Y-96843809D01*
X129847619Y-96881904D01*
X129619047Y-96881904D01*
X129542857Y-96843809D01*
X129504761Y-96805714D01*
D11*
X126357142Y-86392380D02*
X125880952Y-86392380D01*
X125880952Y-85392380D01*
X126690476Y-85868571D02*
X127023809Y-85868571D01*
X127166666Y-86392380D02*
X126690476Y-86392380D01*
X126690476Y-85392380D01*
X127166666Y-85392380D01*
X127595238Y-86392380D02*
X127595238Y-85392380D01*
X127833333Y-85392380D01*
X127976190Y-85440000D01*
X128071428Y-85535238D01*
X128119047Y-85630476D01*
X128166666Y-85820952D01*
X128166666Y-85963809D01*
X128119047Y-86154285D01*
X128071428Y-86249523D01*
X127976190Y-86344761D01*
X127833333Y-86392380D01*
X127595238Y-86392380D01*
D12*
X123600000Y-89223809D02*
X123714285Y-89261904D01*
X123904761Y-89261904D01*
X123980952Y-89223809D01*
X124019047Y-89185714D01*
X124057142Y-89109523D01*
X124057142Y-89033333D01*
X124019047Y-88957142D01*
X123980952Y-88919047D01*
X123904761Y-88880952D01*
X123752380Y-88842857D01*
X123676190Y-88804761D01*
X123638095Y-88766666D01*
X123600000Y-88690476D01*
X123600000Y-88614285D01*
X123638095Y-88538095D01*
X123676190Y-88500000D01*
X123752380Y-88461904D01*
X123942857Y-88461904D01*
X124057142Y-88500000D01*
X124400000Y-89261904D02*
X124400000Y-88728571D01*
X124400000Y-88461904D02*
X124361904Y-88500000D01*
X124400000Y-88538095D01*
X124438095Y-88500000D01*
X124400000Y-88461904D01*
X124400000Y-88538095D01*
X125123809Y-89261904D02*
X125123809Y-88461904D01*
X125123809Y-89223809D02*
X125047619Y-89261904D01*
X124895238Y-89261904D01*
X124819047Y-89223809D01*
X124780952Y-89185714D01*
X124742857Y-89109523D01*
X124742857Y-88880952D01*
X124780952Y-88804761D01*
X124819047Y-88766666D01*
X124895238Y-88728571D01*
X125047619Y-88728571D01*
X125123809Y-88766666D01*
X125809523Y-89223809D02*
X125733333Y-89261904D01*
X125580952Y-89261904D01*
X125504761Y-89223809D01*
X125466666Y-89147619D01*
X125466666Y-88842857D01*
X125504761Y-88766666D01*
X125580952Y-88728571D01*
X125733333Y-88728571D01*
X125809523Y-88766666D01*
X125847619Y-88842857D01*
X125847619Y-88919047D01*
X125466666Y-88995238D01*
X126609523Y-88500000D02*
X126533333Y-88461904D01*
X126419047Y-88461904D01*
X126304761Y-88500000D01*
X126228571Y-88576190D01*
X126190476Y-88652380D01*
X126152380Y-88804761D01*
X126152380Y-88919047D01*
X126190476Y-89071428D01*
X126228571Y-89147619D01*
X126304761Y-89223809D01*
X126419047Y-89261904D01*
X126495238Y-89261904D01*
X126609523Y-89223809D01*
X126647619Y-89185714D01*
X126647619Y-88919047D01*
X126495238Y-88919047D01*
X126990476Y-89261904D02*
X126990476Y-88728571D01*
X126990476Y-88880952D02*
X127028571Y-88804761D01*
X127066666Y-88766666D01*
X127142857Y-88728571D01*
X127219047Y-88728571D01*
X127790476Y-89223809D02*
X127714285Y-89261904D01*
X127561904Y-89261904D01*
X127485714Y-89223809D01*
X127447619Y-89147619D01*
X127447619Y-88842857D01*
X127485714Y-88766666D01*
X127561904Y-88728571D01*
X127714285Y-88728571D01*
X127790476Y-88766666D01*
X127828571Y-88842857D01*
X127828571Y-88919047D01*
X127447619Y-88995238D01*
X128476190Y-89223809D02*
X128400000Y-89261904D01*
X128247619Y-89261904D01*
X128171428Y-89223809D01*
X128133333Y-89147619D01*
X128133333Y-88842857D01*
X128171428Y-88766666D01*
X128247619Y-88728571D01*
X128400000Y-88728571D01*
X128476190Y-88766666D01*
X128514285Y-88842857D01*
X128514285Y-88919047D01*
X128133333Y-88995238D01*
X128857142Y-88728571D02*
X128857142Y-89261904D01*
X128857142Y-88804761D02*
X128895238Y-88766666D01*
X128971428Y-88728571D01*
X129085714Y-88728571D01*
X129161904Y-88766666D01*
X129200000Y-88842857D01*
X129200000Y-89261904D01*
X129542857Y-88538095D02*
X129580952Y-88500000D01*
X129657142Y-88461904D01*
X129847619Y-88461904D01*
X129923809Y-88500000D01*
X129961904Y-88538095D01*
X130000000Y-88614285D01*
X130000000Y-88690476D01*
X129961904Y-88804761D01*
X129504761Y-89261904D01*
X130000000Y-89261904D01*
D11*
X126357142Y-78772380D02*
X125880952Y-78772380D01*
X125880952Y-77772380D01*
X126690476Y-78248571D02*
X127023809Y-78248571D01*
X127166666Y-78772380D02*
X126690476Y-78772380D01*
X126690476Y-77772380D01*
X127166666Y-77772380D01*
X127595238Y-78772380D02*
X127595238Y-77772380D01*
X127833333Y-77772380D01*
X127976190Y-77820000D01*
X128071428Y-77915238D01*
X128119047Y-78010476D01*
X128166666Y-78200952D01*
X128166666Y-78343809D01*
X128119047Y-78534285D01*
X128071428Y-78629523D01*
X127976190Y-78724761D01*
X127833333Y-78772380D01*
X127595238Y-78772380D01*
D12*
X123600000Y-81603809D02*
X123714285Y-81641904D01*
X123904761Y-81641904D01*
X123980952Y-81603809D01*
X124019047Y-81565714D01*
X124057142Y-81489523D01*
X124057142Y-81413333D01*
X124019047Y-81337142D01*
X123980952Y-81299047D01*
X123904761Y-81260952D01*
X123752380Y-81222857D01*
X123676190Y-81184761D01*
X123638095Y-81146666D01*
X123600000Y-81070476D01*
X123600000Y-80994285D01*
X123638095Y-80918095D01*
X123676190Y-80880000D01*
X123752380Y-80841904D01*
X123942857Y-80841904D01*
X124057142Y-80880000D01*
X124400000Y-81641904D02*
X124400000Y-81108571D01*
X124400000Y-80841904D02*
X124361904Y-80880000D01*
X124400000Y-80918095D01*
X124438095Y-80880000D01*
X124400000Y-80841904D01*
X124400000Y-80918095D01*
X125123809Y-81641904D02*
X125123809Y-80841904D01*
X125123809Y-81603809D02*
X125047619Y-81641904D01*
X124895238Y-81641904D01*
X124819047Y-81603809D01*
X124780952Y-81565714D01*
X124742857Y-81489523D01*
X124742857Y-81260952D01*
X124780952Y-81184761D01*
X124819047Y-81146666D01*
X124895238Y-81108571D01*
X125047619Y-81108571D01*
X125123809Y-81146666D01*
X125809523Y-81603809D02*
X125733333Y-81641904D01*
X125580952Y-81641904D01*
X125504761Y-81603809D01*
X125466666Y-81527619D01*
X125466666Y-81222857D01*
X125504761Y-81146666D01*
X125580952Y-81108571D01*
X125733333Y-81108571D01*
X125809523Y-81146666D01*
X125847619Y-81222857D01*
X125847619Y-81299047D01*
X125466666Y-81375238D01*
X126609523Y-80880000D02*
X126533333Y-80841904D01*
X126419047Y-80841904D01*
X126304761Y-80880000D01*
X126228571Y-80956190D01*
X126190476Y-81032380D01*
X126152380Y-81184761D01*
X126152380Y-81299047D01*
X126190476Y-81451428D01*
X126228571Y-81527619D01*
X126304761Y-81603809D01*
X126419047Y-81641904D01*
X126495238Y-81641904D01*
X126609523Y-81603809D01*
X126647619Y-81565714D01*
X126647619Y-81299047D01*
X126495238Y-81299047D01*
X126990476Y-81641904D02*
X126990476Y-81108571D01*
X126990476Y-81260952D02*
X127028571Y-81184761D01*
X127066666Y-81146666D01*
X127142857Y-81108571D01*
X127219047Y-81108571D01*
X127790476Y-81603809D02*
X127714285Y-81641904D01*
X127561904Y-81641904D01*
X127485714Y-81603809D01*
X127447619Y-81527619D01*
X127447619Y-81222857D01*
X127485714Y-81146666D01*
X127561904Y-81108571D01*
X127714285Y-81108571D01*
X127790476Y-81146666D01*
X127828571Y-81222857D01*
X127828571Y-81299047D01*
X127447619Y-81375238D01*
X128476190Y-81603809D02*
X128400000Y-81641904D01*
X128247619Y-81641904D01*
X128171428Y-81603809D01*
X128133333Y-81527619D01*
X128133333Y-81222857D01*
X128171428Y-81146666D01*
X128247619Y-81108571D01*
X128400000Y-81108571D01*
X128476190Y-81146666D01*
X128514285Y-81222857D01*
X128514285Y-81299047D01*
X128133333Y-81375238D01*
X128857142Y-81108571D02*
X128857142Y-81641904D01*
X128857142Y-81184761D02*
X128895238Y-81146666D01*
X128971428Y-81108571D01*
X129085714Y-81108571D01*
X129161904Y-81146666D01*
X129200000Y-81222857D01*
X129200000Y-81641904D01*
X130000000Y-81641904D02*
X129542857Y-81641904D01*
X129771428Y-81641904D02*
X129771428Y-80841904D01*
X129695238Y-80956190D01*
X129619047Y-81032380D01*
X129542857Y-81070476D01*
D11*
X153027142Y-106282380D02*
X152550952Y-106282380D01*
X152550952Y-105282380D01*
X153360476Y-105758571D02*
X153693809Y-105758571D01*
X153836666Y-106282380D02*
X153360476Y-106282380D01*
X153360476Y-105282380D01*
X153836666Y-105282380D01*
X154265238Y-106282380D02*
X154265238Y-105282380D01*
X154503333Y-105282380D01*
X154646190Y-105330000D01*
X154741428Y-105425238D01*
X154789047Y-105520476D01*
X154836666Y-105710952D01*
X154836666Y-105853809D01*
X154789047Y-106044285D01*
X154741428Y-106139523D01*
X154646190Y-106234761D01*
X154503333Y-106282380D01*
X154265238Y-106282380D01*
D12*
X152231904Y-103231904D02*
X151965238Y-102850952D01*
X151774761Y-103231904D02*
X151774761Y-102431904D01*
X152079523Y-102431904D01*
X152155714Y-102470000D01*
X152193809Y-102508095D01*
X152231904Y-102584285D01*
X152231904Y-102698571D01*
X152193809Y-102774761D01*
X152155714Y-102812857D01*
X152079523Y-102850952D01*
X151774761Y-102850952D01*
X152879523Y-103193809D02*
X152803333Y-103231904D01*
X152650952Y-103231904D01*
X152574761Y-103193809D01*
X152536666Y-103117619D01*
X152536666Y-102812857D01*
X152574761Y-102736666D01*
X152650952Y-102698571D01*
X152803333Y-102698571D01*
X152879523Y-102736666D01*
X152917619Y-102812857D01*
X152917619Y-102889047D01*
X152536666Y-102965238D01*
X153603333Y-103231904D02*
X153603333Y-102431904D01*
X153603333Y-103193809D02*
X153527142Y-103231904D01*
X153374761Y-103231904D01*
X153298571Y-103193809D01*
X153260476Y-103155714D01*
X153222380Y-103079523D01*
X153222380Y-102850952D01*
X153260476Y-102774761D01*
X153298571Y-102736666D01*
X153374761Y-102698571D01*
X153527142Y-102698571D01*
X153603333Y-102736666D01*
X153946190Y-103193809D02*
X154060476Y-103231904D01*
X154250952Y-103231904D01*
X154327142Y-103193809D01*
X154365238Y-103155714D01*
X154403333Y-103079523D01*
X154403333Y-103003333D01*
X154365238Y-102927142D01*
X154327142Y-102889047D01*
X154250952Y-102850952D01*
X154098571Y-102812857D01*
X154022380Y-102774761D01*
X153984285Y-102736666D01*
X153946190Y-102660476D01*
X153946190Y-102584285D01*
X153984285Y-102508095D01*
X154022380Y-102470000D01*
X154098571Y-102431904D01*
X154289047Y-102431904D01*
X154403333Y-102470000D01*
X154746190Y-103231904D02*
X154746190Y-102431904D01*
X155203333Y-103231904D01*
X155203333Y-102431904D01*
X155546190Y-102508095D02*
X155584285Y-102470000D01*
X155660476Y-102431904D01*
X155850952Y-102431904D01*
X155927142Y-102470000D01*
X155965238Y-102508095D01*
X156003333Y-102584285D01*
X156003333Y-102660476D01*
X155965238Y-102774761D01*
X155508095Y-103231904D01*
X156003333Y-103231904D01*
D11*
X153027142Y-98662380D02*
X152550952Y-98662380D01*
X152550952Y-97662380D01*
X153360476Y-98138571D02*
X153693809Y-98138571D01*
X153836666Y-98662380D02*
X153360476Y-98662380D01*
X153360476Y-97662380D01*
X153836666Y-97662380D01*
X154265238Y-98662380D02*
X154265238Y-97662380D01*
X154503333Y-97662380D01*
X154646190Y-97710000D01*
X154741428Y-97805238D01*
X154789047Y-97900476D01*
X154836666Y-98090952D01*
X154836666Y-98233809D01*
X154789047Y-98424285D01*
X154741428Y-98519523D01*
X154646190Y-98614761D01*
X154503333Y-98662380D01*
X154265238Y-98662380D01*
D12*
X152231904Y-95611904D02*
X151965238Y-95230952D01*
X151774761Y-95611904D02*
X151774761Y-94811904D01*
X152079523Y-94811904D01*
X152155714Y-94850000D01*
X152193809Y-94888095D01*
X152231904Y-94964285D01*
X152231904Y-95078571D01*
X152193809Y-95154761D01*
X152155714Y-95192857D01*
X152079523Y-95230952D01*
X151774761Y-95230952D01*
X152879523Y-95573809D02*
X152803333Y-95611904D01*
X152650952Y-95611904D01*
X152574761Y-95573809D01*
X152536666Y-95497619D01*
X152536666Y-95192857D01*
X152574761Y-95116666D01*
X152650952Y-95078571D01*
X152803333Y-95078571D01*
X152879523Y-95116666D01*
X152917619Y-95192857D01*
X152917619Y-95269047D01*
X152536666Y-95345238D01*
X153603333Y-95611904D02*
X153603333Y-94811904D01*
X153603333Y-95573809D02*
X153527142Y-95611904D01*
X153374761Y-95611904D01*
X153298571Y-95573809D01*
X153260476Y-95535714D01*
X153222380Y-95459523D01*
X153222380Y-95230952D01*
X153260476Y-95154761D01*
X153298571Y-95116666D01*
X153374761Y-95078571D01*
X153527142Y-95078571D01*
X153603333Y-95116666D01*
X153946190Y-95573809D02*
X154060476Y-95611904D01*
X154250952Y-95611904D01*
X154327142Y-95573809D01*
X154365238Y-95535714D01*
X154403333Y-95459523D01*
X154403333Y-95383333D01*
X154365238Y-95307142D01*
X154327142Y-95269047D01*
X154250952Y-95230952D01*
X154098571Y-95192857D01*
X154022380Y-95154761D01*
X153984285Y-95116666D01*
X153946190Y-95040476D01*
X153946190Y-94964285D01*
X153984285Y-94888095D01*
X154022380Y-94850000D01*
X154098571Y-94811904D01*
X154289047Y-94811904D01*
X154403333Y-94850000D01*
X154746190Y-95611904D02*
X154746190Y-94811904D01*
X155203333Y-95611904D01*
X155203333Y-94811904D01*
X156003333Y-95611904D02*
X155546190Y-95611904D01*
X155774761Y-95611904D02*
X155774761Y-94811904D01*
X155698571Y-94926190D01*
X155622380Y-95002380D01*
X155546190Y-95040476D01*
D11*
X153027142Y-91042380D02*
X152550952Y-91042380D01*
X152550952Y-90042380D01*
X153360476Y-90518571D02*
X153693809Y-90518571D01*
X153836666Y-91042380D02*
X153360476Y-91042380D01*
X153360476Y-90042380D01*
X153836666Y-90042380D01*
X154265238Y-91042380D02*
X154265238Y-90042380D01*
X154503333Y-90042380D01*
X154646190Y-90090000D01*
X154741428Y-90185238D01*
X154789047Y-90280476D01*
X154836666Y-90470952D01*
X154836666Y-90613809D01*
X154789047Y-90804285D01*
X154741428Y-90899523D01*
X154646190Y-90994761D01*
X154503333Y-91042380D01*
X154265238Y-91042380D01*
D12*
X152212857Y-87991904D02*
X151946190Y-87610952D01*
X151755714Y-87991904D02*
X151755714Y-87191904D01*
X152060476Y-87191904D01*
X152136666Y-87230000D01*
X152174761Y-87268095D01*
X152212857Y-87344285D01*
X152212857Y-87458571D01*
X152174761Y-87534761D01*
X152136666Y-87572857D01*
X152060476Y-87610952D01*
X151755714Y-87610952D01*
X152860476Y-87953809D02*
X152784285Y-87991904D01*
X152631904Y-87991904D01*
X152555714Y-87953809D01*
X152517619Y-87877619D01*
X152517619Y-87572857D01*
X152555714Y-87496666D01*
X152631904Y-87458571D01*
X152784285Y-87458571D01*
X152860476Y-87496666D01*
X152898571Y-87572857D01*
X152898571Y-87649047D01*
X152517619Y-87725238D01*
X153584285Y-87991904D02*
X153584285Y-87191904D01*
X153584285Y-87953809D02*
X153508095Y-87991904D01*
X153355714Y-87991904D01*
X153279523Y-87953809D01*
X153241428Y-87915714D01*
X153203333Y-87839523D01*
X153203333Y-87610952D01*
X153241428Y-87534761D01*
X153279523Y-87496666D01*
X153355714Y-87458571D01*
X153508095Y-87458571D01*
X153584285Y-87496666D01*
X153965238Y-87572857D02*
X154231904Y-87572857D01*
X154346190Y-87991904D02*
X153965238Y-87991904D01*
X153965238Y-87191904D01*
X154346190Y-87191904D01*
X154612857Y-87191904D02*
X154803333Y-87991904D01*
X154955714Y-87420476D01*
X155108095Y-87991904D01*
X155298571Y-87191904D01*
X155565238Y-87268095D02*
X155603333Y-87230000D01*
X155679523Y-87191904D01*
X155870000Y-87191904D01*
X155946190Y-87230000D01*
X155984285Y-87268095D01*
X156022380Y-87344285D01*
X156022380Y-87420476D01*
X155984285Y-87534761D01*
X155527142Y-87991904D01*
X156022380Y-87991904D01*
D11*
X153027142Y-83422380D02*
X152550952Y-83422380D01*
X152550952Y-82422380D01*
X153360476Y-82898571D02*
X153693809Y-82898571D01*
X153836666Y-83422380D02*
X153360476Y-83422380D01*
X153360476Y-82422380D01*
X153836666Y-82422380D01*
X154265238Y-83422380D02*
X154265238Y-82422380D01*
X154503333Y-82422380D01*
X154646190Y-82470000D01*
X154741428Y-82565238D01*
X154789047Y-82660476D01*
X154836666Y-82850952D01*
X154836666Y-82993809D01*
X154789047Y-83184285D01*
X154741428Y-83279523D01*
X154646190Y-83374761D01*
X154503333Y-83422380D01*
X154265238Y-83422380D01*
D12*
X152212857Y-80371904D02*
X151946190Y-79990952D01*
X151755714Y-80371904D02*
X151755714Y-79571904D01*
X152060476Y-79571904D01*
X152136666Y-79610000D01*
X152174761Y-79648095D01*
X152212857Y-79724285D01*
X152212857Y-79838571D01*
X152174761Y-79914761D01*
X152136666Y-79952857D01*
X152060476Y-79990952D01*
X151755714Y-79990952D01*
X152860476Y-80333809D02*
X152784285Y-80371904D01*
X152631904Y-80371904D01*
X152555714Y-80333809D01*
X152517619Y-80257619D01*
X152517619Y-79952857D01*
X152555714Y-79876666D01*
X152631904Y-79838571D01*
X152784285Y-79838571D01*
X152860476Y-79876666D01*
X152898571Y-79952857D01*
X152898571Y-80029047D01*
X152517619Y-80105238D01*
X153584285Y-80371904D02*
X153584285Y-79571904D01*
X153584285Y-80333809D02*
X153508095Y-80371904D01*
X153355714Y-80371904D01*
X153279523Y-80333809D01*
X153241428Y-80295714D01*
X153203333Y-80219523D01*
X153203333Y-79990952D01*
X153241428Y-79914761D01*
X153279523Y-79876666D01*
X153355714Y-79838571D01*
X153508095Y-79838571D01*
X153584285Y-79876666D01*
X153965238Y-79952857D02*
X154231904Y-79952857D01*
X154346190Y-80371904D02*
X153965238Y-80371904D01*
X153965238Y-79571904D01*
X154346190Y-79571904D01*
X154612857Y-79571904D02*
X154803333Y-80371904D01*
X154955714Y-79800476D01*
X155108095Y-80371904D01*
X155298571Y-79571904D01*
X156022380Y-80371904D02*
X155565238Y-80371904D01*
X155793809Y-80371904D02*
X155793809Y-79571904D01*
X155717619Y-79686190D01*
X155641428Y-79762380D01*
X155565238Y-79800476D01*
D11*
X114903333Y-62502380D02*
X114331904Y-62502380D01*
X114617619Y-62502380D02*
X114617619Y-61502380D01*
X114522380Y-61645238D01*
X114427142Y-61740476D01*
X114331904Y-61788095D01*
X115522380Y-61502380D02*
X115617619Y-61502380D01*
X115712857Y-61550000D01*
X115760476Y-61597619D01*
X115808095Y-61692857D01*
X115855714Y-61883333D01*
X115855714Y-62121428D01*
X115808095Y-62311904D01*
X115760476Y-62407142D01*
X115712857Y-62454761D01*
X115617619Y-62502380D01*
X115522380Y-62502380D01*
X115427142Y-62454761D01*
X115379523Y-62407142D01*
X115331904Y-62311904D01*
X115284285Y-62121428D01*
X115284285Y-61883333D01*
X115331904Y-61692857D01*
X115379523Y-61597619D01*
X115427142Y-61550000D01*
X115522380Y-61502380D01*
X116474761Y-61502380D02*
X116570000Y-61502380D01*
X116665238Y-61550000D01*
X116712857Y-61597619D01*
X116760476Y-61692857D01*
X116808095Y-61883333D01*
X116808095Y-62121428D01*
X116760476Y-62311904D01*
X116712857Y-62407142D01*
X116665238Y-62454761D01*
X116570000Y-62502380D01*
X116474761Y-62502380D01*
X116379523Y-62454761D01*
X116331904Y-62407142D01*
X116284285Y-62311904D01*
X116236666Y-62121428D01*
X116236666Y-61883333D01*
X116284285Y-61692857D01*
X116331904Y-61597619D01*
X116379523Y-61550000D01*
X116474761Y-61502380D01*
X114927142Y-65222380D02*
X114593809Y-64746190D01*
X114355714Y-65222380D02*
X114355714Y-64222380D01*
X114736666Y-64222380D01*
X114831904Y-64270000D01*
X114879523Y-64317619D01*
X114927142Y-64412857D01*
X114927142Y-64555714D01*
X114879523Y-64650952D01*
X114831904Y-64698571D01*
X114736666Y-64746190D01*
X114355714Y-64746190D01*
X115308095Y-64317619D02*
X115355714Y-64270000D01*
X115450952Y-64222380D01*
X115689047Y-64222380D01*
X115784285Y-64270000D01*
X115831904Y-64317619D01*
X115879523Y-64412857D01*
X115879523Y-64508095D01*
X115831904Y-64650952D01*
X115260476Y-65222380D01*
X115879523Y-65222380D01*
X116498571Y-64222380D02*
X116593809Y-64222380D01*
X116689047Y-64270000D01*
X116736666Y-64317619D01*
X116784285Y-64412857D01*
X116831904Y-64603333D01*
X116831904Y-64841428D01*
X116784285Y-65031904D01*
X116736666Y-65127142D01*
X116689047Y-65174761D01*
X116593809Y-65222380D01*
X116498571Y-65222380D01*
X116403333Y-65174761D01*
X116355714Y-65127142D01*
X116308095Y-65031904D01*
X116260476Y-64841428D01*
X116260476Y-64603333D01*
X116308095Y-64412857D01*
X116355714Y-64317619D01*
X116403333Y-64270000D01*
X116498571Y-64222380D01*
X114903333Y-54882380D02*
X114331904Y-54882380D01*
X114617619Y-54882380D02*
X114617619Y-53882380D01*
X114522380Y-54025238D01*
X114427142Y-54120476D01*
X114331904Y-54168095D01*
X115522380Y-53882380D02*
X115617619Y-53882380D01*
X115712857Y-53930000D01*
X115760476Y-53977619D01*
X115808095Y-54072857D01*
X115855714Y-54263333D01*
X115855714Y-54501428D01*
X115808095Y-54691904D01*
X115760476Y-54787142D01*
X115712857Y-54834761D01*
X115617619Y-54882380D01*
X115522380Y-54882380D01*
X115427142Y-54834761D01*
X115379523Y-54787142D01*
X115331904Y-54691904D01*
X115284285Y-54501428D01*
X115284285Y-54263333D01*
X115331904Y-54072857D01*
X115379523Y-53977619D01*
X115427142Y-53930000D01*
X115522380Y-53882380D01*
X116474761Y-53882380D02*
X116570000Y-53882380D01*
X116665238Y-53930000D01*
X116712857Y-53977619D01*
X116760476Y-54072857D01*
X116808095Y-54263333D01*
X116808095Y-54501428D01*
X116760476Y-54691904D01*
X116712857Y-54787142D01*
X116665238Y-54834761D01*
X116570000Y-54882380D01*
X116474761Y-54882380D01*
X116379523Y-54834761D01*
X116331904Y-54787142D01*
X116284285Y-54691904D01*
X116236666Y-54501428D01*
X116236666Y-54263333D01*
X116284285Y-54072857D01*
X116331904Y-53977619D01*
X116379523Y-53930000D01*
X116474761Y-53882380D01*
X114927142Y-57602380D02*
X114593809Y-57126190D01*
X114355714Y-57602380D02*
X114355714Y-56602380D01*
X114736666Y-56602380D01*
X114831904Y-56650000D01*
X114879523Y-56697619D01*
X114927142Y-56792857D01*
X114927142Y-56935714D01*
X114879523Y-57030952D01*
X114831904Y-57078571D01*
X114736666Y-57126190D01*
X114355714Y-57126190D01*
X115879523Y-57602380D02*
X115308095Y-57602380D01*
X115593809Y-57602380D02*
X115593809Y-56602380D01*
X115498571Y-56745238D01*
X115403333Y-56840476D01*
X115308095Y-56888095D01*
X116355714Y-57602380D02*
X116546190Y-57602380D01*
X116641428Y-57554761D01*
X116689047Y-57507142D01*
X116784285Y-57364285D01*
X116831904Y-57173809D01*
X116831904Y-56792857D01*
X116784285Y-56697619D01*
X116736666Y-56650000D01*
X116641428Y-56602380D01*
X116450952Y-56602380D01*
X116355714Y-56650000D01*
X116308095Y-56697619D01*
X116260476Y-56792857D01*
X116260476Y-57030952D01*
X116308095Y-57126190D01*
X116355714Y-57173809D01*
X116450952Y-57221428D01*
X116641428Y-57221428D01*
X116736666Y-57173809D01*
X116784285Y-57126190D01*
X116831904Y-57030952D01*
X165703333Y-47262380D02*
X165131904Y-47262380D01*
X165417619Y-47262380D02*
X165417619Y-46262380D01*
X165322380Y-46405238D01*
X165227142Y-46500476D01*
X165131904Y-46548095D01*
X166322380Y-46262380D02*
X166417619Y-46262380D01*
X166512857Y-46310000D01*
X166560476Y-46357619D01*
X166608095Y-46452857D01*
X166655714Y-46643333D01*
X166655714Y-46881428D01*
X166608095Y-47071904D01*
X166560476Y-47167142D01*
X166512857Y-47214761D01*
X166417619Y-47262380D01*
X166322380Y-47262380D01*
X166227142Y-47214761D01*
X166179523Y-47167142D01*
X166131904Y-47071904D01*
X166084285Y-46881428D01*
X166084285Y-46643333D01*
X166131904Y-46452857D01*
X166179523Y-46357619D01*
X166227142Y-46310000D01*
X166322380Y-46262380D01*
X167274761Y-46262380D02*
X167370000Y-46262380D01*
X167465238Y-46310000D01*
X167512857Y-46357619D01*
X167560476Y-46452857D01*
X167608095Y-46643333D01*
X167608095Y-46881428D01*
X167560476Y-47071904D01*
X167512857Y-47167142D01*
X167465238Y-47214761D01*
X167370000Y-47262380D01*
X167274761Y-47262380D01*
X167179523Y-47214761D01*
X167131904Y-47167142D01*
X167084285Y-47071904D01*
X167036666Y-46881428D01*
X167036666Y-46643333D01*
X167084285Y-46452857D01*
X167131904Y-46357619D01*
X167179523Y-46310000D01*
X167274761Y-46262380D01*
X165727142Y-49982380D02*
X165393809Y-49506190D01*
X165155714Y-49982380D02*
X165155714Y-48982380D01*
X165536666Y-48982380D01*
X165631904Y-49030000D01*
X165679523Y-49077619D01*
X165727142Y-49172857D01*
X165727142Y-49315714D01*
X165679523Y-49410952D01*
X165631904Y-49458571D01*
X165536666Y-49506190D01*
X165155714Y-49506190D01*
X166679523Y-49982380D02*
X166108095Y-49982380D01*
X166393809Y-49982380D02*
X166393809Y-48982380D01*
X166298571Y-49125238D01*
X166203333Y-49220476D01*
X166108095Y-49268095D01*
X167250952Y-49410952D02*
X167155714Y-49363333D01*
X167108095Y-49315714D01*
X167060476Y-49220476D01*
X167060476Y-49172857D01*
X167108095Y-49077619D01*
X167155714Y-49030000D01*
X167250952Y-48982380D01*
X167441428Y-48982380D01*
X167536666Y-49030000D01*
X167584285Y-49077619D01*
X167631904Y-49172857D01*
X167631904Y-49220476D01*
X167584285Y-49315714D01*
X167536666Y-49363333D01*
X167441428Y-49410952D01*
X167250952Y-49410952D01*
X167155714Y-49458571D01*
X167108095Y-49506190D01*
X167060476Y-49601428D01*
X167060476Y-49791904D01*
X167108095Y-49887142D01*
X167155714Y-49934761D01*
X167250952Y-49982380D01*
X167441428Y-49982380D01*
X167536666Y-49934761D01*
X167584285Y-49887142D01*
X167631904Y-49791904D01*
X167631904Y-49601428D01*
X167584285Y-49506190D01*
X167536666Y-49458571D01*
X167441428Y-49410952D01*
X165703333Y-54882380D02*
X165131904Y-54882380D01*
X165417619Y-54882380D02*
X165417619Y-53882380D01*
X165322380Y-54025238D01*
X165227142Y-54120476D01*
X165131904Y-54168095D01*
X166322380Y-53882380D02*
X166417619Y-53882380D01*
X166512857Y-53930000D01*
X166560476Y-53977619D01*
X166608095Y-54072857D01*
X166655714Y-54263333D01*
X166655714Y-54501428D01*
X166608095Y-54691904D01*
X166560476Y-54787142D01*
X166512857Y-54834761D01*
X166417619Y-54882380D01*
X166322380Y-54882380D01*
X166227142Y-54834761D01*
X166179523Y-54787142D01*
X166131904Y-54691904D01*
X166084285Y-54501428D01*
X166084285Y-54263333D01*
X166131904Y-54072857D01*
X166179523Y-53977619D01*
X166227142Y-53930000D01*
X166322380Y-53882380D01*
X167274761Y-53882380D02*
X167370000Y-53882380D01*
X167465238Y-53930000D01*
X167512857Y-53977619D01*
X167560476Y-54072857D01*
X167608095Y-54263333D01*
X167608095Y-54501428D01*
X167560476Y-54691904D01*
X167512857Y-54787142D01*
X167465238Y-54834761D01*
X167370000Y-54882380D01*
X167274761Y-54882380D01*
X167179523Y-54834761D01*
X167131904Y-54787142D01*
X167084285Y-54691904D01*
X167036666Y-54501428D01*
X167036666Y-54263333D01*
X167084285Y-54072857D01*
X167131904Y-53977619D01*
X167179523Y-53930000D01*
X167274761Y-53882380D01*
X165727142Y-57602380D02*
X165393809Y-57126190D01*
X165155714Y-57602380D02*
X165155714Y-56602380D01*
X165536666Y-56602380D01*
X165631904Y-56650000D01*
X165679523Y-56697619D01*
X165727142Y-56792857D01*
X165727142Y-56935714D01*
X165679523Y-57030952D01*
X165631904Y-57078571D01*
X165536666Y-57126190D01*
X165155714Y-57126190D01*
X166679523Y-57602380D02*
X166108095Y-57602380D01*
X166393809Y-57602380D02*
X166393809Y-56602380D01*
X166298571Y-56745238D01*
X166203333Y-56840476D01*
X166108095Y-56888095D01*
X167012857Y-56602380D02*
X167679523Y-56602380D01*
X167250952Y-57602380D01*
X140303333Y-103142380D02*
X139731904Y-103142380D01*
X140017619Y-103142380D02*
X140017619Y-102142380D01*
X139922380Y-102285238D01*
X139827142Y-102380476D01*
X139731904Y-102428095D01*
X140922380Y-102142380D02*
X141017619Y-102142380D01*
X141112857Y-102190000D01*
X141160476Y-102237619D01*
X141208095Y-102332857D01*
X141255714Y-102523333D01*
X141255714Y-102761428D01*
X141208095Y-102951904D01*
X141160476Y-103047142D01*
X141112857Y-103094761D01*
X141017619Y-103142380D01*
X140922380Y-103142380D01*
X140827142Y-103094761D01*
X140779523Y-103047142D01*
X140731904Y-102951904D01*
X140684285Y-102761428D01*
X140684285Y-102523333D01*
X140731904Y-102332857D01*
X140779523Y-102237619D01*
X140827142Y-102190000D01*
X140922380Y-102142380D01*
X141874761Y-102142380D02*
X141970000Y-102142380D01*
X142065238Y-102190000D01*
X142112857Y-102237619D01*
X142160476Y-102332857D01*
X142208095Y-102523333D01*
X142208095Y-102761428D01*
X142160476Y-102951904D01*
X142112857Y-103047142D01*
X142065238Y-103094761D01*
X141970000Y-103142380D01*
X141874761Y-103142380D01*
X141779523Y-103094761D01*
X141731904Y-103047142D01*
X141684285Y-102951904D01*
X141636666Y-102761428D01*
X141636666Y-102523333D01*
X141684285Y-102332857D01*
X141731904Y-102237619D01*
X141779523Y-102190000D01*
X141874761Y-102142380D01*
X140327142Y-105862380D02*
X139993809Y-105386190D01*
X139755714Y-105862380D02*
X139755714Y-104862380D01*
X140136666Y-104862380D01*
X140231904Y-104910000D01*
X140279523Y-104957619D01*
X140327142Y-105052857D01*
X140327142Y-105195714D01*
X140279523Y-105290952D01*
X140231904Y-105338571D01*
X140136666Y-105386190D01*
X139755714Y-105386190D01*
X141279523Y-105862380D02*
X140708095Y-105862380D01*
X140993809Y-105862380D02*
X140993809Y-104862380D01*
X140898571Y-105005238D01*
X140803333Y-105100476D01*
X140708095Y-105148095D01*
X142136666Y-104862380D02*
X141946190Y-104862380D01*
X141850952Y-104910000D01*
X141803333Y-104957619D01*
X141708095Y-105100476D01*
X141660476Y-105290952D01*
X141660476Y-105671904D01*
X141708095Y-105767142D01*
X141755714Y-105814761D01*
X141850952Y-105862380D01*
X142041428Y-105862380D01*
X142136666Y-105814761D01*
X142184285Y-105767142D01*
X142231904Y-105671904D01*
X142231904Y-105433809D01*
X142184285Y-105338571D01*
X142136666Y-105290952D01*
X142041428Y-105243333D01*
X141850952Y-105243333D01*
X141755714Y-105290952D01*
X141708095Y-105338571D01*
X141660476Y-105433809D01*
X140303333Y-95522380D02*
X139731904Y-95522380D01*
X140017619Y-95522380D02*
X140017619Y-94522380D01*
X139922380Y-94665238D01*
X139827142Y-94760476D01*
X139731904Y-94808095D01*
X140922380Y-94522380D02*
X141017619Y-94522380D01*
X141112857Y-94570000D01*
X141160476Y-94617619D01*
X141208095Y-94712857D01*
X141255714Y-94903333D01*
X141255714Y-95141428D01*
X141208095Y-95331904D01*
X141160476Y-95427142D01*
X141112857Y-95474761D01*
X141017619Y-95522380D01*
X140922380Y-95522380D01*
X140827142Y-95474761D01*
X140779523Y-95427142D01*
X140731904Y-95331904D01*
X140684285Y-95141428D01*
X140684285Y-94903333D01*
X140731904Y-94712857D01*
X140779523Y-94617619D01*
X140827142Y-94570000D01*
X140922380Y-94522380D01*
X141874761Y-94522380D02*
X141970000Y-94522380D01*
X142065238Y-94570000D01*
X142112857Y-94617619D01*
X142160476Y-94712857D01*
X142208095Y-94903333D01*
X142208095Y-95141428D01*
X142160476Y-95331904D01*
X142112857Y-95427142D01*
X142065238Y-95474761D01*
X141970000Y-95522380D01*
X141874761Y-95522380D01*
X141779523Y-95474761D01*
X141731904Y-95427142D01*
X141684285Y-95331904D01*
X141636666Y-95141428D01*
X141636666Y-94903333D01*
X141684285Y-94712857D01*
X141731904Y-94617619D01*
X141779523Y-94570000D01*
X141874761Y-94522380D01*
X140327142Y-98242380D02*
X139993809Y-97766190D01*
X139755714Y-98242380D02*
X139755714Y-97242380D01*
X140136666Y-97242380D01*
X140231904Y-97290000D01*
X140279523Y-97337619D01*
X140327142Y-97432857D01*
X140327142Y-97575714D01*
X140279523Y-97670952D01*
X140231904Y-97718571D01*
X140136666Y-97766190D01*
X139755714Y-97766190D01*
X141279523Y-98242380D02*
X140708095Y-98242380D01*
X140993809Y-98242380D02*
X140993809Y-97242380D01*
X140898571Y-97385238D01*
X140803333Y-97480476D01*
X140708095Y-97528095D01*
X142184285Y-97242380D02*
X141708095Y-97242380D01*
X141660476Y-97718571D01*
X141708095Y-97670952D01*
X141803333Y-97623333D01*
X142041428Y-97623333D01*
X142136666Y-97670952D01*
X142184285Y-97718571D01*
X142231904Y-97813809D01*
X142231904Y-98051904D01*
X142184285Y-98147142D01*
X142136666Y-98194761D01*
X142041428Y-98242380D01*
X141803333Y-98242380D01*
X141708095Y-98194761D01*
X141660476Y-98147142D01*
X140303333Y-87902380D02*
X139731904Y-87902380D01*
X140017619Y-87902380D02*
X140017619Y-86902380D01*
X139922380Y-87045238D01*
X139827142Y-87140476D01*
X139731904Y-87188095D01*
X140922380Y-86902380D02*
X141017619Y-86902380D01*
X141112857Y-86950000D01*
X141160476Y-86997619D01*
X141208095Y-87092857D01*
X141255714Y-87283333D01*
X141255714Y-87521428D01*
X141208095Y-87711904D01*
X141160476Y-87807142D01*
X141112857Y-87854761D01*
X141017619Y-87902380D01*
X140922380Y-87902380D01*
X140827142Y-87854761D01*
X140779523Y-87807142D01*
X140731904Y-87711904D01*
X140684285Y-87521428D01*
X140684285Y-87283333D01*
X140731904Y-87092857D01*
X140779523Y-86997619D01*
X140827142Y-86950000D01*
X140922380Y-86902380D01*
X141874761Y-86902380D02*
X141970000Y-86902380D01*
X142065238Y-86950000D01*
X142112857Y-86997619D01*
X142160476Y-87092857D01*
X142208095Y-87283333D01*
X142208095Y-87521428D01*
X142160476Y-87711904D01*
X142112857Y-87807142D01*
X142065238Y-87854761D01*
X141970000Y-87902380D01*
X141874761Y-87902380D01*
X141779523Y-87854761D01*
X141731904Y-87807142D01*
X141684285Y-87711904D01*
X141636666Y-87521428D01*
X141636666Y-87283333D01*
X141684285Y-87092857D01*
X141731904Y-86997619D01*
X141779523Y-86950000D01*
X141874761Y-86902380D01*
X140327142Y-90622380D02*
X139993809Y-90146190D01*
X139755714Y-90622380D02*
X139755714Y-89622380D01*
X140136666Y-89622380D01*
X140231904Y-89670000D01*
X140279523Y-89717619D01*
X140327142Y-89812857D01*
X140327142Y-89955714D01*
X140279523Y-90050952D01*
X140231904Y-90098571D01*
X140136666Y-90146190D01*
X139755714Y-90146190D01*
X141279523Y-90622380D02*
X140708095Y-90622380D01*
X140993809Y-90622380D02*
X140993809Y-89622380D01*
X140898571Y-89765238D01*
X140803333Y-89860476D01*
X140708095Y-89908095D01*
X142136666Y-89955714D02*
X142136666Y-90622380D01*
X141898571Y-89574761D02*
X141660476Y-90289047D01*
X142279523Y-90289047D01*
X140303333Y-80282380D02*
X139731904Y-80282380D01*
X140017619Y-80282380D02*
X140017619Y-79282380D01*
X139922380Y-79425238D01*
X139827142Y-79520476D01*
X139731904Y-79568095D01*
X140922380Y-79282380D02*
X141017619Y-79282380D01*
X141112857Y-79330000D01*
X141160476Y-79377619D01*
X141208095Y-79472857D01*
X141255714Y-79663333D01*
X141255714Y-79901428D01*
X141208095Y-80091904D01*
X141160476Y-80187142D01*
X141112857Y-80234761D01*
X141017619Y-80282380D01*
X140922380Y-80282380D01*
X140827142Y-80234761D01*
X140779523Y-80187142D01*
X140731904Y-80091904D01*
X140684285Y-79901428D01*
X140684285Y-79663333D01*
X140731904Y-79472857D01*
X140779523Y-79377619D01*
X140827142Y-79330000D01*
X140922380Y-79282380D01*
X141874761Y-79282380D02*
X141970000Y-79282380D01*
X142065238Y-79330000D01*
X142112857Y-79377619D01*
X142160476Y-79472857D01*
X142208095Y-79663333D01*
X142208095Y-79901428D01*
X142160476Y-80091904D01*
X142112857Y-80187142D01*
X142065238Y-80234761D01*
X141970000Y-80282380D01*
X141874761Y-80282380D01*
X141779523Y-80234761D01*
X141731904Y-80187142D01*
X141684285Y-80091904D01*
X141636666Y-79901428D01*
X141636666Y-79663333D01*
X141684285Y-79472857D01*
X141731904Y-79377619D01*
X141779523Y-79330000D01*
X141874761Y-79282380D01*
X140327142Y-83002380D02*
X139993809Y-82526190D01*
X139755714Y-83002380D02*
X139755714Y-82002380D01*
X140136666Y-82002380D01*
X140231904Y-82050000D01*
X140279523Y-82097619D01*
X140327142Y-82192857D01*
X140327142Y-82335714D01*
X140279523Y-82430952D01*
X140231904Y-82478571D01*
X140136666Y-82526190D01*
X139755714Y-82526190D01*
X141279523Y-83002380D02*
X140708095Y-83002380D01*
X140993809Y-83002380D02*
X140993809Y-82002380D01*
X140898571Y-82145238D01*
X140803333Y-82240476D01*
X140708095Y-82288095D01*
X141612857Y-82002380D02*
X142231904Y-82002380D01*
X141898571Y-82383333D01*
X142041428Y-82383333D01*
X142136666Y-82430952D01*
X142184285Y-82478571D01*
X142231904Y-82573809D01*
X142231904Y-82811904D01*
X142184285Y-82907142D01*
X142136666Y-82954761D01*
X142041428Y-83002380D01*
X141755714Y-83002380D01*
X141660476Y-82954761D01*
X141612857Y-82907142D01*
X140303333Y-72662380D02*
X139731904Y-72662380D01*
X140017619Y-72662380D02*
X140017619Y-71662380D01*
X139922380Y-71805238D01*
X139827142Y-71900476D01*
X139731904Y-71948095D01*
X140922380Y-71662380D02*
X141017619Y-71662380D01*
X141112857Y-71710000D01*
X141160476Y-71757619D01*
X141208095Y-71852857D01*
X141255714Y-72043333D01*
X141255714Y-72281428D01*
X141208095Y-72471904D01*
X141160476Y-72567142D01*
X141112857Y-72614761D01*
X141017619Y-72662380D01*
X140922380Y-72662380D01*
X140827142Y-72614761D01*
X140779523Y-72567142D01*
X140731904Y-72471904D01*
X140684285Y-72281428D01*
X140684285Y-72043333D01*
X140731904Y-71852857D01*
X140779523Y-71757619D01*
X140827142Y-71710000D01*
X140922380Y-71662380D01*
X141874761Y-71662380D02*
X141970000Y-71662380D01*
X142065238Y-71710000D01*
X142112857Y-71757619D01*
X142160476Y-71852857D01*
X142208095Y-72043333D01*
X142208095Y-72281428D01*
X142160476Y-72471904D01*
X142112857Y-72567142D01*
X142065238Y-72614761D01*
X141970000Y-72662380D01*
X141874761Y-72662380D01*
X141779523Y-72614761D01*
X141731904Y-72567142D01*
X141684285Y-72471904D01*
X141636666Y-72281428D01*
X141636666Y-72043333D01*
X141684285Y-71852857D01*
X141731904Y-71757619D01*
X141779523Y-71710000D01*
X141874761Y-71662380D01*
X140327142Y-75382380D02*
X139993809Y-74906190D01*
X139755714Y-75382380D02*
X139755714Y-74382380D01*
X140136666Y-74382380D01*
X140231904Y-74430000D01*
X140279523Y-74477619D01*
X140327142Y-74572857D01*
X140327142Y-74715714D01*
X140279523Y-74810952D01*
X140231904Y-74858571D01*
X140136666Y-74906190D01*
X139755714Y-74906190D01*
X141279523Y-75382380D02*
X140708095Y-75382380D01*
X140993809Y-75382380D02*
X140993809Y-74382380D01*
X140898571Y-74525238D01*
X140803333Y-74620476D01*
X140708095Y-74668095D01*
X141660476Y-74477619D02*
X141708095Y-74430000D01*
X141803333Y-74382380D01*
X142041428Y-74382380D01*
X142136666Y-74430000D01*
X142184285Y-74477619D01*
X142231904Y-74572857D01*
X142231904Y-74668095D01*
X142184285Y-74810952D01*
X141612857Y-75382380D01*
X142231904Y-75382380D01*
X140303333Y-65042380D02*
X139731904Y-65042380D01*
X140017619Y-65042380D02*
X140017619Y-64042380D01*
X139922380Y-64185238D01*
X139827142Y-64280476D01*
X139731904Y-64328095D01*
X140922380Y-64042380D02*
X141017619Y-64042380D01*
X141112857Y-64090000D01*
X141160476Y-64137619D01*
X141208095Y-64232857D01*
X141255714Y-64423333D01*
X141255714Y-64661428D01*
X141208095Y-64851904D01*
X141160476Y-64947142D01*
X141112857Y-64994761D01*
X141017619Y-65042380D01*
X140922380Y-65042380D01*
X140827142Y-64994761D01*
X140779523Y-64947142D01*
X140731904Y-64851904D01*
X140684285Y-64661428D01*
X140684285Y-64423333D01*
X140731904Y-64232857D01*
X140779523Y-64137619D01*
X140827142Y-64090000D01*
X140922380Y-64042380D01*
X141874761Y-64042380D02*
X141970000Y-64042380D01*
X142065238Y-64090000D01*
X142112857Y-64137619D01*
X142160476Y-64232857D01*
X142208095Y-64423333D01*
X142208095Y-64661428D01*
X142160476Y-64851904D01*
X142112857Y-64947142D01*
X142065238Y-64994761D01*
X141970000Y-65042380D01*
X141874761Y-65042380D01*
X141779523Y-64994761D01*
X141731904Y-64947142D01*
X141684285Y-64851904D01*
X141636666Y-64661428D01*
X141636666Y-64423333D01*
X141684285Y-64232857D01*
X141731904Y-64137619D01*
X141779523Y-64090000D01*
X141874761Y-64042380D01*
X140327142Y-67762380D02*
X139993809Y-67286190D01*
X139755714Y-67762380D02*
X139755714Y-66762380D01*
X140136666Y-66762380D01*
X140231904Y-66810000D01*
X140279523Y-66857619D01*
X140327142Y-66952857D01*
X140327142Y-67095714D01*
X140279523Y-67190952D01*
X140231904Y-67238571D01*
X140136666Y-67286190D01*
X139755714Y-67286190D01*
X141279523Y-67762380D02*
X140708095Y-67762380D01*
X140993809Y-67762380D02*
X140993809Y-66762380D01*
X140898571Y-66905238D01*
X140803333Y-67000476D01*
X140708095Y-67048095D01*
X142231904Y-67762380D02*
X141660476Y-67762380D01*
X141946190Y-67762380D02*
X141946190Y-66762380D01*
X141850952Y-66905238D01*
X141755714Y-67000476D01*
X141660476Y-67048095D01*
X140303333Y-57422380D02*
X139731904Y-57422380D01*
X140017619Y-57422380D02*
X140017619Y-56422380D01*
X139922380Y-56565238D01*
X139827142Y-56660476D01*
X139731904Y-56708095D01*
X140922380Y-56422380D02*
X141017619Y-56422380D01*
X141112857Y-56470000D01*
X141160476Y-56517619D01*
X141208095Y-56612857D01*
X141255714Y-56803333D01*
X141255714Y-57041428D01*
X141208095Y-57231904D01*
X141160476Y-57327142D01*
X141112857Y-57374761D01*
X141017619Y-57422380D01*
X140922380Y-57422380D01*
X140827142Y-57374761D01*
X140779523Y-57327142D01*
X140731904Y-57231904D01*
X140684285Y-57041428D01*
X140684285Y-56803333D01*
X140731904Y-56612857D01*
X140779523Y-56517619D01*
X140827142Y-56470000D01*
X140922380Y-56422380D01*
X141874761Y-56422380D02*
X141970000Y-56422380D01*
X142065238Y-56470000D01*
X142112857Y-56517619D01*
X142160476Y-56612857D01*
X142208095Y-56803333D01*
X142208095Y-57041428D01*
X142160476Y-57231904D01*
X142112857Y-57327142D01*
X142065238Y-57374761D01*
X141970000Y-57422380D01*
X141874761Y-57422380D01*
X141779523Y-57374761D01*
X141731904Y-57327142D01*
X141684285Y-57231904D01*
X141636666Y-57041428D01*
X141636666Y-56803333D01*
X141684285Y-56612857D01*
X141731904Y-56517619D01*
X141779523Y-56470000D01*
X141874761Y-56422380D01*
X140327142Y-60142380D02*
X139993809Y-59666190D01*
X139755714Y-60142380D02*
X139755714Y-59142380D01*
X140136666Y-59142380D01*
X140231904Y-59190000D01*
X140279523Y-59237619D01*
X140327142Y-59332857D01*
X140327142Y-59475714D01*
X140279523Y-59570952D01*
X140231904Y-59618571D01*
X140136666Y-59666190D01*
X139755714Y-59666190D01*
X141279523Y-60142380D02*
X140708095Y-60142380D01*
X140993809Y-60142380D02*
X140993809Y-59142380D01*
X140898571Y-59285238D01*
X140803333Y-59380476D01*
X140708095Y-59428095D01*
X141898571Y-59142380D02*
X141993809Y-59142380D01*
X142089047Y-59190000D01*
X142136666Y-59237619D01*
X142184285Y-59332857D01*
X142231904Y-59523333D01*
X142231904Y-59761428D01*
X142184285Y-59951904D01*
X142136666Y-60047142D01*
X142089047Y-60094761D01*
X141993809Y-60142380D01*
X141898571Y-60142380D01*
X141803333Y-60094761D01*
X141755714Y-60047142D01*
X141708095Y-59951904D01*
X141660476Y-59761428D01*
X141660476Y-59523333D01*
X141708095Y-59332857D01*
X141755714Y-59237619D01*
X141803333Y-59190000D01*
X141898571Y-59142380D01*
X140303333Y-49802380D02*
X139731904Y-49802380D01*
X140017619Y-49802380D02*
X140017619Y-48802380D01*
X139922380Y-48945238D01*
X139827142Y-49040476D01*
X139731904Y-49088095D01*
X140922380Y-48802380D02*
X141017619Y-48802380D01*
X141112857Y-48850000D01*
X141160476Y-48897619D01*
X141208095Y-48992857D01*
X141255714Y-49183333D01*
X141255714Y-49421428D01*
X141208095Y-49611904D01*
X141160476Y-49707142D01*
X141112857Y-49754761D01*
X141017619Y-49802380D01*
X140922380Y-49802380D01*
X140827142Y-49754761D01*
X140779523Y-49707142D01*
X140731904Y-49611904D01*
X140684285Y-49421428D01*
X140684285Y-49183333D01*
X140731904Y-48992857D01*
X140779523Y-48897619D01*
X140827142Y-48850000D01*
X140922380Y-48802380D01*
X141874761Y-48802380D02*
X141970000Y-48802380D01*
X142065238Y-48850000D01*
X142112857Y-48897619D01*
X142160476Y-48992857D01*
X142208095Y-49183333D01*
X142208095Y-49421428D01*
X142160476Y-49611904D01*
X142112857Y-49707142D01*
X142065238Y-49754761D01*
X141970000Y-49802380D01*
X141874761Y-49802380D01*
X141779523Y-49754761D01*
X141731904Y-49707142D01*
X141684285Y-49611904D01*
X141636666Y-49421428D01*
X141636666Y-49183333D01*
X141684285Y-48992857D01*
X141731904Y-48897619D01*
X141779523Y-48850000D01*
X141874761Y-48802380D01*
X140803333Y-52522380D02*
X140470000Y-52046190D01*
X140231904Y-52522380D02*
X140231904Y-51522380D01*
X140612857Y-51522380D01*
X140708095Y-51570000D01*
X140755714Y-51617619D01*
X140803333Y-51712857D01*
X140803333Y-51855714D01*
X140755714Y-51950952D01*
X140708095Y-51998571D01*
X140612857Y-52046190D01*
X140231904Y-52046190D01*
X141279523Y-52522380D02*
X141470000Y-52522380D01*
X141565238Y-52474761D01*
X141612857Y-52427142D01*
X141708095Y-52284285D01*
X141755714Y-52093809D01*
X141755714Y-51712857D01*
X141708095Y-51617619D01*
X141660476Y-51570000D01*
X141565238Y-51522380D01*
X141374761Y-51522380D01*
X141279523Y-51570000D01*
X141231904Y-51617619D01*
X141184285Y-51712857D01*
X141184285Y-51950952D01*
X141231904Y-52046190D01*
X141279523Y-52093809D01*
X141374761Y-52141428D01*
X141565238Y-52141428D01*
X141660476Y-52093809D01*
X141708095Y-52046190D01*
X141755714Y-51950952D01*
X165703333Y-114572380D02*
X165131904Y-114572380D01*
X165417619Y-114572380D02*
X165417619Y-113572380D01*
X165322380Y-113715238D01*
X165227142Y-113810476D01*
X165131904Y-113858095D01*
X166322380Y-113572380D02*
X166417619Y-113572380D01*
X166512857Y-113620000D01*
X166560476Y-113667619D01*
X166608095Y-113762857D01*
X166655714Y-113953333D01*
X166655714Y-114191428D01*
X166608095Y-114381904D01*
X166560476Y-114477142D01*
X166512857Y-114524761D01*
X166417619Y-114572380D01*
X166322380Y-114572380D01*
X166227142Y-114524761D01*
X166179523Y-114477142D01*
X166131904Y-114381904D01*
X166084285Y-114191428D01*
X166084285Y-113953333D01*
X166131904Y-113762857D01*
X166179523Y-113667619D01*
X166227142Y-113620000D01*
X166322380Y-113572380D01*
X167274761Y-113572380D02*
X167370000Y-113572380D01*
X167465238Y-113620000D01*
X167512857Y-113667619D01*
X167560476Y-113762857D01*
X167608095Y-113953333D01*
X167608095Y-114191428D01*
X167560476Y-114381904D01*
X167512857Y-114477142D01*
X167465238Y-114524761D01*
X167370000Y-114572380D01*
X167274761Y-114572380D01*
X167179523Y-114524761D01*
X167131904Y-114477142D01*
X167084285Y-114381904D01*
X167036666Y-114191428D01*
X167036666Y-113953333D01*
X167084285Y-113762857D01*
X167131904Y-113667619D01*
X167179523Y-113620000D01*
X167274761Y-113572380D01*
X166203333Y-117292380D02*
X165870000Y-116816190D01*
X165631904Y-117292380D02*
X165631904Y-116292380D01*
X166012857Y-116292380D01*
X166108095Y-116340000D01*
X166155714Y-116387619D01*
X166203333Y-116482857D01*
X166203333Y-116625714D01*
X166155714Y-116720952D01*
X166108095Y-116768571D01*
X166012857Y-116816190D01*
X165631904Y-116816190D01*
X166774761Y-116720952D02*
X166679523Y-116673333D01*
X166631904Y-116625714D01*
X166584285Y-116530476D01*
X166584285Y-116482857D01*
X166631904Y-116387619D01*
X166679523Y-116340000D01*
X166774761Y-116292380D01*
X166965238Y-116292380D01*
X167060476Y-116340000D01*
X167108095Y-116387619D01*
X167155714Y-116482857D01*
X167155714Y-116530476D01*
X167108095Y-116625714D01*
X167060476Y-116673333D01*
X166965238Y-116720952D01*
X166774761Y-116720952D01*
X166679523Y-116768571D01*
X166631904Y-116816190D01*
X166584285Y-116911428D01*
X166584285Y-117101904D01*
X166631904Y-117197142D01*
X166679523Y-117244761D01*
X166774761Y-117292380D01*
X166965238Y-117292380D01*
X167060476Y-117244761D01*
X167108095Y-117197142D01*
X167155714Y-117101904D01*
X167155714Y-116911428D01*
X167108095Y-116816190D01*
X167060476Y-116768571D01*
X166965238Y-116720952D01*
X165703333Y-108222380D02*
X165131904Y-108222380D01*
X165417619Y-108222380D02*
X165417619Y-107222380D01*
X165322380Y-107365238D01*
X165227142Y-107460476D01*
X165131904Y-107508095D01*
X166322380Y-107222380D02*
X166417619Y-107222380D01*
X166512857Y-107270000D01*
X166560476Y-107317619D01*
X166608095Y-107412857D01*
X166655714Y-107603333D01*
X166655714Y-107841428D01*
X166608095Y-108031904D01*
X166560476Y-108127142D01*
X166512857Y-108174761D01*
X166417619Y-108222380D01*
X166322380Y-108222380D01*
X166227142Y-108174761D01*
X166179523Y-108127142D01*
X166131904Y-108031904D01*
X166084285Y-107841428D01*
X166084285Y-107603333D01*
X166131904Y-107412857D01*
X166179523Y-107317619D01*
X166227142Y-107270000D01*
X166322380Y-107222380D01*
X167274761Y-107222380D02*
X167370000Y-107222380D01*
X167465238Y-107270000D01*
X167512857Y-107317619D01*
X167560476Y-107412857D01*
X167608095Y-107603333D01*
X167608095Y-107841428D01*
X167560476Y-108031904D01*
X167512857Y-108127142D01*
X167465238Y-108174761D01*
X167370000Y-108222380D01*
X167274761Y-108222380D01*
X167179523Y-108174761D01*
X167131904Y-108127142D01*
X167084285Y-108031904D01*
X167036666Y-107841428D01*
X167036666Y-107603333D01*
X167084285Y-107412857D01*
X167131904Y-107317619D01*
X167179523Y-107270000D01*
X167274761Y-107222380D01*
X166203333Y-110942380D02*
X165870000Y-110466190D01*
X165631904Y-110942380D02*
X165631904Y-109942380D01*
X166012857Y-109942380D01*
X166108095Y-109990000D01*
X166155714Y-110037619D01*
X166203333Y-110132857D01*
X166203333Y-110275714D01*
X166155714Y-110370952D01*
X166108095Y-110418571D01*
X166012857Y-110466190D01*
X165631904Y-110466190D01*
X166536666Y-109942380D02*
X167203333Y-109942380D01*
X166774761Y-110942380D01*
X140303333Y-117112380D02*
X139731904Y-117112380D01*
X140017619Y-117112380D02*
X140017619Y-116112380D01*
X139922380Y-116255238D01*
X139827142Y-116350476D01*
X139731904Y-116398095D01*
X140922380Y-116112380D02*
X141017619Y-116112380D01*
X141112857Y-116160000D01*
X141160476Y-116207619D01*
X141208095Y-116302857D01*
X141255714Y-116493333D01*
X141255714Y-116731428D01*
X141208095Y-116921904D01*
X141160476Y-117017142D01*
X141112857Y-117064761D01*
X141017619Y-117112380D01*
X140922380Y-117112380D01*
X140827142Y-117064761D01*
X140779523Y-117017142D01*
X140731904Y-116921904D01*
X140684285Y-116731428D01*
X140684285Y-116493333D01*
X140731904Y-116302857D01*
X140779523Y-116207619D01*
X140827142Y-116160000D01*
X140922380Y-116112380D01*
X141874761Y-116112380D02*
X141970000Y-116112380D01*
X142065238Y-116160000D01*
X142112857Y-116207619D01*
X142160476Y-116302857D01*
X142208095Y-116493333D01*
X142208095Y-116731428D01*
X142160476Y-116921904D01*
X142112857Y-117017142D01*
X142065238Y-117064761D01*
X141970000Y-117112380D01*
X141874761Y-117112380D01*
X141779523Y-117064761D01*
X141731904Y-117017142D01*
X141684285Y-116921904D01*
X141636666Y-116731428D01*
X141636666Y-116493333D01*
X141684285Y-116302857D01*
X141731904Y-116207619D01*
X141779523Y-116160000D01*
X141874761Y-116112380D01*
X140803333Y-119832380D02*
X140470000Y-119356190D01*
X140231904Y-119832380D02*
X140231904Y-118832380D01*
X140612857Y-118832380D01*
X140708095Y-118880000D01*
X140755714Y-118927619D01*
X140803333Y-119022857D01*
X140803333Y-119165714D01*
X140755714Y-119260952D01*
X140708095Y-119308571D01*
X140612857Y-119356190D01*
X140231904Y-119356190D01*
X141660476Y-118832380D02*
X141470000Y-118832380D01*
X141374761Y-118880000D01*
X141327142Y-118927619D01*
X141231904Y-119070476D01*
X141184285Y-119260952D01*
X141184285Y-119641904D01*
X141231904Y-119737142D01*
X141279523Y-119784761D01*
X141374761Y-119832380D01*
X141565238Y-119832380D01*
X141660476Y-119784761D01*
X141708095Y-119737142D01*
X141755714Y-119641904D01*
X141755714Y-119403809D01*
X141708095Y-119308571D01*
X141660476Y-119260952D01*
X141565238Y-119213333D01*
X141374761Y-119213333D01*
X141279523Y-119260952D01*
X141231904Y-119308571D01*
X141184285Y-119403809D01*
X140303333Y-110762380D02*
X139731904Y-110762380D01*
X140017619Y-110762380D02*
X140017619Y-109762380D01*
X139922380Y-109905238D01*
X139827142Y-110000476D01*
X139731904Y-110048095D01*
X140922380Y-109762380D02*
X141017619Y-109762380D01*
X141112857Y-109810000D01*
X141160476Y-109857619D01*
X141208095Y-109952857D01*
X141255714Y-110143333D01*
X141255714Y-110381428D01*
X141208095Y-110571904D01*
X141160476Y-110667142D01*
X141112857Y-110714761D01*
X141017619Y-110762380D01*
X140922380Y-110762380D01*
X140827142Y-110714761D01*
X140779523Y-110667142D01*
X140731904Y-110571904D01*
X140684285Y-110381428D01*
X140684285Y-110143333D01*
X140731904Y-109952857D01*
X140779523Y-109857619D01*
X140827142Y-109810000D01*
X140922380Y-109762380D01*
X141874761Y-109762380D02*
X141970000Y-109762380D01*
X142065238Y-109810000D01*
X142112857Y-109857619D01*
X142160476Y-109952857D01*
X142208095Y-110143333D01*
X142208095Y-110381428D01*
X142160476Y-110571904D01*
X142112857Y-110667142D01*
X142065238Y-110714761D01*
X141970000Y-110762380D01*
X141874761Y-110762380D01*
X141779523Y-110714761D01*
X141731904Y-110667142D01*
X141684285Y-110571904D01*
X141636666Y-110381428D01*
X141636666Y-110143333D01*
X141684285Y-109952857D01*
X141731904Y-109857619D01*
X141779523Y-109810000D01*
X141874761Y-109762380D01*
X140803333Y-113482380D02*
X140470000Y-113006190D01*
X140231904Y-113482380D02*
X140231904Y-112482380D01*
X140612857Y-112482380D01*
X140708095Y-112530000D01*
X140755714Y-112577619D01*
X140803333Y-112672857D01*
X140803333Y-112815714D01*
X140755714Y-112910952D01*
X140708095Y-112958571D01*
X140612857Y-113006190D01*
X140231904Y-113006190D01*
X141708095Y-112482380D02*
X141231904Y-112482380D01*
X141184285Y-112958571D01*
X141231904Y-112910952D01*
X141327142Y-112863333D01*
X141565238Y-112863333D01*
X141660476Y-112910952D01*
X141708095Y-112958571D01*
X141755714Y-113053809D01*
X141755714Y-113291904D01*
X141708095Y-113387142D01*
X141660476Y-113434761D01*
X141565238Y-113482380D01*
X141327142Y-113482380D01*
X141231904Y-113434761D01*
X141184285Y-113387142D01*
X165703333Y-100602380D02*
X165131904Y-100602380D01*
X165417619Y-100602380D02*
X165417619Y-99602380D01*
X165322380Y-99745238D01*
X165227142Y-99840476D01*
X165131904Y-99888095D01*
X166322380Y-99602380D02*
X166417619Y-99602380D01*
X166512857Y-99650000D01*
X166560476Y-99697619D01*
X166608095Y-99792857D01*
X166655714Y-99983333D01*
X166655714Y-100221428D01*
X166608095Y-100411904D01*
X166560476Y-100507142D01*
X166512857Y-100554761D01*
X166417619Y-100602380D01*
X166322380Y-100602380D01*
X166227142Y-100554761D01*
X166179523Y-100507142D01*
X166131904Y-100411904D01*
X166084285Y-100221428D01*
X166084285Y-99983333D01*
X166131904Y-99792857D01*
X166179523Y-99697619D01*
X166227142Y-99650000D01*
X166322380Y-99602380D01*
X167274761Y-99602380D02*
X167370000Y-99602380D01*
X167465238Y-99650000D01*
X167512857Y-99697619D01*
X167560476Y-99792857D01*
X167608095Y-99983333D01*
X167608095Y-100221428D01*
X167560476Y-100411904D01*
X167512857Y-100507142D01*
X167465238Y-100554761D01*
X167370000Y-100602380D01*
X167274761Y-100602380D01*
X167179523Y-100554761D01*
X167131904Y-100507142D01*
X167084285Y-100411904D01*
X167036666Y-100221428D01*
X167036666Y-99983333D01*
X167084285Y-99792857D01*
X167131904Y-99697619D01*
X167179523Y-99650000D01*
X167274761Y-99602380D01*
X166203333Y-103322380D02*
X165870000Y-102846190D01*
X165631904Y-103322380D02*
X165631904Y-102322380D01*
X166012857Y-102322380D01*
X166108095Y-102370000D01*
X166155714Y-102417619D01*
X166203333Y-102512857D01*
X166203333Y-102655714D01*
X166155714Y-102750952D01*
X166108095Y-102798571D01*
X166012857Y-102846190D01*
X165631904Y-102846190D01*
X167060476Y-102655714D02*
X167060476Y-103322380D01*
X166822380Y-102274761D02*
X166584285Y-102989047D01*
X167203333Y-102989047D01*
X165703333Y-92982380D02*
X165131904Y-92982380D01*
X165417619Y-92982380D02*
X165417619Y-91982380D01*
X165322380Y-92125238D01*
X165227142Y-92220476D01*
X165131904Y-92268095D01*
X166322380Y-91982380D02*
X166417619Y-91982380D01*
X166512857Y-92030000D01*
X166560476Y-92077619D01*
X166608095Y-92172857D01*
X166655714Y-92363333D01*
X166655714Y-92601428D01*
X166608095Y-92791904D01*
X166560476Y-92887142D01*
X166512857Y-92934761D01*
X166417619Y-92982380D01*
X166322380Y-92982380D01*
X166227142Y-92934761D01*
X166179523Y-92887142D01*
X166131904Y-92791904D01*
X166084285Y-92601428D01*
X166084285Y-92363333D01*
X166131904Y-92172857D01*
X166179523Y-92077619D01*
X166227142Y-92030000D01*
X166322380Y-91982380D01*
X167274761Y-91982380D02*
X167370000Y-91982380D01*
X167465238Y-92030000D01*
X167512857Y-92077619D01*
X167560476Y-92172857D01*
X167608095Y-92363333D01*
X167608095Y-92601428D01*
X167560476Y-92791904D01*
X167512857Y-92887142D01*
X167465238Y-92934761D01*
X167370000Y-92982380D01*
X167274761Y-92982380D01*
X167179523Y-92934761D01*
X167131904Y-92887142D01*
X167084285Y-92791904D01*
X167036666Y-92601428D01*
X167036666Y-92363333D01*
X167084285Y-92172857D01*
X167131904Y-92077619D01*
X167179523Y-92030000D01*
X167274761Y-91982380D01*
X166203333Y-95702380D02*
X165870000Y-95226190D01*
X165631904Y-95702380D02*
X165631904Y-94702380D01*
X166012857Y-94702380D01*
X166108095Y-94750000D01*
X166155714Y-94797619D01*
X166203333Y-94892857D01*
X166203333Y-95035714D01*
X166155714Y-95130952D01*
X166108095Y-95178571D01*
X166012857Y-95226190D01*
X165631904Y-95226190D01*
X166536666Y-94702380D02*
X167155714Y-94702380D01*
X166822380Y-95083333D01*
X166965238Y-95083333D01*
X167060476Y-95130952D01*
X167108095Y-95178571D01*
X167155714Y-95273809D01*
X167155714Y-95511904D01*
X167108095Y-95607142D01*
X167060476Y-95654761D01*
X166965238Y-95702380D01*
X166679523Y-95702380D01*
X166584285Y-95654761D01*
X166536666Y-95607142D01*
X165703333Y-85362380D02*
X165131904Y-85362380D01*
X165417619Y-85362380D02*
X165417619Y-84362380D01*
X165322380Y-84505238D01*
X165227142Y-84600476D01*
X165131904Y-84648095D01*
X166322380Y-84362380D02*
X166417619Y-84362380D01*
X166512857Y-84410000D01*
X166560476Y-84457619D01*
X166608095Y-84552857D01*
X166655714Y-84743333D01*
X166655714Y-84981428D01*
X166608095Y-85171904D01*
X166560476Y-85267142D01*
X166512857Y-85314761D01*
X166417619Y-85362380D01*
X166322380Y-85362380D01*
X166227142Y-85314761D01*
X166179523Y-85267142D01*
X166131904Y-85171904D01*
X166084285Y-84981428D01*
X166084285Y-84743333D01*
X166131904Y-84552857D01*
X166179523Y-84457619D01*
X166227142Y-84410000D01*
X166322380Y-84362380D01*
X167274761Y-84362380D02*
X167370000Y-84362380D01*
X167465238Y-84410000D01*
X167512857Y-84457619D01*
X167560476Y-84552857D01*
X167608095Y-84743333D01*
X167608095Y-84981428D01*
X167560476Y-85171904D01*
X167512857Y-85267142D01*
X167465238Y-85314761D01*
X167370000Y-85362380D01*
X167274761Y-85362380D01*
X167179523Y-85314761D01*
X167131904Y-85267142D01*
X167084285Y-85171904D01*
X167036666Y-84981428D01*
X167036666Y-84743333D01*
X167084285Y-84552857D01*
X167131904Y-84457619D01*
X167179523Y-84410000D01*
X167274761Y-84362380D01*
X166203333Y-88082380D02*
X165870000Y-87606190D01*
X165631904Y-88082380D02*
X165631904Y-87082380D01*
X166012857Y-87082380D01*
X166108095Y-87130000D01*
X166155714Y-87177619D01*
X166203333Y-87272857D01*
X166203333Y-87415714D01*
X166155714Y-87510952D01*
X166108095Y-87558571D01*
X166012857Y-87606190D01*
X165631904Y-87606190D01*
X166584285Y-87177619D02*
X166631904Y-87130000D01*
X166727142Y-87082380D01*
X166965238Y-87082380D01*
X167060476Y-87130000D01*
X167108095Y-87177619D01*
X167155714Y-87272857D01*
X167155714Y-87368095D01*
X167108095Y-87510952D01*
X166536666Y-88082380D01*
X167155714Y-88082380D01*
X165703333Y-77742380D02*
X165131904Y-77742380D01*
X165417619Y-77742380D02*
X165417619Y-76742380D01*
X165322380Y-76885238D01*
X165227142Y-76980476D01*
X165131904Y-77028095D01*
X166322380Y-76742380D02*
X166417619Y-76742380D01*
X166512857Y-76790000D01*
X166560476Y-76837619D01*
X166608095Y-76932857D01*
X166655714Y-77123333D01*
X166655714Y-77361428D01*
X166608095Y-77551904D01*
X166560476Y-77647142D01*
X166512857Y-77694761D01*
X166417619Y-77742380D01*
X166322380Y-77742380D01*
X166227142Y-77694761D01*
X166179523Y-77647142D01*
X166131904Y-77551904D01*
X166084285Y-77361428D01*
X166084285Y-77123333D01*
X166131904Y-76932857D01*
X166179523Y-76837619D01*
X166227142Y-76790000D01*
X166322380Y-76742380D01*
X167274761Y-76742380D02*
X167370000Y-76742380D01*
X167465238Y-76790000D01*
X167512857Y-76837619D01*
X167560476Y-76932857D01*
X167608095Y-77123333D01*
X167608095Y-77361428D01*
X167560476Y-77551904D01*
X167512857Y-77647142D01*
X167465238Y-77694761D01*
X167370000Y-77742380D01*
X167274761Y-77742380D01*
X167179523Y-77694761D01*
X167131904Y-77647142D01*
X167084285Y-77551904D01*
X167036666Y-77361428D01*
X167036666Y-77123333D01*
X167084285Y-76932857D01*
X167131904Y-76837619D01*
X167179523Y-76790000D01*
X167274761Y-76742380D01*
X166203333Y-80462380D02*
X165870000Y-79986190D01*
X165631904Y-80462380D02*
X165631904Y-79462380D01*
X166012857Y-79462380D01*
X166108095Y-79510000D01*
X166155714Y-79557619D01*
X166203333Y-79652857D01*
X166203333Y-79795714D01*
X166155714Y-79890952D01*
X166108095Y-79938571D01*
X166012857Y-79986190D01*
X165631904Y-79986190D01*
X167155714Y-80462380D02*
X166584285Y-80462380D01*
X166870000Y-80462380D02*
X166870000Y-79462380D01*
X166774761Y-79605238D01*
X166679523Y-79700476D01*
X166584285Y-79748095D01*
X169092857Y-75802380D02*
X169092857Y-74802380D01*
X170140476Y-75802380D02*
X169807142Y-75326190D01*
X169569047Y-75802380D02*
X169569047Y-74802380D01*
X169950000Y-74802380D01*
X170045238Y-74850000D01*
X170092857Y-74897619D01*
X170140476Y-74992857D01*
X170140476Y-75135714D01*
X170092857Y-75230952D01*
X170045238Y-75278571D01*
X169950000Y-75326190D01*
X169569047Y-75326190D01*
X170521428Y-74897619D02*
X170569047Y-74850000D01*
X170664285Y-74802380D01*
X170902380Y-74802380D01*
X170997619Y-74850000D01*
X171045238Y-74897619D01*
X171092857Y-74992857D01*
X171092857Y-75088095D01*
X171045238Y-75230952D01*
X170473809Y-75802380D01*
X171092857Y-75802380D01*
X171711904Y-74802380D02*
X171807142Y-74802380D01*
X171902380Y-74850000D01*
X171950000Y-74897619D01*
X171997619Y-74992857D01*
X172045238Y-75183333D01*
X172045238Y-75421428D01*
X171997619Y-75611904D01*
X171950000Y-75707142D01*
X171902380Y-75754761D01*
X171807142Y-75802380D01*
X171711904Y-75802380D01*
X171616666Y-75754761D01*
X171569047Y-75707142D01*
X171521428Y-75611904D01*
X171473809Y-75421428D01*
X171473809Y-75183333D01*
X171521428Y-74992857D01*
X171569047Y-74897619D01*
X171616666Y-74850000D01*
X171711904Y-74802380D01*
X172902380Y-75135714D02*
X172902380Y-75802380D01*
X172664285Y-74754761D02*
X172426190Y-75469047D01*
X173045238Y-75469047D01*
X173378571Y-75516666D02*
X173854761Y-75516666D01*
X173283333Y-75802380D02*
X173616666Y-74802380D01*
X173950000Y-75802380D01*
D12*
X169573809Y-72751904D02*
X169573809Y-71951904D01*
X170411904Y-72751904D02*
X170145238Y-72370952D01*
X169954761Y-72751904D02*
X169954761Y-71951904D01*
X170259523Y-71951904D01*
X170335714Y-71990000D01*
X170373809Y-72028095D01*
X170411904Y-72104285D01*
X170411904Y-72218571D01*
X170373809Y-72294761D01*
X170335714Y-72332857D01*
X170259523Y-72370952D01*
X169954761Y-72370952D01*
X170754761Y-72447142D02*
X171364285Y-72447142D01*
X171707142Y-72713809D02*
X171821428Y-72751904D01*
X172011904Y-72751904D01*
X172088095Y-72713809D01*
X172126190Y-72675714D01*
X172164285Y-72599523D01*
X172164285Y-72523333D01*
X172126190Y-72447142D01*
X172088095Y-72409047D01*
X172011904Y-72370952D01*
X171859523Y-72332857D01*
X171783333Y-72294761D01*
X171745238Y-72256666D01*
X171707142Y-72180476D01*
X171707142Y-72104285D01*
X171745238Y-72028095D01*
X171783333Y-71990000D01*
X171859523Y-71951904D01*
X172050000Y-71951904D01*
X172164285Y-71990000D01*
X172507142Y-72751904D02*
X172507142Y-71951904D01*
X172964285Y-72751904D01*
X172964285Y-71951904D01*
X173307142Y-72028095D02*
X173345238Y-71990000D01*
X173421428Y-71951904D01*
X173611904Y-71951904D01*
X173688095Y-71990000D01*
X173726190Y-72028095D01*
X173764285Y-72104285D01*
X173764285Y-72180476D01*
X173726190Y-72294761D01*
X173269047Y-72751904D01*
X173764285Y-72751904D01*
D11*
X169092857Y-68182380D02*
X169092857Y-67182380D01*
X170140476Y-68182380D02*
X169807142Y-67706190D01*
X169569047Y-68182380D02*
X169569047Y-67182380D01*
X169950000Y-67182380D01*
X170045238Y-67230000D01*
X170092857Y-67277619D01*
X170140476Y-67372857D01*
X170140476Y-67515714D01*
X170092857Y-67610952D01*
X170045238Y-67658571D01*
X169950000Y-67706190D01*
X169569047Y-67706190D01*
X170521428Y-67277619D02*
X170569047Y-67230000D01*
X170664285Y-67182380D01*
X170902380Y-67182380D01*
X170997619Y-67230000D01*
X171045238Y-67277619D01*
X171092857Y-67372857D01*
X171092857Y-67468095D01*
X171045238Y-67610952D01*
X170473809Y-68182380D01*
X171092857Y-68182380D01*
X171711904Y-67182380D02*
X171807142Y-67182380D01*
X171902380Y-67230000D01*
X171950000Y-67277619D01*
X171997619Y-67372857D01*
X172045238Y-67563333D01*
X172045238Y-67801428D01*
X171997619Y-67991904D01*
X171950000Y-68087142D01*
X171902380Y-68134761D01*
X171807142Y-68182380D01*
X171711904Y-68182380D01*
X171616666Y-68134761D01*
X171569047Y-68087142D01*
X171521428Y-67991904D01*
X171473809Y-67801428D01*
X171473809Y-67563333D01*
X171521428Y-67372857D01*
X171569047Y-67277619D01*
X171616666Y-67230000D01*
X171711904Y-67182380D01*
X172902380Y-67515714D02*
X172902380Y-68182380D01*
X172664285Y-67134761D02*
X172426190Y-67849047D01*
X173045238Y-67849047D01*
X173378571Y-67896666D02*
X173854761Y-67896666D01*
X173283333Y-68182380D02*
X173616666Y-67182380D01*
X173950000Y-68182380D01*
D12*
X169573809Y-65131904D02*
X169573809Y-64331904D01*
X170411904Y-65131904D02*
X170145238Y-64750952D01*
X169954761Y-65131904D02*
X169954761Y-64331904D01*
X170259523Y-64331904D01*
X170335714Y-64370000D01*
X170373809Y-64408095D01*
X170411904Y-64484285D01*
X170411904Y-64598571D01*
X170373809Y-64674761D01*
X170335714Y-64712857D01*
X170259523Y-64750952D01*
X169954761Y-64750952D01*
X170754761Y-64827142D02*
X171364285Y-64827142D01*
X171707142Y-65093809D02*
X171821428Y-65131904D01*
X172011904Y-65131904D01*
X172088095Y-65093809D01*
X172126190Y-65055714D01*
X172164285Y-64979523D01*
X172164285Y-64903333D01*
X172126190Y-64827142D01*
X172088095Y-64789047D01*
X172011904Y-64750952D01*
X171859523Y-64712857D01*
X171783333Y-64674761D01*
X171745238Y-64636666D01*
X171707142Y-64560476D01*
X171707142Y-64484285D01*
X171745238Y-64408095D01*
X171783333Y-64370000D01*
X171859523Y-64331904D01*
X172050000Y-64331904D01*
X172164285Y-64370000D01*
X172507142Y-65131904D02*
X172507142Y-64331904D01*
X172964285Y-65131904D01*
X172964285Y-64331904D01*
X173764285Y-65131904D02*
X173307142Y-65131904D01*
X173535714Y-65131904D02*
X173535714Y-64331904D01*
X173459523Y-64446190D01*
X173383333Y-64522380D01*
X173307142Y-64560476D01*
D11*
X160202857Y-75802380D02*
X160202857Y-74802380D01*
X161250476Y-75802380D02*
X160917142Y-75326190D01*
X160679047Y-75802380D02*
X160679047Y-74802380D01*
X161060000Y-74802380D01*
X161155238Y-74850000D01*
X161202857Y-74897619D01*
X161250476Y-74992857D01*
X161250476Y-75135714D01*
X161202857Y-75230952D01*
X161155238Y-75278571D01*
X161060000Y-75326190D01*
X160679047Y-75326190D01*
X161631428Y-74897619D02*
X161679047Y-74850000D01*
X161774285Y-74802380D01*
X162012380Y-74802380D01*
X162107619Y-74850000D01*
X162155238Y-74897619D01*
X162202857Y-74992857D01*
X162202857Y-75088095D01*
X162155238Y-75230952D01*
X161583809Y-75802380D01*
X162202857Y-75802380D01*
X162821904Y-74802380D02*
X162917142Y-74802380D01*
X163012380Y-74850000D01*
X163060000Y-74897619D01*
X163107619Y-74992857D01*
X163155238Y-75183333D01*
X163155238Y-75421428D01*
X163107619Y-75611904D01*
X163060000Y-75707142D01*
X163012380Y-75754761D01*
X162917142Y-75802380D01*
X162821904Y-75802380D01*
X162726666Y-75754761D01*
X162679047Y-75707142D01*
X162631428Y-75611904D01*
X162583809Y-75421428D01*
X162583809Y-75183333D01*
X162631428Y-74992857D01*
X162679047Y-74897619D01*
X162726666Y-74850000D01*
X162821904Y-74802380D01*
X164012380Y-75135714D02*
X164012380Y-75802380D01*
X163774285Y-74754761D02*
X163536190Y-75469047D01*
X164155238Y-75469047D01*
X164488571Y-75516666D02*
X164964761Y-75516666D01*
X164393333Y-75802380D02*
X164726666Y-74802380D01*
X165060000Y-75802380D01*
D12*
X160664761Y-72751904D02*
X160664761Y-71951904D01*
X161502857Y-72751904D02*
X161236190Y-72370952D01*
X161045714Y-72751904D02*
X161045714Y-71951904D01*
X161350476Y-71951904D01*
X161426666Y-71990000D01*
X161464761Y-72028095D01*
X161502857Y-72104285D01*
X161502857Y-72218571D01*
X161464761Y-72294761D01*
X161426666Y-72332857D01*
X161350476Y-72370952D01*
X161045714Y-72370952D01*
X161845714Y-72447142D02*
X162455238Y-72447142D01*
X162836190Y-72332857D02*
X163102857Y-72332857D01*
X163217142Y-72751904D02*
X162836190Y-72751904D01*
X162836190Y-71951904D01*
X163217142Y-71951904D01*
X163483809Y-71951904D02*
X163674285Y-72751904D01*
X163826666Y-72180476D01*
X163979047Y-72751904D01*
X164169523Y-71951904D01*
X164436190Y-72028095D02*
X164474285Y-71990000D01*
X164550476Y-71951904D01*
X164740952Y-71951904D01*
X164817142Y-71990000D01*
X164855238Y-72028095D01*
X164893333Y-72104285D01*
X164893333Y-72180476D01*
X164855238Y-72294761D01*
X164398095Y-72751904D01*
X164893333Y-72751904D01*
D11*
X160202857Y-68182380D02*
X160202857Y-67182380D01*
X161250476Y-68182380D02*
X160917142Y-67706190D01*
X160679047Y-68182380D02*
X160679047Y-67182380D01*
X161060000Y-67182380D01*
X161155238Y-67230000D01*
X161202857Y-67277619D01*
X161250476Y-67372857D01*
X161250476Y-67515714D01*
X161202857Y-67610952D01*
X161155238Y-67658571D01*
X161060000Y-67706190D01*
X160679047Y-67706190D01*
X161631428Y-67277619D02*
X161679047Y-67230000D01*
X161774285Y-67182380D01*
X162012380Y-67182380D01*
X162107619Y-67230000D01*
X162155238Y-67277619D01*
X162202857Y-67372857D01*
X162202857Y-67468095D01*
X162155238Y-67610952D01*
X161583809Y-68182380D01*
X162202857Y-68182380D01*
X162821904Y-67182380D02*
X162917142Y-67182380D01*
X163012380Y-67230000D01*
X163060000Y-67277619D01*
X163107619Y-67372857D01*
X163155238Y-67563333D01*
X163155238Y-67801428D01*
X163107619Y-67991904D01*
X163060000Y-68087142D01*
X163012380Y-68134761D01*
X162917142Y-68182380D01*
X162821904Y-68182380D01*
X162726666Y-68134761D01*
X162679047Y-68087142D01*
X162631428Y-67991904D01*
X162583809Y-67801428D01*
X162583809Y-67563333D01*
X162631428Y-67372857D01*
X162679047Y-67277619D01*
X162726666Y-67230000D01*
X162821904Y-67182380D01*
X164012380Y-67515714D02*
X164012380Y-68182380D01*
X163774285Y-67134761D02*
X163536190Y-67849047D01*
X164155238Y-67849047D01*
X164488571Y-67896666D02*
X164964761Y-67896666D01*
X164393333Y-68182380D02*
X164726666Y-67182380D01*
X165060000Y-68182380D01*
D12*
X160664761Y-65131904D02*
X160664761Y-64331904D01*
X161502857Y-65131904D02*
X161236190Y-64750952D01*
X161045714Y-65131904D02*
X161045714Y-64331904D01*
X161350476Y-64331904D01*
X161426666Y-64370000D01*
X161464761Y-64408095D01*
X161502857Y-64484285D01*
X161502857Y-64598571D01*
X161464761Y-64674761D01*
X161426666Y-64712857D01*
X161350476Y-64750952D01*
X161045714Y-64750952D01*
X161845714Y-64827142D02*
X162455238Y-64827142D01*
X162836190Y-64712857D02*
X163102857Y-64712857D01*
X163217142Y-65131904D02*
X162836190Y-65131904D01*
X162836190Y-64331904D01*
X163217142Y-64331904D01*
X163483809Y-64331904D02*
X163674285Y-65131904D01*
X163826666Y-64560476D01*
X163979047Y-65131904D01*
X164169523Y-64331904D01*
X164893333Y-65131904D02*
X164436190Y-65131904D01*
X164664761Y-65131904D02*
X164664761Y-64331904D01*
X164588571Y-64446190D01*
X164512380Y-64522380D01*
X164436190Y-64560476D01*
D11*
X153027142Y-121522380D02*
X152550952Y-121522380D01*
X152550952Y-120522380D01*
X153360476Y-120998571D02*
X153693809Y-120998571D01*
X153836666Y-121522380D02*
X153360476Y-121522380D01*
X153360476Y-120522380D01*
X153836666Y-120522380D01*
X154265238Y-121522380D02*
X154265238Y-120522380D01*
X154503333Y-120522380D01*
X154646190Y-120570000D01*
X154741428Y-120665238D01*
X154789047Y-120760476D01*
X154836666Y-120950952D01*
X154836666Y-121093809D01*
X154789047Y-121284285D01*
X154741428Y-121379523D01*
X154646190Y-121474761D01*
X154503333Y-121522380D01*
X154265238Y-121522380D01*
D12*
X151603333Y-117710000D02*
X151527142Y-117671904D01*
X151412857Y-117671904D01*
X151298571Y-117710000D01*
X151222380Y-117786190D01*
X151184285Y-117862380D01*
X151146190Y-118014761D01*
X151146190Y-118129047D01*
X151184285Y-118281428D01*
X151222380Y-118357619D01*
X151298571Y-118433809D01*
X151412857Y-118471904D01*
X151489047Y-118471904D01*
X151603333Y-118433809D01*
X151641428Y-118395714D01*
X151641428Y-118129047D01*
X151489047Y-118129047D01*
X151984285Y-118471904D02*
X151984285Y-117938571D01*
X151984285Y-118090952D02*
X152022380Y-118014761D01*
X152060476Y-117976666D01*
X152136666Y-117938571D01*
X152212857Y-117938571D01*
X152784285Y-118433809D02*
X152708095Y-118471904D01*
X152555714Y-118471904D01*
X152479523Y-118433809D01*
X152441428Y-118357619D01*
X152441428Y-118052857D01*
X152479523Y-117976666D01*
X152555714Y-117938571D01*
X152708095Y-117938571D01*
X152784285Y-117976666D01*
X152822380Y-118052857D01*
X152822380Y-118129047D01*
X152441428Y-118205238D01*
X153470000Y-118433809D02*
X153393809Y-118471904D01*
X153241428Y-118471904D01*
X153165238Y-118433809D01*
X153127142Y-118357619D01*
X153127142Y-118052857D01*
X153165238Y-117976666D01*
X153241428Y-117938571D01*
X153393809Y-117938571D01*
X153470000Y-117976666D01*
X153508095Y-118052857D01*
X153508095Y-118129047D01*
X153127142Y-118205238D01*
X153850952Y-117938571D02*
X153850952Y-118471904D01*
X153850952Y-118014761D02*
X153889047Y-117976666D01*
X153965238Y-117938571D01*
X154079523Y-117938571D01*
X154155714Y-117976666D01*
X154193809Y-118052857D01*
X154193809Y-118471904D01*
X154536666Y-118433809D02*
X154650952Y-118471904D01*
X154841428Y-118471904D01*
X154917619Y-118433809D01*
X154955714Y-118395714D01*
X154993809Y-118319523D01*
X154993809Y-118243333D01*
X154955714Y-118167142D01*
X154917619Y-118129047D01*
X154841428Y-118090952D01*
X154689047Y-118052857D01*
X154612857Y-118014761D01*
X154574761Y-117976666D01*
X154536666Y-117900476D01*
X154536666Y-117824285D01*
X154574761Y-117748095D01*
X154612857Y-117710000D01*
X154689047Y-117671904D01*
X154879523Y-117671904D01*
X154993809Y-117710000D01*
X155336666Y-118471904D02*
X155336666Y-117671904D01*
X155793809Y-118471904D01*
X155793809Y-117671904D01*
X156136666Y-117748095D02*
X156174761Y-117710000D01*
X156250952Y-117671904D01*
X156441428Y-117671904D01*
X156517619Y-117710000D01*
X156555714Y-117748095D01*
X156593809Y-117824285D01*
X156593809Y-117900476D01*
X156555714Y-118014761D01*
X156098571Y-118471904D01*
X156593809Y-118471904D01*
D11*
X153027142Y-113902380D02*
X152550952Y-113902380D01*
X152550952Y-112902380D01*
X153360476Y-113378571D02*
X153693809Y-113378571D01*
X153836666Y-113902380D02*
X153360476Y-113902380D01*
X153360476Y-112902380D01*
X153836666Y-112902380D01*
X154265238Y-113902380D02*
X154265238Y-112902380D01*
X154503333Y-112902380D01*
X154646190Y-112950000D01*
X154741428Y-113045238D01*
X154789047Y-113140476D01*
X154836666Y-113330952D01*
X154836666Y-113473809D01*
X154789047Y-113664285D01*
X154741428Y-113759523D01*
X154646190Y-113854761D01*
X154503333Y-113902380D01*
X154265238Y-113902380D01*
D12*
X151603333Y-110090000D02*
X151527142Y-110051904D01*
X151412857Y-110051904D01*
X151298571Y-110090000D01*
X151222380Y-110166190D01*
X151184285Y-110242380D01*
X151146190Y-110394761D01*
X151146190Y-110509047D01*
X151184285Y-110661428D01*
X151222380Y-110737619D01*
X151298571Y-110813809D01*
X151412857Y-110851904D01*
X151489047Y-110851904D01*
X151603333Y-110813809D01*
X151641428Y-110775714D01*
X151641428Y-110509047D01*
X151489047Y-110509047D01*
X151984285Y-110851904D02*
X151984285Y-110318571D01*
X151984285Y-110470952D02*
X152022380Y-110394761D01*
X152060476Y-110356666D01*
X152136666Y-110318571D01*
X152212857Y-110318571D01*
X152784285Y-110813809D02*
X152708095Y-110851904D01*
X152555714Y-110851904D01*
X152479523Y-110813809D01*
X152441428Y-110737619D01*
X152441428Y-110432857D01*
X152479523Y-110356666D01*
X152555714Y-110318571D01*
X152708095Y-110318571D01*
X152784285Y-110356666D01*
X152822380Y-110432857D01*
X152822380Y-110509047D01*
X152441428Y-110585238D01*
X153470000Y-110813809D02*
X153393809Y-110851904D01*
X153241428Y-110851904D01*
X153165238Y-110813809D01*
X153127142Y-110737619D01*
X153127142Y-110432857D01*
X153165238Y-110356666D01*
X153241428Y-110318571D01*
X153393809Y-110318571D01*
X153470000Y-110356666D01*
X153508095Y-110432857D01*
X153508095Y-110509047D01*
X153127142Y-110585238D01*
X153850952Y-110318571D02*
X153850952Y-110851904D01*
X153850952Y-110394761D02*
X153889047Y-110356666D01*
X153965238Y-110318571D01*
X154079523Y-110318571D01*
X154155714Y-110356666D01*
X154193809Y-110432857D01*
X154193809Y-110851904D01*
X154536666Y-110813809D02*
X154650952Y-110851904D01*
X154841428Y-110851904D01*
X154917619Y-110813809D01*
X154955714Y-110775714D01*
X154993809Y-110699523D01*
X154993809Y-110623333D01*
X154955714Y-110547142D01*
X154917619Y-110509047D01*
X154841428Y-110470952D01*
X154689047Y-110432857D01*
X154612857Y-110394761D01*
X154574761Y-110356666D01*
X154536666Y-110280476D01*
X154536666Y-110204285D01*
X154574761Y-110128095D01*
X154612857Y-110090000D01*
X154689047Y-110051904D01*
X154879523Y-110051904D01*
X154993809Y-110090000D01*
X155336666Y-110851904D02*
X155336666Y-110051904D01*
X155793809Y-110851904D01*
X155793809Y-110051904D01*
X156593809Y-110851904D02*
X156136666Y-110851904D01*
X156365238Y-110851904D02*
X156365238Y-110051904D01*
X156289047Y-110166190D01*
X156212857Y-110242380D01*
X156136666Y-110280476D01*
D11*
X126357142Y-116872380D02*
X125880952Y-116872380D01*
X125880952Y-115872380D01*
X126690476Y-116348571D02*
X127023809Y-116348571D01*
X127166666Y-116872380D02*
X126690476Y-116872380D01*
X126690476Y-115872380D01*
X127166666Y-115872380D01*
X127595238Y-116872380D02*
X127595238Y-115872380D01*
X127833333Y-115872380D01*
X127976190Y-115920000D01*
X128071428Y-116015238D01*
X128119047Y-116110476D01*
X128166666Y-116300952D01*
X128166666Y-116443809D01*
X128119047Y-116634285D01*
X128071428Y-116729523D01*
X127976190Y-116824761D01*
X127833333Y-116872380D01*
X127595238Y-116872380D01*
D12*
X124514285Y-118980000D02*
X124438095Y-118941904D01*
X124323809Y-118941904D01*
X124209523Y-118980000D01*
X124133333Y-119056190D01*
X124095238Y-119132380D01*
X124057142Y-119284761D01*
X124057142Y-119399047D01*
X124095238Y-119551428D01*
X124133333Y-119627619D01*
X124209523Y-119703809D01*
X124323809Y-119741904D01*
X124400000Y-119741904D01*
X124514285Y-119703809D01*
X124552380Y-119665714D01*
X124552380Y-119399047D01*
X124400000Y-119399047D01*
X124895238Y-119741904D02*
X124895238Y-119208571D01*
X124895238Y-119360952D02*
X124933333Y-119284761D01*
X124971428Y-119246666D01*
X125047619Y-119208571D01*
X125123809Y-119208571D01*
X125695238Y-119703809D02*
X125619047Y-119741904D01*
X125466666Y-119741904D01*
X125390476Y-119703809D01*
X125352380Y-119627619D01*
X125352380Y-119322857D01*
X125390476Y-119246666D01*
X125466666Y-119208571D01*
X125619047Y-119208571D01*
X125695238Y-119246666D01*
X125733333Y-119322857D01*
X125733333Y-119399047D01*
X125352380Y-119475238D01*
X126380952Y-119703809D02*
X126304761Y-119741904D01*
X126152380Y-119741904D01*
X126076190Y-119703809D01*
X126038095Y-119627619D01*
X126038095Y-119322857D01*
X126076190Y-119246666D01*
X126152380Y-119208571D01*
X126304761Y-119208571D01*
X126380952Y-119246666D01*
X126419047Y-119322857D01*
X126419047Y-119399047D01*
X126038095Y-119475238D01*
X126761904Y-119208571D02*
X126761904Y-119741904D01*
X126761904Y-119284761D02*
X126800000Y-119246666D01*
X126876190Y-119208571D01*
X126990476Y-119208571D01*
X127066666Y-119246666D01*
X127104761Y-119322857D01*
X127104761Y-119741904D01*
X127485714Y-119322857D02*
X127752380Y-119322857D01*
X127866666Y-119741904D02*
X127485714Y-119741904D01*
X127485714Y-118941904D01*
X127866666Y-118941904D01*
X128133333Y-118941904D02*
X128323809Y-119741904D01*
X128476190Y-119170476D01*
X128628571Y-119741904D01*
X128819047Y-118941904D01*
X129085714Y-119018095D02*
X129123809Y-118980000D01*
X129200000Y-118941904D01*
X129390476Y-118941904D01*
X129466666Y-118980000D01*
X129504761Y-119018095D01*
X129542857Y-119094285D01*
X129542857Y-119170476D01*
X129504761Y-119284761D01*
X129047619Y-119741904D01*
X129542857Y-119741904D01*
D11*
X126357142Y-109252380D02*
X125880952Y-109252380D01*
X125880952Y-108252380D01*
X126690476Y-108728571D02*
X127023809Y-108728571D01*
X127166666Y-109252380D02*
X126690476Y-109252380D01*
X126690476Y-108252380D01*
X127166666Y-108252380D01*
X127595238Y-109252380D02*
X127595238Y-108252380D01*
X127833333Y-108252380D01*
X127976190Y-108300000D01*
X128071428Y-108395238D01*
X128119047Y-108490476D01*
X128166666Y-108680952D01*
X128166666Y-108823809D01*
X128119047Y-109014285D01*
X128071428Y-109109523D01*
X127976190Y-109204761D01*
X127833333Y-109252380D01*
X127595238Y-109252380D01*
D12*
X124514285Y-111360000D02*
X124438095Y-111321904D01*
X124323809Y-111321904D01*
X124209523Y-111360000D01*
X124133333Y-111436190D01*
X124095238Y-111512380D01*
X124057142Y-111664761D01*
X124057142Y-111779047D01*
X124095238Y-111931428D01*
X124133333Y-112007619D01*
X124209523Y-112083809D01*
X124323809Y-112121904D01*
X124400000Y-112121904D01*
X124514285Y-112083809D01*
X124552380Y-112045714D01*
X124552380Y-111779047D01*
X124400000Y-111779047D01*
X124895238Y-112121904D02*
X124895238Y-111588571D01*
X124895238Y-111740952D02*
X124933333Y-111664761D01*
X124971428Y-111626666D01*
X125047619Y-111588571D01*
X125123809Y-111588571D01*
X125695238Y-112083809D02*
X125619047Y-112121904D01*
X125466666Y-112121904D01*
X125390476Y-112083809D01*
X125352380Y-112007619D01*
X125352380Y-111702857D01*
X125390476Y-111626666D01*
X125466666Y-111588571D01*
X125619047Y-111588571D01*
X125695238Y-111626666D01*
X125733333Y-111702857D01*
X125733333Y-111779047D01*
X125352380Y-111855238D01*
X126380952Y-112083809D02*
X126304761Y-112121904D01*
X126152380Y-112121904D01*
X126076190Y-112083809D01*
X126038095Y-112007619D01*
X126038095Y-111702857D01*
X126076190Y-111626666D01*
X126152380Y-111588571D01*
X126304761Y-111588571D01*
X126380952Y-111626666D01*
X126419047Y-111702857D01*
X126419047Y-111779047D01*
X126038095Y-111855238D01*
X126761904Y-111588571D02*
X126761904Y-112121904D01*
X126761904Y-111664761D02*
X126800000Y-111626666D01*
X126876190Y-111588571D01*
X126990476Y-111588571D01*
X127066666Y-111626666D01*
X127104761Y-111702857D01*
X127104761Y-112121904D01*
X127485714Y-111702857D02*
X127752380Y-111702857D01*
X127866666Y-112121904D02*
X127485714Y-112121904D01*
X127485714Y-111321904D01*
X127866666Y-111321904D01*
X128133333Y-111321904D02*
X128323809Y-112121904D01*
X128476190Y-111550476D01*
X128628571Y-112121904D01*
X128819047Y-111321904D01*
X129542857Y-112121904D02*
X129085714Y-112121904D01*
X129314285Y-112121904D02*
X129314285Y-111321904D01*
X129238095Y-111436190D01*
X129161904Y-111512380D01*
X129085714Y-111550476D01*
M02*
